<?xml version="1.0" encoding="utf-8"?>
<svg version="1.1" xmlns="http://www.w3.org/2000/svg" xmlns:xlink="http://www.w3.org/1999/xlink" x="0px" y="0px"
	 viewBox="75 75 150 150" style="enable-background:new 0 0 300 300;" xml:space="preserve">
<style type="text/css">
	.st0{display:none;}
	.st1{display:inline;fill:#4CAF50;}
	.st2{display:inline;fill:#FFE2C2;}
	.st3{display:inline;fill:#EDBDA9;}
	.st4{display:inline;fill-rule:evenodd;clip-rule:evenodd;fill:#03A9F4;}
	.st5{display:inline;fill-rule:evenodd;clip-rule:evenodd;fill:#FAFAFA;}
	.st6{display:inline;}
	.st7{fill:#FDD835;}
	.st8{fill:#123544;}
	.st9{fill:#FF6E40;}
	.st10{fill:#FFFFFF;}
	.st11{display:inline;opacity:0.3;fill:#FFFFFF;}
	.st12{fill:#4CAF50;}
	.st13{clip-path:url(#XMLID_71_);fill:#EBC0A4;}
	.st14{clip-path:url(#XMLID_71_);}
	.st15{fill:#E0AD91;}
	.st16{fill:#03A9F4;}
	.st17{fill:#FAFAFA;}
	.st18{fill:#3B78E7;}
	.st19{fill:#BF4131;}
	.st20{fill:#F05749;}
	.st21{fill:#E4E9EB;}
	.st22{fill:#FF9E00;}
	.st23{fill:#343E56;}
	.st24{clip-path:url(#XMLID_71_);fill-rule:evenodd;clip-rule:evenodd;fill:#ED6743;}
	.st25{clip-path:url(#XMLID_71_);fill-rule:evenodd;clip-rule:evenodd;fill:#FF6E40;}
	.st26{display:none;clip-path:url(#XMLID_71_);}
	.st27{fill:#F6F4F4;}
	.st28{fill:#4F7186;}
	.st29{display:inline;fill:#4F7186;}
	.st30{fill:#EBC0A4;}
	.st31{fill:#E6DDD2;}
	.st32{clip-path:url(#XMLID_73_);}
	.st33{fill:#E6B595;}
</style>
<g id="Layer_1" class="st0">
</g>
<g id="Layer_2" class="st0">
</g>
<g id="Layer_3" class="st0">
	<circle id="XMLID_1_" class="st1" cx="149.5" cy="149.8" r="48.2"/>
	<path id="XMLID_419_" class="st2" d="M165.8,180.8c-2.1-3.6-8-4.4-4.9-6.7c-0.1,0.1,1.2-1.1,1.5-1.4c0.1-0.1,0.2-0.3,0.3-0.3
		c0-0.1,0.1-0.2,0.2-0.3c0.1-0.2,0.6-1.5,0.5-1c0.1-0.4,0.3-0.8,0.3-1.3c0-0.2,0.1-0.4,0.1-0.5c0-0.2,0-0.5,0.1-0.7
		c0-0.7,0.1-1.3,0.1-2c0-1.5,0-3,0-4.4c0-2,0.6-3.5,1.7-4.6c-1.8-1.2-3.8-1.3-4.5-0.3l-0.3,0.4l-1.1,1.6l-0.1,0.1l-0.8-0.6l1.1-1.6
		l1.1-1.6l0.9-1.3c0.7-1.1-0.2-3-2.1-4.3c-1.9-1.3-4-1.6-4.8-0.5l-0.9,1.3l-1.1,1.6l-1.1,1.6l-0.8-0.6l5-7.1l0,0
		c0-0.1,0.1-0.1,0.1-0.2l6.6-9.4c1.2-1.7,0.7-4.2-1.2-5.5c-1.9-1.3-4.4-1-5.6,0.7l-6.6,9.4c0,0.1-0.1,0.1-0.1,0.2l0,0l-14.6,20.7
		l-3.9,7.6l-1.1-20.9c0.6-2.5,0.9-4.8-1.1-6.3c-2-1.4-4.8-0.9-6.3,1.1l-1.2,17.5c0,0-2,4.8-0.6,12.3l3.3,6.6
		c0.1,38.1,2.3,25,0.1,28.1l27.9,3.2c0.8-3.2,0.2-18.6,0.2-18.6c1.1-0.4,4.3-1.3,5.9-2.2c0.8-0.4,2-1.2,3.5-3.1
		C164.2,183.4,166.5,182,165.8,180.8z"/>
	<path id="XMLID_418_" class="st3" d="M175.4,124.9c-1.9-1.3-4.4-1-5.6,0.7l-6.6,9.4c0,0.1-0.1,0.1-0.1,0.2l0,0l-14.6,20.7l-0.1,0
		c0,0.1,0,0.2,0,0.2c0.5,3.1,0.7,6.6,1.8,9.6c0,0,0,0,0,0c0,0,0,0,0,0c0-0.1,0.2,0,0.3,0.2c0,0,0,0,0.1,0c0.1,0,0.1,0,0.2,0.1
		c0.4,0.1,0.8,0.3,1.2,0.4c0,0,0.1,0,0.1,0c0,0,0,0,0,0c0.4-0.6,0.9-1.2,1.3-1.9c2.7-3.9,5.2-7.9,7.6-12c1.2-2,3-3.1,4.9-3.4
		c-0.1-0.5-0.1-1.1,0-1.7l-0.2,0.3l-0.8-0.6l2.1-2.9c0.2-0.4,0.5-0.7,0.7-1l2.3-3.2l0,0c0-0.1,0.1-0.1,0.1-0.2l6.6-9.4
		C177.8,128.7,177.2,126.3,175.4,124.9z"/>
	<path id="XMLID_417_" class="st4" d="M169.2,181.2c0,1.2-1,2.2-2.3,2.2h-35c-1.2,0-2.3-1-2.3-2.2v-70.3c0-1.2,1-2.2,2.3-2.2h35
		c1.2,0,2.3,1,2.3,2.2V181.2z"/>
	<polygon id="XMLID_416_" class="st5" points="165.6,116.9 164.7,116.9 162.9,116.9 160.8,116.9 159.1,116.9 159,116.9 156.7,116.9
		150.9,116.9 148.9,116.9 146.8,116.9 144.9,116.9 142,116.9 140.2,116.9 134.5,116.9 134.3,116.9 132.5,116.9 131.5,116.9
		131.5,124.9 131.5,124.9 131.5,127 131.5,127 131.5,132.9 131.5,132.9 131.5,140.1 131.5,140.1 131.5,141.9 131.5,141.9
		131.5,159.7 131.5,159.7 131.5,161.3 131.5,161.3 131.5,169.5 131.5,169.5 131.5,171.7 131.5,171.7 131.5,177 131.6,177 133.5,177
		137.6,177 139.9,177 139.9,177 140.2,177 141.7,177 142,177 143.8,177 144,177 145.6,177 151.1,177 151.2,177 153.1,177 158,177
		160,177 160.4,177 162.8,177 167.4,177 167.4,172.1 167.4,168.8 167.4,168.1 167.4,167.1 167.4,165.1 167.4,164.3 167.4,162.1
		167.4,141.9 167.4,140.1 167.4,135.4 167.4,132.9 167.4,122.3 167.4,120.3 167.4,116.9 	"/>
	<path id="XMLID_412_" class="st2" d="M143.3,184.6c0.1-0.6,0.3-1.1,0.4-1.7c-0.1-0.3,0.2-6.3-6.8-11.1c-3.2-2.3-7-1.8-8.8-1.6v14.4
		H143.3z"/>
	<path id="XMLID_411_" class="st2" d="M174,164.2c0.4,1.7-0.5,3.4-2.1,3.8l-7.5,2c-1.6,0.4-3.3-0.6-3.8-2.3l0,0
		c-0.4-1.7,0.5-3.4,2.1-3.8l7.5-2C171.9,161.4,173.6,162.5,174,164.2L174,164.2z"/>
	<path id="XMLID_410_" class="st2" d="M173.9,156.7c0.4,1.8-0.5,3.5-2.2,3.9l-7.5,1.9c-1.6,0.4-3.3-0.7-3.8-2.5l0,0
		c-0.4-1.8,0.5-3.5,2.2-3.9l7.5-1.9C171.8,153.9,173.4,155,173.9,156.7L173.9,156.7z"/>
	<path id="XMLID_409_" class="st2" d="M173.2,146.8c0.9,1.9,0.3,4.1-1.5,4.9l-7.8,3.7c-1.7,0.8-3.8-0.1-4.7-2l0,0
		c-0.9-1.9-0.3-4.1,1.5-4.9l7.8-3.7C170.2,144,172.3,144.9,173.2,146.8L173.2,146.8z"/>
	<g id="XMLID_488_" class="st6">
		<path id="XMLID_408_" class="st7" d="M200.8,143.7c0,1.5-1.2,2.7-2.7,2.7h-57.7c-1.5,0-2.7-1.2-2.7-2.7v-27.9
			c0-1.5,1.2-2.7,2.7-2.7h57.7c1.5,0,2.7,1.2,2.7,2.7V143.7z"/>
		<g id="XMLID_504_">
			<g id="XMLID_547_">
				<path id="XMLID_548_" class="st8" d="M152.5,132.3c-3,0-5.4-2.2-5.4-5v-4c0-2.8,2.4-4.2,5.4-4.2c3,0,5.4,1.4,5.4,4.2v4
					C157.9,130,155.5,132.3,152.5,132.3z M152.5,120.7c-2.1,0-3.9,0.9-3.9,2.8v3.6c0,2,1.7,3.5,3.9,3.5c2.1,0,3.9-1.6,3.9-3.5v-3.6
					C156.4,121.6,154.6,120.7,152.5,120.7z"/>
			</g>
			<g id="XMLID_544_">
				<path id="XMLID_405_" class="st9" d="M159.5,126.7h-14.2c-0.1,0-0.1,0-0.2,0v10.3h14.4V126.7z"/>
				<rect id="XMLID_404_" x="145.1" y="136.9" class="st8" width="14.4" height="0.7"/>
			</g>
			<g id="XMLID_508_">
				<g id="XMLID_521_">
					<g id="XMLID_522_">
						<g id="XMLID_523_">
							<rect id="XMLID_403_" x="151.8" y="129.1" class="st10" width="1.1" height="1"/>
							<rect id="XMLID_402_" x="149.6" y="129.1" class="st10" width="1.1" height="1"/>
							<rect id="XMLID_401_" x="154" y="129.1" class="st10" width="1.1" height="1"/>
						</g>
					</g>
				</g>
				<g id="XMLID_515_">
					<g id="XMLID_516_">
						<g id="XMLID_517_">
							<rect id="XMLID_400_" x="151.8" y="131.2" class="st10" width="1.1" height="1"/>
							<rect id="XMLID_399_" x="149.6" y="131.2" class="st10" width="1.1" height="1"/>
							<rect id="XMLID_398_" x="154" y="131.2" class="st10" width="1.1" height="1"/>
						</g>
					</g>
				</g>
				<g id="XMLID_509_">
					<g id="XMLID_510_">
						<g id="XMLID_511_">
							<rect id="XMLID_396_" x="151.8" y="133.3" class="st10" width="1.1" height="1"/>
							<rect id="XMLID_354_" x="149.6" y="133.3" class="st10" width="1.1" height="1"/>
							<rect id="XMLID_351_" x="154" y="133.3" class="st10" width="1.1" height="1"/>
						</g>
					</g>
				</g>
			</g>
		</g>
		<polygon id="XMLID_350_" class="st7" points="143.7,153.6 143.7,145.3 152.7,145.3 		"/>
		<polygon id="XMLID_349_" class="st10" points="193.4,137.6 193.4,137.6 164.5,137.6 164.5,137.6 164.5,129.8 164.5,129.8
			193.4,129.8 193.4,129.8 		"/>
		<polygon id="XMLID_348_" class="st10" points="193.4,128.3 193.4,128.3 164.5,128.3 164.5,128.3 164.5,120.5 164.5,120.5
			193.4,120.5 193.4,120.5 		"/>
		<g id="XMLID_489_">
			<circle id="XMLID_346_" class="st8" cx="171.6" cy="133.9" r="0.8"/>
			<circle id="XMLID_345_" class="st8" cx="174.6" cy="133.9" r="0.8"/>
			<circle id="XMLID_337_" class="st8" cx="177.7" cy="133.9" r="0.8"/>
			<circle id="XMLID_335_" class="st8" cx="180.7" cy="133.9" r="0.8"/>
			<circle id="XMLID_334_" class="st8" cx="183.8" cy="133.9" r="0.8"/>
			<circle id="XMLID_333_" class="st8" cx="186.8" cy="133.9" r="0.8"/>
		</g>
	</g>
	<path id="XMLID_331_" class="st11" d="M162.6,148.9c0,0,0.9,1.2,1.5,2.3c0.5,1,0.8,2.1,0.8,2.1l-2.4,1.2c0,0-1-0.5-1.7-2
		c-0.7-1.4-0.5-2.4-0.5-2.4L162.6,148.9z"/>
	<path id="XMLID_329_" class="st11" d="M124.8,144.5c0,0-0.8-0.9-2.4-1c0,0,0,0,0,0c-0.1,0.9-0.3,4.3-0.4,5.5c0,0,0,0,0,0
		c1.3,0,2.8-0.4,2.8-0.4L124.8,144.5z"/>
	<path id="XMLID_309_" class="st11" d="M164.6,156.6c0,0,0.6,1.2,1,2.4c0.3,1,0.3,2.1,0.3,2.1l-2.7,0.8c0,0-1-0.6-1.3-2.1
		c-0.4-1.4,0-2.4,0-2.4L164.6,156.6z"/>
	<path id="XMLID_308_" class="st11" d="M164.2,164.4c0,0,0.6,1.2,0.9,2.3c0.3,1,0.3,1.9,0.3,1.9l-2.4,0.7c0,0-0.9-0.6-1.2-2
		c-0.3-1.4,0-2.2,0-2.2L164.2,164.4z"/>
</g>
<g id="Layer_4" class="st0">
</g>
<g id="Layer_6">
	<g id="XMLID_2_">
		<circle id="XMLID_66_" class="st12" cx="150.4" cy="150.3" r="48.2"/>
		<g id="XMLID_85_">
			<defs>
				<rect id="XMLID_14_" x="96.6" y="111" width="81.5" height="96.2"/>
			</defs>
			<clipPath id="XMLID_71_">
				<use xlink:href="#XMLID_14_"  style="overflow:visible;"/>
			</clipPath>
			<path id="XMLID_65_" class="st13" d="M138.2,154.2L138.2,154.2c-1.3-2.1-0.5-4.9,1.9-6.5l28.2-18.2c2.4-1.5,5.3-1.1,6.6,0.9
				l0,0.1c1.3,2,0.4,4.9-1.9,6.4l-28.2,18.2C142.4,156.6,139.5,156.3,138.2,154.2z"/>
			<g id="XMLID_169_" class="st14">
				<path id="XMLID_64_" class="st15" d="M162.4,155.1L162.4,155.1c-1.7-1.7-1.7-4.4-0.1-6l4.6-4.5c1.6-1.6,4.3-1.6,6,0l0.1,0.1
					c1.7,1.7,1.7,4.3,0,6l-4.6,4.5C166.7,156.8,164,156.8,162.4,155.1z"/>
				<path id="XMLID_63_" class="st15" d="M161.8,164.1L161.8,164.1c-1.6-1.9-1.4-4.6,0.4-6.1l5-4.1c1.8-1.5,4.5-1.2,6,0.6l0.1,0.1
					c1.5,1.8,1.3,4.5-0.5,6l-5,4.1C166,166.2,163.3,165.9,161.8,164.1z"/>
				<path id="XMLID_62_" class="st15" d="M163,170.9L163,170.9c-1-1.9-0.4-4.2,1.4-5.1l5-2.6c1.8-1,4-0.3,5,1.6l0,0.1
					c1,1.8,0.3,4.1-1.4,5.1l-5,2.6C166.3,173.5,164,172.8,163,170.9z"/>
			</g>
			<path id="XMLID_61_" class="st13" d="M135.5,184.8l-0.3-0.2c-4-2.5-6.7-4.9-9.1-6.6c-3.7-2.6-5.1-7.7-2.2-15.8l16-17.3
				c7.7-6.8,9.9-4,17.6,3l1.7,1.4c8.1,6.3,8.6,14,9.1,16.8c0.3,1.9,0.4,4.3,0.4,4.3c0,1.4-0.2,5-2.6,6.9c-6.2,5-10.3,12.7-15.7,13.9
				C146.5,192,141.8,188.8,135.5,184.8z"/>

				<rect id="XMLID_60_" x="117.1" y="175.8" transform="matrix(0.8435 0.5372 -0.5372 0.8435 123.7185 -40.0085)" class="st13" width="26.8" height="33"/>
			<g id="XMLID_165_" class="st14">
				<path id="XMLID_59_" class="st16" d="M163.8,113.2h-24.4c-2.9,0-5.3,2.4-5.3,5.3v63.4c0,2.9,2.4,5.3,5.3,5.3h24.4
					c2.9,0,5.3-2.4,5.3-5.3v-63.4C169.1,115.6,166.7,113.2,163.8,113.2z"/>
			</g>
			<g id="XMLID_163_" class="st14">
				<rect id="XMLID_58_" x="136.3" y="123.3" class="st17" width="30.5" height="54.1"/>
			</g>
			<g id="XMLID_160_" class="st14">
				<g id="XMLID_161_">
					<path id="XMLID_57_" class="st18" d="M153.9,118.3h-4.6c-0.4,0-0.7,0.3-0.7,0.7c0,0.4,0.3,0.7,0.7,0.7h4.6
						c0.4,0,0.7-0.3,0.7-0.7C154.6,118.6,154.3,118.3,153.9,118.3z"/>
				</g>
			</g>
			<g id="XMLID_157_" class="st14">
				<g id="XMLID_158_">
					<path id="XMLID_56_" class="st18" d="M154.5,181.4h-5.9c-0.5,0-1,0.5-1,1.1c0,0.6,0.4,1.1,1,1.1h5.9c0.5,0,1-0.5,1-1.1
						C155.5,181.8,155.1,181.4,154.5,181.4z"/>
				</g>
			</g>
			<g id="XMLID_130_" class="st14">
				<path id="XMLID_152_" class="st19" d="M163.6,133c-0.1-0.4-0.6-0.7-1-0.5l-1.5,0.4c-0.2,0.1-0.3,0.2-0.4,0.3c0,0,0,0,0,0
					c0,0,0,0,0,0c0,0,0,0,0,0c0,0.1-0.1,0.1-0.1,0.2l-1,2.7h-18.3c-0.2,0-0.3,0.1-0.5,0.2c-0.1,0.1-0.2,0.3-0.1,0.5l2.4,10.7
					c0.1,0.3,0.3,0.5,0.6,0.5h14.7l-0.1,1.6h-14.1c-0.3,0-0.6,0.3-0.6,0.6c0,0.3,0.3,0.6,0.6,0.6h0.8c-0.3,0.4-0.4,0.8-0.4,1.3
					c0,1.2,1,2.2,2.2,2.2c1.2,0,2.2-1,2.2-2.2c0-0.5-0.2-0.9-0.4-1.3h6.3c-0.3,0.4-0.4,0.8-0.4,1.3c0,1.2,1,2.2,2.2,2.2
					c1.2,0,2.2-1,2.2-2.2c0-0.5-0.2-0.9-0.4-1.3h0.5c0,0,0,0,0,0c0,0,0,0,0,0c0.3,0,0.6-0.2,0.6-0.5l0.2-2.7c0,0,0,0,0,0
					c0,0,0,0,0,0l0.7-9.8c0,0,0-0.1,0-0.1l1.2-3.2c0,0,0.1,0,0.1,0l1.5-0.4C163.5,133.9,163.7,133.4,163.6,133z M146.7,153.4
					c-0.7,0-1.3-0.6-1.3-1.3c0-0.7,0.6-1.3,1.3-1.3c0.7,0,1.3,0.6,1.3,1.3C148,152.9,147.4,153.4,146.7,153.4z M156.5,153.4
					c-0.7,0-1.3-0.6-1.3-1.3c0-0.7,0.6-1.3,1.3-1.3c0.7,0,1.3,0.6,1.3,1.3C157.8,152.9,157.2,153.4,156.5,153.4z M142.1,137.4h17.1
					l-0.7,9.5h-14.3L142.1,137.4z"/>
				<path id="XMLID_147_" class="st20" d="M163.5,132.7c-0.1-0.4-0.6-0.7-1-0.5l-1.5,0.4c-0.2,0.1-0.3,0.2-0.4,0.3c0,0,0,0,0,0
					c0,0,0,0,0,0c0,0,0,0,0,0c0,0.1-0.1,0.1-0.1,0.2l-1,2.7h-18.3c-0.2,0-0.3,0.1-0.5,0.2c-0.1,0.1-0.2,0.3-0.1,0.5l2.4,10.7
					c0.1,0.3,0.3,0.5,0.6,0.5h14.7l-0.1,1.6H144c-0.3,0-0.6,0.3-0.6,0.6c0,0.3,0.3,0.6,0.6,0.6h0.8c-0.3,0.4-0.4,0.8-0.4,1.3
					c0,1.2,1,2.2,2.2,2.2c1.2,0,2.2-1,2.2-2.2c0-0.5-0.2-0.9-0.4-1.3h6.3c-0.3,0.4-0.4,0.8-0.4,1.3c0,1.2,1,2.2,2.2,2.2
					c1.2,0,2.2-1,2.2-2.2c0-0.5-0.2-0.9-0.4-1.3h0.5c0,0,0,0,0,0c0,0,0,0,0,0c0.3,0,0.6-0.2,0.6-0.5l0.2-2.7c0,0,0,0,0,0
					c0,0,0,0,0,0l0.7-9.8c0,0,0-0.1,0-0.1l1.2-3.2c0,0,0.1,0,0.1,0l1.5-0.4C163.4,133.6,163.6,133.2,163.5,132.7z M146.6,153.1
					c-0.7,0-1.3-0.6-1.3-1.3c0-0.7,0.6-1.3,1.3-1.3c0.7,0,1.3,0.6,1.3,1.3C147.8,152.6,147.3,153.1,146.6,153.1z M156.4,153.1
					c-0.7,0-1.3-0.6-1.3-1.3c0-0.7,0.6-1.3,1.3-1.3s1.3,0.6,1.3,1.3C157.6,152.6,157.1,153.1,156.4,153.1z M142,137.1H159l-0.7,9.5
					h-14.3L142,137.1z"/>
				<rect id="XMLID_47_" x="144.9" y="134.9" class="st21" width="12.7" height="2.9"/>
				<g id="XMLID_131_">
					<g id="XMLID_139_">
						<g id="XMLID_141_">
							<circle id="XMLID_46_" class="st22" cx="147.8" cy="135.6" r="0.4"/>
							<circle id="XMLID_45_" class="st22" cx="154.7" cy="135.6" r="0.4"/>
							<g id="XMLID_142_">
								<path id="XMLID_44_" class="st22" d="M154.7,135.8c-0.1,0-0.3-0.1-0.3-0.3c0-2.4-1.4-4.4-3.2-4.4c-1.7,0-3.2,2-3.2,4.4
									c0,0.1-0.1,0.3-0.3,0.3s-0.3-0.1-0.3-0.3c0-2.7,1.6-4.9,3.7-4.9c2,0,3.7,2.2,3.7,4.9C154.9,135.7,154.8,135.8,154.7,135.8z"
									/>
							</g>
						</g>
						<rect id="XMLID_43_" x="146" y="144.4" class="st22" width="10.5" height="1.2"/>
					</g>
					<path id="XMLID_42_" class="st7" d="M156.5,145.2H146v-10.8c0-0.1,0.1-0.2,0.2-0.2h10c0.1,0,0.2,0.1,0.2,0.2V145.2z"/>
					<g id="XMLID_133_">
						<circle id="XMLID_41_" class="st23" cx="147.8" cy="135.3" r="0.4"/>
						<circle id="XMLID_40_" class="st23" cx="154.7" cy="135.3" r="0.4"/>
						<g id="XMLID_134_">
							<path id="XMLID_39_" class="st21" d="M154.7,135.5c-0.1,0-0.3-0.1-0.3-0.3c0-2.4-1.4-4.4-3.2-4.4c-1.7,0-3.2,2-3.2,4.4
								c0,0.1-0.1,0.3-0.3,0.3s-0.3-0.1-0.3-0.3c0-2.7,1.6-4.9,3.7-4.9c2,0,3.7,2.2,3.7,4.9C154.9,135.4,154.8,135.5,154.7,135.5z"
								/>
						</g>
					</g>
				</g>
			</g>
			<path id="XMLID_38_" class="st24" d="M160.1,171.1h-16.8c-0.2,0-0.3-0.2-0.3-0.3v-6.1c0-0.2,0.2-0.3,0.3-0.3h16.8
				c0.2,0,0.3,0.2,0.3,0.3v6.1C160.4,171,160.3,171.1,160.1,171.1z"/>
			<path id="XMLID_37_" class="st25" d="M160.1,170.9h-16.8c-0.2,0-0.3-0.2-0.3-0.3v-6.1c0-0.2,0.2-0.3,0.3-0.3h16.8
				c0.2,0,0.3,0.2,0.3,0.3v6.1C160.4,170.7,160.3,170.9,160.1,170.9z"/>
			<g id="XMLID_119_" class="st14">
				<path id="XMLID_124_" class="st10" d="M149.6,166.2c0.1,0.1,0.1,0.3,0.1,0.5c0,0.2-0.1,0.4-0.2,0.5c-0.1,0.1-0.1,0.1-0.2,0.2
					c0.2,0.1,0.3,0.2,0.4,0.3s0.1,0.3,0.1,0.5c0,0.2,0,0.4-0.1,0.5c-0.1,0.1-0.1,0.2-0.2,0.3c-0.1,0.1-0.2,0.1-0.4,0.2
					c-0.1,0-0.3,0-0.5,0h-1.5v-3.2h1.6C149.1,165.9,149.4,166,149.6,166.2z M147.8,166.5v0.7h0.8c0.1,0,0.3,0,0.3-0.1
					c0.1-0.1,0.1-0.1,0.1-0.3c0-0.2-0.1-0.3-0.2-0.3c-0.1,0-0.2-0.1-0.4-0.1H147.8z M147.8,167.7v0.9h0.8c0.1,0,0.3,0,0.3-0.1
					c0.1-0.1,0.2-0.2,0.2-0.4c0-0.2-0.1-0.3-0.2-0.3c-0.1,0-0.2-0.1-0.3-0.1H147.8z"/>
				<path id="XMLID_122_" class="st10" d="M150.4,165.9h0.7v2c0,0.2,0,0.4,0.1,0.5c0.1,0.2,0.3,0.3,0.5,0.3c0.3,0,0.5-0.1,0.5-0.3
					c0.1-0.1,0.1-0.3,0.1-0.5v-2h0.7v2c0,0.3-0.1,0.6-0.2,0.8c-0.2,0.4-0.6,0.5-1.1,0.5c-0.6,0-0.9-0.2-1.1-0.5
					c-0.1-0.2-0.2-0.5-0.2-0.8V165.9z"/>
				<path id="XMLID_120_" class="st10" d="M155.5,165.9h0.8l-1.1,2v1.2h-0.7v-1.2l-1.1-2h0.8l0.7,1.4L155.5,165.9z"/>
			</g>
			<g id="XMLID_110_" class="st14">
				<path id="XMLID_115_" class="st21" d="M149.6,166.2c0.1,0.1,0.1,0.3,0.1,0.5c0,0.2-0.1,0.4-0.2,0.5c-0.1,0.1-0.1,0.1-0.2,0.2
					c0.2,0.1,0.3,0.2,0.4,0.3c0.1,0.1,0.1,0.3,0.1,0.5c0,0.2,0,0.4-0.1,0.5c-0.1,0.1-0.1,0.2-0.2,0.3c-0.1,0.1-0.2,0.1-0.4,0.2
					c-0.1,0-0.3,0-0.5,0h-1.5v-3.2h1.6C149.1,165.8,149.4,166,149.6,166.2z M147.8,166.4v0.7h0.8c0.1,0,0.3,0,0.3-0.1
					c0.1-0.1,0.1-0.1,0.1-0.3c0-0.2-0.1-0.3-0.2-0.3c-0.1,0-0.2-0.1-0.4-0.1H147.8z M147.8,167.6v0.9h0.8c0.1,0,0.3,0,0.3-0.1
					c0.1-0.1,0.2-0.2,0.2-0.4c0-0.2-0.1-0.3-0.2-0.3c-0.1,0-0.2-0.1-0.3-0.1H147.8z"/>
				<path id="XMLID_113_" class="st21" d="M150.4,165.8h0.7v2c0,0.2,0,0.4,0.1,0.5c0.1,0.2,0.3,0.3,0.5,0.3c0.3,0,0.5-0.1,0.5-0.3
					c0.1-0.1,0.1-0.3,0.1-0.5v-2h0.7v2c0,0.3-0.1,0.6-0.2,0.8c-0.2,0.4-0.6,0.5-1.1,0.5c-0.6,0-0.9-0.2-1.1-0.5
					c-0.1-0.2-0.2-0.5-0.2-0.8V165.8z"/>
				<path id="XMLID_111_" class="st21" d="M155.5,165.8h0.8l-1.1,2v1.2h-0.7v-1.2l-1.1-2h0.8l0.7,1.4L155.5,165.8z"/>
			</g>
			<g id="XMLID_102_" class="st26">
				<g id="XMLID_104_" class="st6">
					<path id="XMLID_26_" class="st27" d="M139.3,207.1l-26.1-16.9c-0.2-0.1-0.2-0.3-0.1-0.5l4-6.1c0.1-0.2,0.3-0.2,0.5-0.1
						l26.1,16.9c0.2,0.1,0.2,0.3,0.1,0.5l-4,6.1C139.6,207.2,139.4,207.2,139.3,207.1z"/>
					<circle id="XMLID_25_" class="st28" cx="118" cy="187.8" r="1.3"/>
				</g>
				<path id="XMLID_24_" class="st29" d="M127.1,227.2l-28.2-18.3c-0.3-0.2-0.4-0.6-0.2-0.9l13.5-19.7c0.2-0.3,0.6-0.4,0.9-0.2
					l28.2,18.3c0.3,0.2,0.4,0.6,0.2,0.9L128,227C127.8,227.3,127.4,227.4,127.1,227.2z"/>
			</g>
			<g id="XMLID_98_" class="st14">
				<path id="XMLID_23_" class="st15" d="M127.5,172.4l-0.3,0c-2.4-0.3-3.9-2.6-3.6-4.8l3.3-24.7c0.7-3.7,2.7-3.8,5.1-3.5l0.1,0
					c2.7,0.6,3.2,3.8,3.2,7c0,0.3,0,0.6-0.1,0.9l-2.6,20.8C132.3,170.2,129.9,172.6,127.5,172.4z"/>
				<path id="XMLID_22_" class="st30" d="M126.3,172.6L126.3,172.6c-2.5-0.3-4.2-2.5-3.8-4.8c0,0,4.5-21.5,4.2-25.3
					c-0.3-3.5,2.8-3.8,5.3-3.5l0.1,0c2.9,0.7,3.6,5.2,3.1,7.8l-3.7,22.2C131.1,171.3,128.8,172.9,126.3,172.6z"/>
				<path id="XMLID_21_" class="st31" d="M129.1,139c-0.3,0-0.7,0-1,0.2c-0.5,0.2-1.2,0.8-1.3,1.9c-0.2,1.8-0.4,4.5-0.2,4.8
					c0.2,0.3,1.1,0.6,2.2,0.2c1.1-0.4,1.3-0.6,1.6-1.5c0.3-0.9,0.2-4.1,0.1-4.5C130.3,139.9,130.1,139.1,129.1,139z"/>
			</g>
			<g id="XMLID_88_" class="st14">
				<g id="XMLID_95_">
					<path id="XMLID_20_" class="st30" d="M161,151.2L161,151.2c-0.9-2.2,0-4.5,2.1-5.4l5.6-2.3c2-0.9,4.3,0.1,5.2,2.2l0,0.1
						c0.9,2.1-0.1,4.5-2.1,5.3l-5.6,2.3C164.2,154.3,161.8,153.3,161,151.2z"/>
					<path id="XMLID_19_" class="st31" d="M167,148.7L167,148.7c-0.6-1.5-1.5-2.5-3.2-1.8l-1.5,0.6c-1.7,0.7-1.9,2.1-1.3,3.6l0,0.1
						c0.6,1.4,1.7,2.3,3.4,1.6l1.5-0.6C167.6,151.5,167.6,150.1,167,148.7z"/>
				</g>
				<g id="XMLID_92_">
					<path id="XMLID_18_" class="st30" d="M160.9,161L160.9,161c-0.9-2.2,0-4.6,2.1-5.4l5.7-2.3c2-0.9,4.4,0.1,5.3,2.2l0,0.1
						c0.9,2.1-0.1,4.5-2.1,5.3l-5.7,2.3C164.1,164.1,161.8,163.1,160.9,161z"/>
					<path id="XMLID_17_" class="st31" d="M166.8,158.5L166.8,158.5c-0.6-1.5-1.5-2.4-3.2-1.7l-1.4,0.6c-1.7,0.7-1.9,2.1-1.3,3.5
						l0,0.1c0.6,1.4,1.7,2.3,3.4,1.6l1.4-0.6C167.4,161.2,167.4,159.9,166.8,158.5z"/>
				</g>
				<g id="XMLID_89_">
					<path id="XMLID_16_" class="st30" d="M161.4,170.4L161.4,170.4c-0.8-2,0.2-4.3,2.2-5.1l5.7-2.3c2.1-0.9,4.4,0,5.2,1.9l0,0.1
						c0.8,1.9-0.2,4.2-2.3,5l-5.7,2.3C164.5,173.2,162.2,172.3,161.4,170.4z"/>
					<path id="XMLID_15_" class="st31" d="M166.9,168.2L166.9,168.2c-0.5-1.3-1.4-2.2-2.9-1.5l-1.3,0.5c-1.5,0.6-1.7,1.9-1.2,3.1
						l0,0c0.5,1.3,1.5,2,3,1.4l1.3-0.5C167.4,170.6,167.4,169.4,166.9,168.2z"/>
				</g>
			</g>
		</g>
		<g id="XMLID_3_">
			<defs>
				<rect id="XMLID_4_" x="146.4" y="147.5" width="59.6" height="59.6"/>
			</defs>
			<clipPath id="XMLID_73_">
				<use xlink:href="#XMLID_4_"  style="overflow:visible;"/>
			</clipPath>
			<g id="XMLID_70_" class="st32">
				<path id="XMLID_13_" class="st15" d="M186.7,187.8L186.7,187.8c-0.4,0.4-1,0.4-1.4,0l-5.1-5.1c-0.4-0.4-0.4-1,0-1.4l0,0
					c0.4-0.4,1-0.4,1.4,0l5.1,5.1C187.1,186.9,187.1,187.5,186.7,187.8z"/>
				<path id="XMLID_12_" class="st15" d="M181.8,194.6L181.8,194.6c-0.4,0.4-1,0.4-1.4,0l-7-7c-0.4-0.4-0.4-1,0-1.4l0,0
					c0.4-0.4,1-0.4,1.4,0l7,7C182.2,193.6,182.2,194.2,181.8,194.6z"/>
				<path id="XMLID_11_" class="st15" d="M192.1,181.5L192.1,181.5c-0.4,0.4-1,0.4-1.4,0l-3.2-3.2c-0.4-0.4-0.4-1,0-1.4l0,0
					c0.4-0.4,1-0.4,1.4,0l3.2,3.2C192.5,180.5,192.4,181.1,192.1,181.5z"/>
				<g id="XMLID_79_">
					<path id="XMLID_10_" class="st33" d="M194.1,209.3L194.1,209.3c-0.6,2-2.8,3-4.8,2.4l-22.1-7.1c-3.2-1.2-3-2.9-2.4-4.8l0-0.1
						c1-2.2,5.2-2.1,7.4-1.3l19.3,6.3C193.5,205.3,194.7,207.4,194.1,209.3z"/>
					<path id="XMLID_9_" class="st31" d="M164.2,201.4c-0.1,0.3-0.1,0.6-0.1,0.9c0.1,0.5,0.4,1.2,1.3,1.6c1.5,0.6,3.9,1.6,4.2,1.5
						c0.3-0.1,0.8-0.7,0.7-1.7c-0.1-1-0.2-1.2-0.9-1.6c-0.7-0.4-3.7-1.2-4-1.3C165.3,200.7,164.6,200.6,164.2,201.4z"/>
				</g>
				<polygon id="XMLID_8_" class="st15" points="186.5,210.8 173.8,198.9 175.6,199.5 189.1,211.6 				"/>
				<g id="XMLID_75_">
					<path id="XMLID_7_" class="st30" d="M198.8,177.1C198.8,177.1,198.8,177.1,198.8,177.1l-5.5-5.5c-1.4-1.4-3.8-1.4-5.3,0.1
						l-0.1,0.1c-1.5,1.5-1.5,3.8,0,5.3l3.3,3.2c-0.2,0.1-0.3,0.2-0.5,0.4l-5.2-5.2c-1.4-1.4-3.8-1.4-5.3,0.1l-0.1,0.1
						c-1.5,1.5-1.5,3.8,0,5.3l4.9,4.8c0,0-0.1,0.1-0.1,0.1l-0.2,0.2c0,0,0,0,0,0l-6.6-6.6c-1.4-1.4-3.8-1.4-5.3,0.1l-0.1,0.1
						c-1.5,1.5-1.5,3.8,0,5.3l6.9,6.9c-0.1,0.2-0.3,0.4-0.4,0.5l-16-15.9c-1.7-1.7-4.3-1.9-5.8-0.5l-0.1,0.1
						c-1.5,1.5-1.2,4.1,0.5,5.8l17.6,17.6c0.2,0.2,0.3,0.4,0.4,0.6c0,0,0.1,0.1,0.1,0.1l9.7,9.7c2.3,2.3,5.7,2.9,8.5,1.7l15.9,15.8
						l15.9-16l-15.8-15.7c0.4-0.7,0.7-1.5,0.8-2.2c0.4-2.2-0.7-4.7-2.1-6L198.8,177.1z"/>
					<path id="XMLID_6_" class="st31" d="M162,180.4L162,180.4c-1.1,1.1-2.3,1.6-3.6,0.4l-1.1-1.1c-1.3-1.3-0.9-2.7,0.1-3.7l0,0
						c1.1-1.1,2.5-1.4,3.7-0.2l1.1,1.1C163.6,178.1,163.1,179.4,162,180.4z"/>
				</g>
				<g id="XMLID_72_">
					<path id="XMLID_67_" class="st27" d="M220,203.1l-18,18c-0.1,0.1-0.3,0.1-0.4,0l-4.2-4.2c-0.1-0.1-0.1-0.3,0-0.4l18-18
						c0.1-0.1,0.3-0.1,0.4,0l4.2,4.2C220.1,202.8,220.1,202.9,220,203.1z"/>
					<circle id="XMLID_68_" class="st28" cx="200.9" cy="216.8" r="1"/>
				</g>
				<path id="XMLID_5_" class="st28" d="M227.8,209.4l-19.5,19.4c-0.2,0.2-0.5,0.2-0.8,0l-7.3-7.3c-0.2-0.2-0.2-0.5,0-0.8l19.5-19.4
					c0.2-0.2,0.5-0.2,0.8,0l7.3,7.3C228,208.9,228,209.2,227.8,209.4z"/>
			</g>
		</g>
	</g>
</g>
<g id="Layer_5" class="st0">
</g>
</svg>
