<?xml version="1.0" encoding="utf-8"?>
<svg version="1.1" xmlns="http://www.w3.org/2000/svg" xmlns:xlink="http://www.w3.org/1999/xlink" x="0px" y="0px"
	 viewBox="75 75 150 150" style="enable-background:new 0 0 300 300;" xml:space="preserve">
<style type="text/css">
	.st0{display:none;}
	.st1{display:inline;fill:#4CAF50;}
	.st2{display:inline;fill:#FFE2C2;}
	.st3{display:inline;fill:#EDBDA9;}
	.st4{display:inline;fill-rule:evenodd;clip-rule:evenodd;fill:#03A9F4;}
	.st5{display:inline;fill-rule:evenodd;clip-rule:evenodd;fill:#FAFAFA;}
	.st6{display:inline;}
	.st7{fill:#FDD835;}
	.st8{fill:#123544;}
	.st9{fill:#FF6E40;}
	.st10{fill:#FFFFFF;}
	.st11{display:inline;opacity:0.3;fill:#FFFFFF;}
	.st12{fill:#4CAF50;}
	.st13{clip-path:url(#XMLID_101_);fill:#EBC0A4;}
	.st14{clip-path:url(#XMLID_101_);}
	.st15{fill:#E0AD91;}
	.st16{fill:#03A9F4;}
	.st17{fill:#FAFAFA;}
	.st18{fill:#3B78E7;}
	.st19{fill:#BF4131;}
	.st20{fill:#F05749;}
	.st21{fill:#E4E9EB;}
	.st22{fill:#FF9E00;}
	.st23{fill:#343E56;}
	.st24{clip-path:url(#XMLID_101_);fill-rule:evenodd;clip-rule:evenodd;fill:#ED6743;}
	.st25{clip-path:url(#XMLID_101_);fill-rule:evenodd;clip-rule:evenodd;fill:#FF6E40;}
	.st26{display:none;clip-path:url(#XMLID_101_);}
	.st27{fill:#F6F4F4;}
	.st28{fill:#4F7186;}
	.st29{display:inline;fill:#4F7186;}
	.st30{fill:#EBC0A4;}
	.st31{fill:#E6DDD2;}
	.st32{clip-path:url(#XMLID_107_);}
	.st33{fill:#E6B595;}
	.st34{fill:none;}
	.st35{fill:#E0E0E0;}
	.st36{enable-background:new    ;}
	.st37{clip-path:url(#XMLID_108_);}
	.st38{clip-path:url(#XMLID_116_);fill:#EF6800;}
	.st39{clip-path:url(#XMLID_117_);}
	.st40{clip-path:url(#XMLID_123_);fill:#EF6800;}
	.st41{clip-path:url(#XMLID_125_);}
	.st42{clip-path:url(#XMLID_126_);fill:#EF6800;}
	.st43{clip-path:url(#XMLID_132_);}
	.st44{clip-path:url(#XMLID_136_);fill:#EF6800;}
	.st45{fill:#F5F5F5;}
	.st46{fill:#EEEEEE;}
	.st47{fill:#E8F5E9;}
	.st48{fill:#D5D9B2;}
</style>
<g id="Layer_1" class="st0">
</g>
<g id="Layer_2" class="st0">
</g>
<g id="Layer_3" class="st0">
	<circle id="XMLID_1_" class="st1" cx="150.5" cy="149.8" r="48.2"/>
	<path id="XMLID_419_" class="st2" d="M166.8,180.8c-2.1-3.6-8-4.4-4.9-6.7c-0.1,0.1,1.2-1.1,1.5-1.4c0.1-0.1,0.2-0.3,0.3-0.3
		c0-0.1,0.1-0.2,0.2-0.3c0.1-0.2,0.6-1.5,0.5-1c0.1-0.4,0.3-0.8,0.3-1.3c0-0.2,0.1-0.4,0.1-0.5c0-0.2,0-0.5,0.1-0.7
		c0-0.7,0.1-1.3,0.1-2c0-1.5,0-3,0-4.4c0-2,0.6-3.5,1.7-4.6c-1.8-1.2-3.8-1.3-4.5-0.3l-0.3,0.4l-1.1,1.6l-0.1,0.1l-0.8-0.6l1.1-1.6
		l1.1-1.6l0.9-1.3c0.7-1.1-0.2-3-2.1-4.3c-1.9-1.3-4-1.6-4.8-0.5l-0.9,1.3l-1.1,1.6l-1.1,1.6l-0.8-0.6l5-7.1l0,0
		c0-0.1,0.1-0.1,0.1-0.2l6.6-9.4c1.2-1.7,0.7-4.2-1.2-5.5c-1.9-1.3-4.4-1-5.6,0.7l-6.6,9.4c0,0.1-0.1,0.1-0.1,0.2l0,0l-14.6,20.7
		l-3.9,7.6l-1.1-20.9c0.6-2.5,0.9-4.8-1.1-6.3c-2-1.4-4.8-0.9-6.3,1.1l-1.2,17.5c0,0-2,4.8-0.6,12.3l3.3,6.6
		c0.1,38.1,2.3,25,0.1,28.1l27.9,3.2c0.8-3.2,0.2-18.6,0.2-18.6c1.1-0.4,4.3-1.3,5.9-2.2c0.8-0.4,2-1.2,3.5-3.1
		C165.2,183.4,167.5,182,166.8,180.8z"/>
	<path id="XMLID_418_" class="st3" d="M176.4,124.9c-1.9-1.3-4.4-1-5.6,0.7l-6.6,9.4c0,0.1-0.1,0.1-0.1,0.2l0,0l-14.6,20.7l-0.1,0
		c0,0.1,0,0.2,0,0.2c0.5,3.1,0.7,6.6,1.8,9.6c0,0,0,0,0,0c0,0,0,0,0,0c0-0.1,0.2,0,0.3,0.2c0,0,0,0,0.1,0c0.1,0,0.1,0,0.2,0.1
		c0.4,0.1,0.8,0.3,1.2,0.4c0,0,0.1,0,0.1,0c0,0,0,0,0,0c0.4-0.6,0.9-1.2,1.3-1.9c2.7-3.9,5.2-7.9,7.6-12c1.2-2,3-3.1,4.9-3.4
		c-0.1-0.5-0.1-1.1,0-1.7l-0.2,0.3l-0.8-0.6l2.1-2.9c0.2-0.4,0.5-0.7,0.7-1l2.3-3.2l0,0c0-0.1,0.1-0.1,0.1-0.2l6.6-9.4
		C178.8,128.7,178.2,126.3,176.4,124.9z"/>
	<path id="XMLID_417_" class="st4" d="M170.2,181.2c0,1.2-1,2.2-2.3,2.2h-35c-1.2,0-2.3-1-2.3-2.2v-70.3c0-1.2,1-2.2,2.3-2.2h35
		c1.2,0,2.3,1,2.3,2.2V181.2z"/>
	<polygon id="XMLID_416_" class="st5" points="166.6,116.9 165.7,116.9 163.9,116.9 161.8,116.9 160.1,116.9 160,116.9 157.7,116.9
		151.9,116.9 149.9,116.9 147.8,116.9 145.9,116.9 143,116.9 141.2,116.9 135.5,116.9 135.3,116.9 133.5,116.9 132.5,116.9
		132.5,124.9 132.5,124.9 132.5,127 132.5,127 132.5,132.9 132.5,132.9 132.5,140.1 132.5,140.1 132.5,141.9 132.5,141.9
		132.5,159.7 132.5,159.7 132.5,161.3 132.5,161.3 132.5,169.5 132.5,169.5 132.5,171.7 132.5,171.7 132.5,177 132.6,177 134.5,177
		138.6,177 140.9,177 140.9,177 141.2,177 142.7,177 143,177 144.8,177 145,177 146.6,177 152.1,177 152.2,177 154.1,177 159,177
		161,177 161.4,177 163.8,177 168.4,177 168.4,172.1 168.4,168.8 168.4,168.1 168.4,167.1 168.4,165.1 168.4,164.3 168.4,162.1
		168.4,141.9 168.4,140.1 168.4,135.4 168.4,132.9 168.4,122.3 168.4,120.3 168.4,116.9 	"/>
	<path id="XMLID_412_" class="st2" d="M144.3,184.6c0.1-0.6,0.3-1.1,0.4-1.7c-0.1-0.3,0.2-6.3-6.8-11.1c-3.2-2.3-7-1.8-8.8-1.6v14.4
		H144.3z"/>
	<path id="XMLID_411_" class="st2" d="M175,164.2c0.4,1.7-0.5,3.4-2.1,3.8l-7.5,2c-1.6,0.4-3.3-0.6-3.8-2.3l0,0
		c-0.4-1.7,0.5-3.4,2.1-3.8l7.5-2C172.9,161.4,174.6,162.5,175,164.2L175,164.2z"/>
	<path id="XMLID_410_" class="st2" d="M174.9,156.7c0.4,1.8-0.5,3.5-2.2,3.9l-7.5,1.9c-1.6,0.4-3.3-0.7-3.8-2.5l0,0
		c-0.4-1.8,0.5-3.5,2.2-3.9l7.5-1.9C172.8,153.9,174.4,155,174.9,156.7L174.9,156.7z"/>
	<path id="XMLID_409_" class="st2" d="M174.2,146.8c0.9,1.9,0.3,4.1-1.5,4.9l-7.8,3.7c-1.7,0.8-3.8-0.1-4.7-2l0,0
		c-0.9-1.9-0.3-4.1,1.5-4.9l7.8-3.7C171.2,144,173.3,144.9,174.2,146.8L174.2,146.8z"/>
	<g id="XMLID_488_" class="st6">
		<path id="XMLID_408_" class="st7" d="M201.8,143.7c0,1.5-1.2,2.7-2.7,2.7h-57.7c-1.5,0-2.7-1.2-2.7-2.7v-27.9
			c0-1.5,1.2-2.7,2.7-2.7h57.7c1.5,0,2.7,1.2,2.7,2.7V143.7z"/>
		<g id="XMLID_504_">
			<g id="XMLID_547_">
				<path id="XMLID_548_" class="st8" d="M153.5,132.3c-3,0-5.4-2.2-5.4-5v-4c0-2.8,2.4-4.2,5.4-4.2c3,0,5.4,1.4,5.4,4.2v4
					C158.9,130,156.5,132.3,153.5,132.3z M153.5,120.7c-2.1,0-3.9,0.9-3.9,2.8v3.6c0,2,1.7,3.5,3.9,3.5c2.1,0,3.9-1.6,3.9-3.5v-3.6
					C157.4,121.6,155.6,120.7,153.5,120.7z"/>
			</g>
			<g id="XMLID_544_">
				<path id="XMLID_405_" class="st9" d="M160.5,126.7h-14.2c-0.1,0-0.1,0-0.2,0v10.3h14.4V126.7z"/>
				<rect id="XMLID_404_" x="146.1" y="136.9" class="st8" width="14.4" height="0.7"/>
			</g>
			<g id="XMLID_508_">
				<g id="XMLID_521_">
					<g id="XMLID_522_">
						<g id="XMLID_523_">
							<rect id="XMLID_403_" x="152.8" y="129.1" class="st10" width="1.1" height="1"/>
							<rect id="XMLID_402_" x="150.6" y="129.1" class="st10" width="1.1" height="1"/>
							<rect id="XMLID_401_" x="155" y="129.1" class="st10" width="1.1" height="1"/>
						</g>
					</g>
				</g>
				<g id="XMLID_515_">
					<g id="XMLID_516_">
						<g id="XMLID_517_">
							<rect id="XMLID_400_" x="152.8" y="131.2" class="st10" width="1.1" height="1"/>
							<rect id="XMLID_399_" x="150.6" y="131.2" class="st10" width="1.1" height="1"/>
							<rect id="XMLID_398_" x="155" y="131.2" class="st10" width="1.1" height="1"/>
						</g>
					</g>
				</g>
				<g id="XMLID_509_">
					<g id="XMLID_510_">
						<g id="XMLID_511_">
							<rect id="XMLID_396_" x="152.8" y="133.3" class="st10" width="1.1" height="1"/>
							<rect id="XMLID_354_" x="150.6" y="133.3" class="st10" width="1.1" height="1"/>
							<rect id="XMLID_351_" x="155" y="133.3" class="st10" width="1.1" height="1"/>
						</g>
					</g>
				</g>
			</g>
		</g>
		<polygon id="XMLID_350_" class="st7" points="144.7,153.6 144.7,145.3 153.7,145.3 		"/>
		<polygon id="XMLID_349_" class="st10" points="194.4,137.6 194.4,137.6 165.5,137.6 165.5,137.6 165.5,129.8 165.5,129.8
			194.4,129.8 194.4,129.8 		"/>
		<polygon id="XMLID_348_" class="st10" points="194.4,128.3 194.4,128.3 165.5,128.3 165.5,128.3 165.5,120.5 165.5,120.5
			194.4,120.5 194.4,120.5 		"/>
		<g id="XMLID_489_">
			<circle id="XMLID_346_" class="st8" cx="172.6" cy="133.9" r="0.8"/>
			<circle id="XMLID_345_" class="st8" cx="175.6" cy="133.9" r="0.8"/>
			<circle id="XMLID_337_" class="st8" cx="178.7" cy="133.9" r="0.8"/>
			<circle id="XMLID_335_" class="st8" cx="181.7" cy="133.9" r="0.8"/>
			<circle id="XMLID_334_" class="st8" cx="184.8" cy="133.9" r="0.8"/>
			<circle id="XMLID_333_" class="st8" cx="187.8" cy="133.9" r="0.8"/>
		</g>
	</g>
	<path id="XMLID_331_" class="st11" d="M163.6,148.9c0,0,0.9,1.2,1.5,2.3c0.5,1,0.8,2.1,0.8,2.1l-2.4,1.2c0,0-1-0.5-1.7-2
		c-0.7-1.4-0.5-2.4-0.5-2.4L163.6,148.9z"/>
	<path id="XMLID_329_" class="st11" d="M125.8,144.5c0,0-0.8-0.9-2.4-1c0,0,0,0,0,0c-0.1,0.9-0.3,4.3-0.4,5.5c0,0,0,0,0,0
		c1.3,0,2.8-0.4,2.8-0.4L125.8,144.5z"/>
	<path id="XMLID_309_" class="st11" d="M165.6,156.6c0,0,0.6,1.2,1,2.4c0.3,1,0.3,2.1,0.3,2.1l-2.7,0.8c0,0-1-0.6-1.3-2.1
		c-0.4-1.4,0-2.4,0-2.4L165.6,156.6z"/>
	<path id="XMLID_308_" class="st11" d="M165.2,164.4c0,0,0.6,1.2,0.9,2.3c0.3,1,0.3,1.9,0.3,1.9l-2.4,0.7c0,0-0.9-0.6-1.2-2
		c-0.3-1.4,0-2.2,0-2.2L165.2,164.4z"/>
</g>
<g id="Layer_6" class="st0">
	<g id="XMLID_2_" class="st6">
		<circle id="XMLID_66_" class="st12" cx="150.4" cy="150.3" r="48.2"/>
		<g id="XMLID_85_">
			<defs>
				<rect id="XMLID_14_" x="96.6" y="111" width="81.5" height="96.2"/>
			</defs>
			<clipPath id="XMLID_101_">
				<use xlink:href="#XMLID_14_"  style="overflow:visible;"/>
			</clipPath>
			<path id="XMLID_65_" class="st13" d="M138.2,154.2L138.2,154.2c-1.3-2.1-0.5-4.9,1.9-6.5l28.2-18.2c2.4-1.5,5.3-1.1,6.6,0.9
				l0,0.1c1.3,2,0.4,4.9-1.9,6.4l-28.2,18.2C142.4,156.6,139.5,156.3,138.2,154.2z"/>
			<g id="XMLID_169_" class="st14">
				<path id="XMLID_64_" class="st15" d="M162.4,155.1L162.4,155.1c-1.7-1.7-1.7-4.4-0.1-6l4.6-4.5c1.6-1.6,4.3-1.6,6,0l0.1,0.1
					c1.7,1.7,1.7,4.3,0,6l-4.6,4.5C166.7,156.8,164,156.8,162.4,155.1z"/>
				<path id="XMLID_63_" class="st15" d="M161.8,164.1L161.8,164.1c-1.6-1.9-1.4-4.6,0.4-6.1l5-4.1c1.8-1.5,4.5-1.2,6,0.6l0.1,0.1
					c1.5,1.8,1.3,4.5-0.5,6l-5,4.1C166,166.2,163.3,165.9,161.8,164.1z"/>
				<path id="XMLID_62_" class="st15" d="M163,170.9L163,170.9c-1-1.9-0.4-4.2,1.4-5.1l5-2.6c1.8-1,4-0.3,5,1.6l0,0.1
					c1,1.8,0.3,4.1-1.4,5.1l-5,2.6C166.3,173.5,164,172.8,163,170.9z"/>
			</g>
			<path id="XMLID_61_" class="st13" d="M135.5,184.8l-0.3-0.2c-4-2.5-6.7-4.9-9.1-6.6c-3.7-2.6-5.1-7.7-2.2-15.8l16-17.3
				c7.7-6.8,9.9-4,17.6,3l1.7,1.4c8.1,6.3,8.6,14,9.1,16.8c0.3,1.9,0.4,4.3,0.4,4.3c0,1.4-0.2,5-2.6,6.9c-6.2,5-10.3,12.7-15.7,13.9
				C146.5,192,141.8,188.8,135.5,184.8z"/>

				<rect id="XMLID_60_" x="117.1" y="175.8" transform="matrix(0.8435 0.5372 -0.5372 0.8435 123.7185 -40.0085)" class="st13" width="26.8" height="33"/>
			<g id="XMLID_165_" class="st14">
				<path id="XMLID_59_" class="st16" d="M163.8,113.2h-24.4c-2.9,0-5.3,2.4-5.3,5.3v63.4c0,2.9,2.4,5.3,5.3,5.3h24.4
					c2.9,0,5.3-2.4,5.3-5.3v-63.4C169.1,115.6,166.7,113.2,163.8,113.2z"/>
			</g>
			<g id="XMLID_163_" class="st14">
				<rect id="XMLID_58_" x="136.3" y="123.3" class="st17" width="30.5" height="54.1"/>
			</g>
			<g id="XMLID_160_" class="st14">
				<g id="XMLID_161_">
					<path id="XMLID_57_" class="st18" d="M153.9,118.3h-4.6c-0.4,0-0.7,0.3-0.7,0.7c0,0.4,0.3,0.7,0.7,0.7h4.6
						c0.4,0,0.7-0.3,0.7-0.7C154.6,118.6,154.3,118.3,153.9,118.3z"/>
				</g>
			</g>
			<g id="XMLID_157_" class="st14">
				<g id="XMLID_158_">
					<path id="XMLID_56_" class="st18" d="M154.5,181.4h-5.9c-0.5,0-1,0.5-1,1.1c0,0.6,0.4,1.1,1,1.1h5.9c0.5,0,1-0.5,1-1.1
						C155.5,181.8,155.1,181.4,154.5,181.4z"/>
				</g>
			</g>
			<g id="XMLID_130_" class="st14">
				<path id="XMLID_152_" class="st19" d="M163.6,133c-0.1-0.4-0.6-0.7-1-0.5l-1.5,0.4c-0.2,0.1-0.3,0.2-0.4,0.3c0,0,0,0,0,0
					c0,0,0,0,0,0c0,0,0,0,0,0c0,0.1-0.1,0.1-0.1,0.2l-1,2.7h-18.3c-0.2,0-0.3,0.1-0.5,0.2c-0.1,0.1-0.2,0.3-0.1,0.5l2.4,10.7
					c0.1,0.3,0.3,0.5,0.6,0.5h14.7l-0.1,1.6h-14.1c-0.3,0-0.6,0.3-0.6,0.6c0,0.3,0.3,0.6,0.6,0.6h0.8c-0.3,0.4-0.4,0.8-0.4,1.3
					c0,1.2,1,2.2,2.2,2.2c1.2,0,2.2-1,2.2-2.2c0-0.5-0.2-0.9-0.4-1.3h6.3c-0.3,0.4-0.4,0.8-0.4,1.3c0,1.2,1,2.2,2.2,2.2
					c1.2,0,2.2-1,2.2-2.2c0-0.5-0.2-0.9-0.4-1.3h0.5c0,0,0,0,0,0c0,0,0,0,0,0c0.3,0,0.6-0.2,0.6-0.5l0.2-2.7c0,0,0,0,0,0
					c0,0,0,0,0,0l0.7-9.8c0,0,0-0.1,0-0.1l1.2-3.2c0,0,0.1,0,0.1,0l1.5-0.4C163.5,133.9,163.7,133.4,163.6,133z M146.7,153.4
					c-0.7,0-1.3-0.6-1.3-1.3c0-0.7,0.6-1.3,1.3-1.3c0.7,0,1.3,0.6,1.3,1.3C148,152.9,147.4,153.4,146.7,153.4z M156.5,153.4
					c-0.7,0-1.3-0.6-1.3-1.3c0-0.7,0.6-1.3,1.3-1.3c0.7,0,1.3,0.6,1.3,1.3C157.8,152.9,157.2,153.4,156.5,153.4z M142.1,137.4h17.1
					l-0.7,9.5h-14.3L142.1,137.4z"/>
				<path id="XMLID_147_" class="st20" d="M163.5,132.7c-0.1-0.4-0.6-0.7-1-0.5l-1.5,0.4c-0.2,0.1-0.3,0.2-0.4,0.3c0,0,0,0,0,0
					c0,0,0,0,0,0c0,0,0,0,0,0c0,0.1-0.1,0.1-0.1,0.2l-1,2.7h-18.3c-0.2,0-0.3,0.1-0.5,0.2c-0.1,0.1-0.2,0.3-0.1,0.5l2.4,10.7
					c0.1,0.3,0.3,0.5,0.6,0.5h14.7l-0.1,1.6H144c-0.3,0-0.6,0.3-0.6,0.6c0,0.3,0.3,0.6,0.6,0.6h0.8c-0.3,0.4-0.4,0.8-0.4,1.3
					c0,1.2,1,2.2,2.2,2.2c1.2,0,2.2-1,2.2-2.2c0-0.5-0.2-0.9-0.4-1.3h6.3c-0.3,0.4-0.4,0.8-0.4,1.3c0,1.2,1,2.2,2.2,2.2
					c1.2,0,2.2-1,2.2-2.2c0-0.5-0.2-0.9-0.4-1.3h0.5c0,0,0,0,0,0c0,0,0,0,0,0c0.3,0,0.6-0.2,0.6-0.5l0.2-2.7c0,0,0,0,0,0
					c0,0,0,0,0,0l0.7-9.8c0,0,0-0.1,0-0.1l1.2-3.2c0,0,0.1,0,0.1,0l1.5-0.4C163.4,133.6,163.6,133.2,163.5,132.7z M146.6,153.1
					c-0.7,0-1.3-0.6-1.3-1.3c0-0.7,0.6-1.3,1.3-1.3c0.7,0,1.3,0.6,1.3,1.3C147.8,152.6,147.3,153.1,146.6,153.1z M156.4,153.1
					c-0.7,0-1.3-0.6-1.3-1.3c0-0.7,0.6-1.3,1.3-1.3s1.3,0.6,1.3,1.3C157.6,152.6,157.1,153.1,156.4,153.1z M142,137.1H159l-0.7,9.5
					h-14.3L142,137.1z"/>
				<rect id="XMLID_47_" x="144.9" y="134.9" class="st21" width="12.7" height="2.9"/>
				<g id="XMLID_131_">
					<g id="XMLID_139_">
						<g id="XMLID_141_">
							<circle id="XMLID_46_" class="st22" cx="147.8" cy="135.6" r="0.4"/>
							<circle id="XMLID_45_" class="st22" cx="154.7" cy="135.6" r="0.4"/>
							<g id="XMLID_142_">
								<path id="XMLID_44_" class="st22" d="M154.7,135.8c-0.1,0-0.3-0.1-0.3-0.3c0-2.4-1.4-4.4-3.2-4.4c-1.7,0-3.2,2-3.2,4.4
									c0,0.1-0.1,0.3-0.3,0.3s-0.3-0.1-0.3-0.3c0-2.7,1.6-4.9,3.7-4.9c2,0,3.7,2.2,3.7,4.9C154.9,135.7,154.8,135.8,154.7,135.8z"
									/>
							</g>
						</g>
						<rect id="XMLID_43_" x="146" y="144.4" class="st22" width="10.5" height="1.2"/>
					</g>
					<path id="XMLID_42_" class="st7" d="M156.5,145.2H146v-10.8c0-0.1,0.1-0.2,0.2-0.2h10c0.1,0,0.2,0.1,0.2,0.2V145.2z"/>
					<g id="XMLID_133_">
						<circle id="XMLID_41_" class="st23" cx="147.8" cy="135.3" r="0.4"/>
						<circle id="XMLID_40_" class="st23" cx="154.7" cy="135.3" r="0.4"/>
						<g id="XMLID_134_">
							<path id="XMLID_39_" class="st21" d="M154.7,135.5c-0.1,0-0.3-0.1-0.3-0.3c0-2.4-1.4-4.4-3.2-4.4c-1.7,0-3.2,2-3.2,4.4
								c0,0.1-0.1,0.3-0.3,0.3s-0.3-0.1-0.3-0.3c0-2.7,1.6-4.9,3.7-4.9c2,0,3.7,2.2,3.7,4.9C154.9,135.4,154.8,135.5,154.7,135.5z"
								/>
						</g>
					</g>
				</g>
			</g>
			<path id="XMLID_38_" class="st24" d="M160.1,171.1h-16.8c-0.2,0-0.3-0.2-0.3-0.3v-6.1c0-0.2,0.2-0.3,0.3-0.3h16.8
				c0.2,0,0.3,0.2,0.3,0.3v6.1C160.4,171,160.3,171.1,160.1,171.1z"/>
			<path id="XMLID_37_" class="st25" d="M160.1,170.9h-16.8c-0.2,0-0.3-0.2-0.3-0.3v-6.1c0-0.2,0.2-0.3,0.3-0.3h16.8
				c0.2,0,0.3,0.2,0.3,0.3v6.1C160.4,170.7,160.3,170.9,160.1,170.9z"/>
			<g id="XMLID_119_" class="st14">
				<path id="XMLID_124_" class="st10" d="M149.6,166.2c0.1,0.1,0.1,0.3,0.1,0.5c0,0.2-0.1,0.4-0.2,0.5c-0.1,0.1-0.1,0.1-0.2,0.2
					c0.2,0.1,0.3,0.2,0.4,0.3s0.1,0.3,0.1,0.5c0,0.2,0,0.4-0.1,0.5c-0.1,0.1-0.1,0.2-0.2,0.3c-0.1,0.1-0.2,0.1-0.4,0.2
					c-0.1,0-0.3,0-0.5,0h-1.5v-3.2h1.6C149.1,165.9,149.4,166,149.6,166.2z M147.8,166.5v0.7h0.8c0.1,0,0.3,0,0.3-0.1
					c0.1-0.1,0.1-0.1,0.1-0.3c0-0.2-0.1-0.3-0.2-0.3c-0.1,0-0.2-0.1-0.4-0.1H147.8z M147.8,167.7v0.9h0.8c0.1,0,0.3,0,0.3-0.1
					c0.1-0.1,0.2-0.2,0.2-0.4c0-0.2-0.1-0.3-0.2-0.3c-0.1,0-0.2-0.1-0.3-0.1H147.8z"/>
				<path id="XMLID_122_" class="st10" d="M150.4,165.9h0.7v2c0,0.2,0,0.4,0.1,0.5c0.1,0.2,0.3,0.3,0.5,0.3c0.3,0,0.5-0.1,0.5-0.3
					c0.1-0.1,0.1-0.3,0.1-0.5v-2h0.7v2c0,0.3-0.1,0.6-0.2,0.8c-0.2,0.4-0.6,0.5-1.1,0.5c-0.6,0-0.9-0.2-1.1-0.5
					c-0.1-0.2-0.2-0.5-0.2-0.8V165.9z"/>
				<path id="XMLID_120_" class="st10" d="M155.5,165.9h0.8l-1.1,2v1.2h-0.7v-1.2l-1.1-2h0.8l0.7,1.4L155.5,165.9z"/>
			</g>
			<g id="XMLID_110_" class="st14">
				<path id="XMLID_115_" class="st21" d="M149.6,166.2c0.1,0.1,0.1,0.3,0.1,0.5c0,0.2-0.1,0.4-0.2,0.5c-0.1,0.1-0.1,0.1-0.2,0.2
					c0.2,0.1,0.3,0.2,0.4,0.3c0.1,0.1,0.1,0.3,0.1,0.5c0,0.2,0,0.4-0.1,0.5c-0.1,0.1-0.1,0.2-0.2,0.3c-0.1,0.1-0.2,0.1-0.4,0.2
					c-0.1,0-0.3,0-0.5,0h-1.5v-3.2h1.6C149.1,165.8,149.4,166,149.6,166.2z M147.8,166.4v0.7h0.8c0.1,0,0.3,0,0.3-0.1
					c0.1-0.1,0.1-0.1,0.1-0.3c0-0.2-0.1-0.3-0.2-0.3c-0.1,0-0.2-0.1-0.4-0.1H147.8z M147.8,167.6v0.9h0.8c0.1,0,0.3,0,0.3-0.1
					c0.1-0.1,0.2-0.2,0.2-0.4c0-0.2-0.1-0.3-0.2-0.3c-0.1,0-0.2-0.1-0.3-0.1H147.8z"/>
				<path id="XMLID_113_" class="st21" d="M150.4,165.8h0.7v2c0,0.2,0,0.4,0.1,0.5c0.1,0.2,0.3,0.3,0.5,0.3c0.3,0,0.5-0.1,0.5-0.3
					c0.1-0.1,0.1-0.3,0.1-0.5v-2h0.7v2c0,0.3-0.1,0.6-0.2,0.8c-0.2,0.4-0.6,0.5-1.1,0.5c-0.6,0-0.9-0.2-1.1-0.5
					c-0.1-0.2-0.2-0.5-0.2-0.8V165.8z"/>
				<path id="XMLID_111_" class="st21" d="M155.5,165.8h0.8l-1.1,2v1.2h-0.7v-1.2l-1.1-2h0.8l0.7,1.4L155.5,165.8z"/>
			</g>
			<g id="XMLID_102_" class="st26">
				<g id="XMLID_104_" class="st6">
					<path id="XMLID_26_" class="st27" d="M139.3,207.1l-26.1-16.9c-0.2-0.1-0.2-0.3-0.1-0.5l4-6.1c0.1-0.2,0.3-0.2,0.5-0.1
						l26.1,16.9c0.2,0.1,0.2,0.3,0.1,0.5l-4,6.1C139.6,207.2,139.4,207.2,139.3,207.1z"/>
					<circle id="XMLID_25_" class="st28" cx="118" cy="187.8" r="1.3"/>
				</g>
				<path id="XMLID_24_" class="st29" d="M127.1,227.2l-28.2-18.3c-0.3-0.2-0.4-0.6-0.2-0.9l13.5-19.7c0.2-0.3,0.6-0.4,0.9-0.2
					l28.2,18.3c0.3,0.2,0.4,0.6,0.2,0.9L128,227C127.8,227.3,127.4,227.4,127.1,227.2z"/>
			</g>
			<g id="XMLID_98_" class="st14">
				<path id="XMLID_23_" class="st15" d="M127.5,172.4l-0.3,0c-2.4-0.3-3.9-2.6-3.6-4.8l3.3-24.7c0.7-3.7,2.7-3.8,5.1-3.5l0.1,0
					c2.7,0.6,3.2,3.8,3.2,7c0,0.3,0,0.6-0.1,0.9l-2.6,20.8C132.3,170.2,129.9,172.6,127.5,172.4z"/>
				<path id="XMLID_22_" class="st30" d="M126.3,172.6L126.3,172.6c-2.5-0.3-4.2-2.5-3.8-4.8c0,0,4.5-21.5,4.2-25.3
					c-0.3-3.5,2.8-3.8,5.3-3.5l0.1,0c2.9,0.7,3.6,5.2,3.1,7.8l-3.7,22.2C131.1,171.3,128.8,172.9,126.3,172.6z"/>
				<path id="XMLID_21_" class="st31" d="M129.1,139c-0.3,0-0.7,0-1,0.2c-0.5,0.2-1.2,0.8-1.3,1.9c-0.2,1.8-0.4,4.5-0.2,4.8
					c0.2,0.3,1.1,0.6,2.2,0.2c1.1-0.4,1.3-0.6,1.6-1.5c0.3-0.9,0.2-4.1,0.1-4.5C130.3,139.9,130.1,139.1,129.1,139z"/>
			</g>
			<g id="XMLID_88_" class="st14">
				<g id="XMLID_95_">
					<path id="XMLID_20_" class="st30" d="M161,151.2L161,151.2c-0.9-2.2,0-4.5,2.1-5.4l5.6-2.3c2-0.9,4.3,0.1,5.2,2.2l0,0.1
						c0.9,2.1-0.1,4.5-2.1,5.3l-5.6,2.3C164.2,154.3,161.8,153.3,161,151.2z"/>
					<path id="XMLID_19_" class="st31" d="M167,148.7L167,148.7c-0.6-1.5-1.5-2.5-3.2-1.8l-1.5,0.6c-1.7,0.7-1.9,2.1-1.3,3.6l0,0.1
						c0.6,1.4,1.7,2.3,3.4,1.6l1.5-0.6C167.6,151.5,167.6,150.1,167,148.7z"/>
				</g>
				<g id="XMLID_92_">
					<path id="XMLID_18_" class="st30" d="M160.9,161L160.9,161c-0.9-2.2,0-4.6,2.1-5.4l5.7-2.3c2-0.9,4.4,0.1,5.3,2.2l0,0.1
						c0.9,2.1-0.1,4.5-2.1,5.3l-5.7,2.3C164.1,164.1,161.8,163.1,160.9,161z"/>
					<path id="XMLID_17_" class="st31" d="M166.8,158.5L166.8,158.5c-0.6-1.5-1.5-2.4-3.2-1.7l-1.4,0.6c-1.7,0.7-1.9,2.1-1.3,3.5
						l0,0.1c0.6,1.4,1.7,2.3,3.4,1.6l1.4-0.6C167.4,161.2,167.4,159.9,166.8,158.5z"/>
				</g>
				<g id="XMLID_89_">
					<path id="XMLID_16_" class="st30" d="M161.4,170.4L161.4,170.4c-0.8-2,0.2-4.3,2.2-5.1l5.7-2.3c2.1-0.9,4.4,0,5.2,1.9l0,0.1
						c0.8,1.9-0.2,4.2-2.3,5l-5.7,2.3C164.5,173.2,162.2,172.3,161.4,170.4z"/>
					<path id="XMLID_15_" class="st31" d="M166.9,168.2L166.9,168.2c-0.5-1.3-1.4-2.2-2.9-1.5l-1.3,0.5c-1.5,0.6-1.7,1.9-1.2,3.1
						l0,0c0.5,1.3,1.5,2,3,1.4l1.3-0.5C167.4,170.6,167.4,169.4,166.9,168.2z"/>
				</g>
			</g>
		</g>
		<g id="XMLID_3_">
			<defs>
				<rect id="XMLID_4_" x="146.4" y="147.5" width="59.6" height="59.6"/>
			</defs>
			<clipPath id="XMLID_107_">
				<use xlink:href="#XMLID_4_"  style="overflow:visible;"/>
			</clipPath>
			<g id="XMLID_70_" class="st32">
				<path id="XMLID_13_" class="st15" d="M186.7,187.8L186.7,187.8c-0.4,0.4-1,0.4-1.4,0l-5.1-5.1c-0.4-0.4-0.4-1,0-1.4l0,0
					c0.4-0.4,1-0.4,1.4,0l5.1,5.1C187.1,186.9,187.1,187.5,186.7,187.8z"/>
				<path id="XMLID_12_" class="st15" d="M181.8,194.6L181.8,194.6c-0.4,0.4-1,0.4-1.4,0l-7-7c-0.4-0.4-0.4-1,0-1.4l0,0
					c0.4-0.4,1-0.4,1.4,0l7,7C182.2,193.6,182.2,194.2,181.8,194.6z"/>
				<path id="XMLID_11_" class="st15" d="M192.1,181.5L192.1,181.5c-0.4,0.4-1,0.4-1.4,0l-3.2-3.2c-0.4-0.4-0.4-1,0-1.4l0,0
					c0.4-0.4,1-0.4,1.4,0l3.2,3.2C192.5,180.5,192.4,181.1,192.1,181.5z"/>
				<g id="XMLID_79_">
					<path id="XMLID_10_" class="st33" d="M194.1,209.3L194.1,209.3c-0.6,2-2.8,3-4.8,2.4l-22.1-7.1c-3.2-1.2-3-2.9-2.4-4.8l0-0.1
						c1-2.2,5.2-2.1,7.4-1.3l19.3,6.3C193.5,205.3,194.7,207.4,194.1,209.3z"/>
					<path id="XMLID_9_" class="st31" d="M164.2,201.4c-0.1,0.3-0.1,0.6-0.1,0.9c0.1,0.5,0.4,1.2,1.3,1.6c1.5,0.6,3.9,1.6,4.2,1.5
						c0.3-0.1,0.8-0.7,0.7-1.7c-0.1-1-0.2-1.2-0.9-1.6c-0.7-0.4-3.7-1.2-4-1.3C165.3,200.7,164.6,200.6,164.2,201.4z"/>
				</g>
				<polygon id="XMLID_8_" class="st15" points="186.5,210.8 173.8,198.9 175.6,199.5 189.1,211.6 				"/>
				<g id="XMLID_75_">
					<path id="XMLID_7_" class="st30" d="M198.8,177.1C198.8,177.1,198.8,177.1,198.8,177.1l-5.5-5.5c-1.4-1.4-3.8-1.4-5.3,0.1
						l-0.1,0.1c-1.5,1.5-1.5,3.8,0,5.3l3.3,3.2c-0.2,0.1-0.3,0.2-0.5,0.4l-5.2-5.2c-1.4-1.4-3.8-1.4-5.3,0.1l-0.1,0.1
						c-1.5,1.5-1.5,3.8,0,5.3l4.9,4.8c0,0-0.1,0.1-0.1,0.1l-0.2,0.2c0,0,0,0,0,0l-6.6-6.6c-1.4-1.4-3.8-1.4-5.3,0.1l-0.1,0.1
						c-1.5,1.5-1.5,3.8,0,5.3l6.9,6.9c-0.1,0.2-0.3,0.4-0.4,0.5l-16-15.9c-1.7-1.7-4.3-1.9-5.8-0.5l-0.1,0.1
						c-1.5,1.5-1.2,4.1,0.5,5.8l17.6,17.6c0.2,0.2,0.3,0.4,0.4,0.6c0,0,0.1,0.1,0.1,0.1l9.7,9.7c2.3,2.3,5.7,2.9,8.5,1.7l15.9,15.8
						l15.9-16l-15.8-15.7c0.4-0.7,0.7-1.5,0.8-2.2c0.4-2.2-0.7-4.7-2.1-6L198.8,177.1z"/>
					<path id="XMLID_6_" class="st31" d="M162,180.4L162,180.4c-1.1,1.1-2.3,1.6-3.6,0.4l-1.1-1.1c-1.3-1.3-0.9-2.7,0.1-3.7l0,0
						c1.1-1.1,2.5-1.4,3.7-0.2l1.1,1.1C163.6,178.1,163.1,179.4,162,180.4z"/>
				</g>
				<g id="XMLID_72_">
					<path id="XMLID_67_" class="st27" d="M220,203.1l-18,18c-0.1,0.1-0.3,0.1-0.4,0l-4.2-4.2c-0.1-0.1-0.1-0.3,0-0.4l18-18
						c0.1-0.1,0.3-0.1,0.4,0l4.2,4.2C220.1,202.8,220.1,202.9,220,203.1z"/>
					<circle id="XMLID_68_" class="st28" cx="200.9" cy="216.8" r="1"/>
				</g>
				<path id="XMLID_5_" class="st28" d="M227.8,209.4l-19.5,19.4c-0.2,0.2-0.5,0.2-0.8,0l-7.3-7.3c-0.2-0.2-0.2-0.5,0-0.8l19.5-19.4
					c0.2-0.2,0.5-0.2,0.8,0l7.3,7.3C228,208.9,228,209.2,227.8,209.4z"/>
			</g>
		</g>
	</g>
</g>
<g id="Layer_5">
	<path id="XMLID_300_" class="st34" d="M149.6,133.7c-0.2-0.8-0.8-2-1.7-2.7c-0.5-0.4-1.1-0.6-1.8-0.6c-0.2,0-0.4,0-0.7,0.1
		c-0.8,0.1-1.2,0.4-1.2,0.6c-0.1,0.3,0.1,0.7,0.5,1C145.5,133.2,147.4,134,149.6,133.7z"/>
	<path id="XMLID_299_" class="st34" d="M157.5,132c0.3-0.4,0.5-0.8,0.4-1c-0.1-0.2-0.4-0.4-1.3-0.6c-1-0.1-1.8,0.1-2.5,0.6
		c-0.9,0.7-1.4,1.9-1.6,2.7C154.8,133.9,156.7,133,157.5,132z"/>
	<g id="XMLID_575_">
		<circle id="XMLID_603_" class="st12" cx="149.6" cy="150.2" r="48.1"/>
	</g>
	<g id="XMLID_559_">
		<polygon id="XMLID_560_" class="st7" points="119.9,96.6 118.5,95.3 116.5,95.5 117.8,94 117.6,92 119.1,93.4 121.1,93.2
			119.7,94.7 		"/>
	</g>
	<g id="XMLID_557_">
		<polygon id="XMLID_558_" class="st7" points="132.6,90.3 130.2,88.1 127.1,88.4 129.2,86.1 128.9,82.9 131.3,85 134.4,84.7
			132.3,87.1 		"/>
	</g>
	<g id="XMLID_555_">
		<polygon id="XMLID_556_" class="st7" points="130.8,108.5 127.9,105.8 123.9,106.2 126.6,103.3 126.2,99.3 129.1,102 133.1,101.6
			130.4,104.5 		"/>
	</g>
	<g id="XMLID_86_">
		<path id="XMLID_1069_" class="st34" d="M105,121h64v66h-64V121z"/>
		<path id="XMLID_1068_" class="st34" d="M151,193v-33h35"/>

			<rect id="XMLID_835_" x="130" y="136.6" transform="matrix(-1 -6.913994e-003 6.913994e-003 -1 299.9379 278.8708)" class="st35" width="40.8" height="4.7"/>
		<g id="XMLID_128_">
			<g id="XMLID_659_">
				<g id="XMLID_701_">
					<g id="XMLID_833_">
						<circle id="XMLID_834_" class="st7" cx="145" cy="118" r="9.9"/>
					</g>
				</g>
				<g id="XMLID_691_">
					<g id="XMLID_692_">
						<g id="XMLID_693_">
							<path id="XMLID_694_" class="st22" d="M145,126.6c-4.7,0-8.6-3.9-8.6-8.6c0-4.7,3.9-8.6,8.6-8.6c4.7,0,8.6,3.9,8.6,8.6
								C153.6,122.7,149.7,126.6,145,126.6z M145,110.4c-4.2,0-7.5,3.4-7.5,7.5c0,4.2,3.4,7.5,7.5,7.5s7.5-3.4,7.5-7.5
								C152.5,113.8,149.1,110.4,145,110.4z"/>
						</g>
					</g>
				</g>
				<g id="XMLID_660_">
					<g id="XMLID_205_">
						<g id="XMLID_230_" class="st36">
							<defs>
								<rect id="XMLID_301_" x="142.6" y="113.7" class="st36" width="5.9" height="8.5"/>
							</defs>
							<clipPath id="XMLID_108_">
								<use xlink:href="#XMLID_301_"  style="overflow:visible;"/>
							</clipPath>
							<g id="XMLID_256_" class="st37">
								<g id="XMLID_257_">
									<g id="XMLID_258_">
										<g id="XMLID_268_">
											<g id="XMLID_269_">
												<defs>
													<polyline id="XMLID_298_" points="142.6,122.2 142.6,113.7 148.5,113.7 148.5,122.2 142.6,122.2 													"/>
												</defs>
												<clipPath id="XMLID_116_">
													<use xlink:href="#XMLID_298_"  style="overflow:visible;"/>
												</clipPath>
												<path id="XMLID_296_" class="st38" d="M148.5,113.7l-1,0h-1.7c-0.8,0-1.8,0-3,0v0.6c0,0.5,0,1.3-0.1,2.4
													c0,1.5-0.1,2.7-0.1,3.5c0,0.5-0.1,1.1-0.1,2c0.6,0,0.9,0,1,0l0.9,0v-0.3v-0.6l0.1-2.7c0.6,0,1.1,0,1.7,0
													c0.4,0,1,0,1.6,0c0-0.4,0-0.8,0.1-1.3l-0.8,0c-0.2,0-0.7,0-1.5,0l-1,0l0.1-2.2h1.2h0.9h0.5h0.3l0.8,0
													C148.4,114.8,148.5,114.3,148.5,113.7"/>
											</g>
										</g>
									</g>
								</g>
							</g>
						</g>
					</g>
				</g>
			</g>
			<g id="XMLID_529_">
				<g id="XMLID_655_">
					<g id="XMLID_656_">
						<circle id="XMLID_658_" class="st7" cx="143.6" cy="135.4" r="9.9"/>
					</g>
				</g>
				<g id="XMLID_632_">
					<g id="XMLID_633_">
						<g id="XMLID_651_">
							<path id="XMLID_652_" class="st22" d="M143.6,144c-4.7,0-8.6-3.9-8.6-8.6c0-4.7,3.9-8.6,8.6-8.6c4.7,0,8.6,3.9,8.6,8.6
								C152.2,140.1,148.3,144,143.6,144z M143.6,127.8c-4.2,0-7.5,3.4-7.5,7.5c0,4.2,3.4,7.5,7.5,7.5s7.5-3.4,7.5-7.5
								C151.1,131.2,147.8,127.8,143.6,127.8z"/>
						</g>
					</g>
				</g>
				<g id="XMLID_530_">
					<g id="XMLID_201_">
						<g id="XMLID_208_" class="st36">
							<defs>
								<rect id="XMLID_278_" x="141.2" y="131.1" class="st36" width="5.9" height="8.5"/>
							</defs>
							<clipPath id="XMLID_117_">
								<use xlink:href="#XMLID_278_"  style="overflow:visible;"/>
							</clipPath>
							<g id="XMLID_231_" class="st39">
								<g id="XMLID_232_">
									<g id="XMLID_233_">
										<g id="XMLID_274_">
											<g id="XMLID_275_">
												<defs>
													<polyline id="XMLID_277_" points="141.2,139.6 141.2,131.1 147.2,131.1 147.2,139.6 141.2,139.6 													"/>
												</defs>
												<clipPath id="XMLID_123_">
													<use xlink:href="#XMLID_277_"  style="overflow:visible;"/>
												</clipPath>
												<path id="XMLID_276_" class="st40" d="M147.2,131.1h-1l-1.7,0c-0.8,0-1.8,0-3,0v0.6c0,0.5,0,1.3-0.1,2.4
													c0,1.5-0.1,2.7-0.1,3.5c0,0.5-0.1,1.1-0.1,2c0.6,0,0.9,0,1,0l0.9,0v-0.3l0-0.6l0.1-2.7c0.6,0,1.1,0,1.7,0
													c0.4,0,1,0,1.6,0c0-0.4,0-0.8,0.1-1.3l-0.8,0c-0.2,0-0.7,0-1.5,0l-1,0l0.1-2.2l1.2,0h0.9h0.5l0.3,0l0.8,0
													C147.1,132.2,147.1,131.8,147.2,131.1"/>
											</g>
										</g>
									</g>
								</g>
							</g>
						</g>
					</g>
				</g>
			</g>
			<g id="XMLID_436_">
				<g id="XMLID_525_">
					<g id="XMLID_526_">
						<circle id="XMLID_528_" class="st7" cx="159" cy="128.4" r="9.9"/>
					</g>
				</g>
				<g id="XMLID_491_">
					<g id="XMLID_495_">
						<g id="XMLID_497_">
							<path id="XMLID_507_" class="st22" d="M159,137c-4.7,0-8.6-3.9-8.6-8.6c0-4.7,3.9-8.6,8.6-8.6c4.7,0,8.6,3.9,8.6,8.6
								C167.6,133.1,163.8,137,159,137z M159,120.9c-4.2,0-7.5,3.4-7.5,7.5c0,4.2,3.4,7.5,7.5,7.5s7.5-3.4,7.5-7.5
								C166.6,124.2,163.2,120.9,159,120.9z"/>
						</g>
					</g>
				</g>
				<g id="XMLID_441_">
					<g id="XMLID_200_">
						<g id="XMLID_206_" class="st36">
							<defs>
								<rect id="XMLID_266_" x="156.7" y="124.2" class="st36" width="5.9" height="8.5"/>
							</defs>
							<clipPath id="XMLID_125_">
								<use xlink:href="#XMLID_266_"  style="overflow:visible;"/>
							</clipPath>
							<g id="XMLID_209_" class="st41">
								<g id="XMLID_212_">
									<g id="XMLID_213_">
										<g id="XMLID_214_">
											<g id="XMLID_218_">
												<defs>
													<polyline id="XMLID_265_" points="156.7,132.6 156.7,124.2 162.6,124.2 162.6,132.6 156.7,132.6 													"/>
												</defs>
												<clipPath id="XMLID_126_">
													<use xlink:href="#XMLID_265_"  style="overflow:visible;"/>
												</clipPath>
												<path id="XMLID_259_" class="st42" d="M162.6,124.2l-1,0l-1.7,0c-0.8,0-1.8,0-3,0v0.6c0,0.5,0,1.3-0.1,2.4
													c0,1.5-0.1,2.7-0.1,3.5c0,0.5-0.1,1.1-0.1,2c0.6,0,0.9,0,1,0l0.9,0v-0.3v-0.6l0.1-2.7c0.6,0,1.1,0,1.7,0
													c0.4,0,1,0,1.6,0c0-0.4,0-0.8,0.1-1.3l-0.8,0c-0.2,0-0.7,0-1.5,0l-1,0l0.1-2.2l1.2,0h0.9h0.5l0.3,0l0.8,0
													C162.5,125.2,162.5,124.8,162.6,124.2"/>
											</g>
										</g>
									</g>
								</g>
							</g>
						</g>
					</g>
				</g>
			</g>
			<g id="XMLID_129_">
				<g id="XMLID_433_">
					<g id="XMLID_434_">
						<circle id="XMLID_435_" class="st7" cx="159.1" cy="136.3" r="9.9"/>
					</g>
				</g>
				<g id="XMLID_413_">
					<g id="XMLID_414_">
						<g id="XMLID_415_">
							<path id="XMLID_420_" class="st22" d="M161.2,144.7c-4.6,1.1-9.3-1.7-10.4-6.3c-1.1-4.6,1.7-9.3,6.3-10.4
								c4.6-1.1,9.3,1.7,10.4,6.3C168.6,138.9,165.8,143.5,161.2,144.7z M157.3,129c-4,1-6.5,5.1-5.5,9.1c1,4,5.1,6.5,9.1,5.5
								c4-1,6.5-5.1,5.5-9.1C165.5,130.5,161.4,128,157.3,129z"/>
						</g>
					</g>
				</g>
				<g id="XMLID_135_">
					<g id="XMLID_192_">
						<g id="XMLID_199_" class="st36">
							<defs>
								<rect id="XMLID_223_" x="156.2" y="131.1" class="st36" width="5.7" height="10.1"/>
							</defs>
							<clipPath id="XMLID_132_">
								<use xlink:href="#XMLID_223_"  style="overflow:visible;"/>
							</clipPath>
							<g id="XMLID_202_" class="st43">
								<g id="XMLID_203_">
									<g id="XMLID_204_">
										<g id="XMLID_219_">
											<g id="XMLID_220_">
												<defs>
													<polyline id="XMLID_222_" points="156.2,141.2 156.2,131.1 161.9,131.1 161.9,141.2 156.2,141.2 													"/>
												</defs>
												<clipPath id="XMLID_136_">
													<use xlink:href="#XMLID_222_"  style="overflow:visible;"/>
												</clipPath>
												<path id="XMLID_221_" class="st44" d="M161.6,131.1l-0.9,0.3l-1.6,0.5c-0.8,0.3-1.8,0.6-2.9,0.9l0.1,0.6
													c0.1,0.4,0.2,1.2,0.4,2.3c0.2,1.5,0.4,2.7,0.5,3.5c0.1,0.5,0.1,1.1,0.2,1.9c0.6-0.2,0.9-0.3,1-0.3l0.9-0.3l-0.1-0.3
													l-0.1-0.5l-0.4-2.7c0.6-0.2,1.1-0.4,1.6-0.5c0.4-0.1,0.9-0.3,1.6-0.5c-0.1-0.4-0.1-0.8-0.2-1.3l-0.8,0.3
													c-0.2,0.1-0.7,0.2-1.4,0.5l-1,0.3l-0.3-2.2l1.2-0.4l0.9-0.3l0.4-0.1l0.3-0.1l0.8-0.2
													C161.8,132.2,161.7,131.8,161.6,131.1"/>
											</g>
										</g>
									</g>
								</g>
							</g>
						</g>
					</g>
				</g>
			</g>
		</g>
		<path id="XMLID_127_" class="st45" d="M128.8,172.7l0,4.5c0,1,0.8,1.8,1.8,1.8l39.1-0.4c1,0,1.8-0.8,1.8-1.8l0-4.5L128.8,172.7z"
			/>

			<rect id="XMLID_112_" x="128.9" y="141.3" transform="matrix(-1 -8.054489e-003 8.054489e-003 -1 299.3107 315.3817)" class="st45" width="42.7" height="31.6"/>
		<polygon id="XMLID_106_" class="st35" points="129.1,141.1 134.9,141.2 134.9,137.9 		"/>
		<polygon id="XMLID_100_" class="st46" points="134.9,137.9 130.1,136.4 130,140.6 		"/>
		<polygon id="XMLID_99_" class="st35" points="171.8,141.4 166,141.4 166,138.1 		"/>
		<polygon id="XMLID_94_" class="st46" points="166,138.1 170.9,136.7 170.8,140.9 		"/>
		<g id="XMLID_87_">
			<path id="XMLID_90_" class="st12" d="M140.4,170.6c0.3-2.5,0.5-4.5,0.6-6c0.2-2.5,0.4-6.2,0.5-10.9c0.1-3.5,0.2-6,0.2-7.4v-1.8
				c4.5,0,8.5,0,11.8,0l6.6,0l3.9,0c-0.2,1.9-0.3,3.3-0.3,4.1l-3.4-0.1l-1.4,0h-1.8h-3.6l-4.9,0l-0.3,6.9l4,0.1c3.1,0,5,0,5.9,0
				l3.2,0c-0.1,1.5-0.2,2.8-0.2,4.1c-2.7-0.1-4.9-0.1-6.5-0.1c-2,0-4.3,0-6.6,0.1l-0.3,8.5l0,1.7v1l-3.6,0
				C144.1,170.6,142.8,170.6,140.4,170.6z"/>
		</g>
	</g>
	<g id="XMLID_427_">
		<g id="XMLID_430_">
			<path id="XMLID_431_" class="st47" d="M132.7,183.5c-0.1,0-0.3-0.1-0.3-0.3v-3.6c0-0.1,0.1-0.3,0.3-0.3c0.1,0,0.3,0.1,0.3,0.3
				v3.6C133,183.3,132.9,183.5,132.7,183.5z"/>
		</g>
		<g id="XMLID_428_">
			<path id="XMLID_429_" class="st47" d="M130.9,181.6c-0.1,0-0.3-0.1-0.3-0.3c0-0.1,0.1-0.3,0.3-0.3h3.6c0.1,0,0.3,0.1,0.3,0.3
				c0,0.1-0.1,0.3-0.3,0.3H130.9z"/>
		</g>
	</g>
	<g id="XMLID_422_">
		<g id="XMLID_425_">
			<path id="XMLID_426_" class="st47" d="M172.7,131.1c-0.1,0-0.2-0.1-0.2-0.2v-3.4c0-0.1,0.1-0.2,0.2-0.2c0.1,0,0.2,0.1,0.2,0.2
				v3.4C173,131,172.9,131.1,172.7,131.1z"/>
		</g>
		<g id="XMLID_423_">
			<path id="XMLID_424_" class="st47" d="M171,129.4c-0.1,0-0.2-0.1-0.2-0.2c0-0.1,0.1-0.2,0.2-0.2h3.4c0.1,0,0.2,0.1,0.2,0.2
				c0,0.1-0.1,0.2-0.2,0.2H171z"/>
		</g>
	</g>
	<g id="XMLID_302_">
		<g id="XMLID_305_">
			<path id="XMLID_306_" class="st47" d="M129.8,125.1c-0.1,0-0.2-0.1-0.2-0.2v-3.4c0-0.1,0.1-0.2,0.2-0.2c0.1,0,0.2,0.1,0.2,0.2
				v3.4C130,125,129.9,125.1,129.8,125.1z"/>
		</g>
		<g id="XMLID_303_">
			<path id="XMLID_304_" class="st47" d="M128.1,123.5c-0.1,0-0.2-0.1-0.2-0.2c0-0.1,0.1-0.2,0.2-0.2h3.4c0.1,0,0.2,0.1,0.2,0.2
				c0,0.1-0.1,0.2-0.2,0.2H128.1z"/>
		</g>
	</g>
	<g id="XMLID_272_">
		<path id="XMLID_273_" class="st47" d="M115.1,167.8c-0.2,0-0.3-0.2-0.3-0.3c0-0.2,0.2-0.3,0.3-0.3c0.2,0,0.3,0.2,0.3,0.3
			C115.5,167.6,115.3,167.8,115.1,167.8z M113.8,167.2c-0.1,0-0.1,0-0.2-0.1l0,0h0l0,0c-0.1-0.1-0.1-0.3,0-0.5
			c0.1-0.1,0.2-0.1,0.2-0.1c0.1,0,0.2,0,0.2,0.1c0.1,0.1,0.1,0.3,0,0.5C113.9,167.2,113.9,167.2,113.8,167.2z M116.5,167.2
			c-0.1,0-0.2,0-0.2-0.1c-0.1-0.1-0.1-0.3,0-0.5c0.1-0.1,0.2-0.1,0.2-0.1c0.1,0,0.2,0,0.2,0.1c0.1,0.1,0.1,0.2,0.1,0.2
			c0,0.1,0,0.2-0.1,0.2C116.7,167.2,116.6,167.2,116.5,167.2z M113.2,165.9c-0.2,0-0.3-0.2-0.3-0.3c0-0.2,0.2-0.3,0.3-0.3
			c0.2,0,0.3,0.2,0.3,0.3C113.5,165.7,113.4,165.9,113.2,165.9z M117.1,165.9c-0.2,0-0.3-0.2-0.3-0.3c0-0.2,0.2-0.3,0.3-0.3
			c0.2,0,0.3,0.2,0.3,0.3C117.4,165.7,117.3,165.9,117.1,165.9z M113.8,164.5c-0.1,0-0.2,0-0.2-0.1c-0.1-0.1-0.1-0.3,0-0.5
			c0.1-0.1,0.1-0.1,0.2-0.1c0.1,0,0.2,0,0.2,0.1c0.1,0.1,0.1,0.1,0.1,0.2c0,0.1,0,0.2-0.1,0.2C113.9,164.5,113.9,164.5,113.8,164.5z
			 M116.5,164.5c-0.1,0-0.2,0-0.2-0.1c-0.1-0.1-0.1-0.4,0-0.5c0.1-0.1,0.2-0.1,0.2-0.1c0.1,0,0.2,0,0.2,0.1c0.1,0.1,0.1,0.3,0,0.5
			C116.7,164.5,116.6,164.5,116.5,164.5z M115.1,163.9c-0.2,0-0.3-0.2-0.3-0.3c0-0.2,0.2-0.3,0.3-0.3s0.3,0.2,0.3,0.3
			C115.5,163.8,115.3,163.9,115.1,163.9z"/>
	</g>
	<g id="XMLID_80_">
		<path id="XMLID_81_" class="st48" d="M176.9,178.1c-0.2,0-0.3-0.2-0.3-0.3c0-0.2,0.2-0.3,0.3-0.3c0.2,0,0.3,0.2,0.3,0.3
			C177.3,177.9,177.1,178.1,176.9,178.1z M175.6,177.5c-0.1,0-0.1,0-0.2-0.1l0,0h0l0,0c-0.1-0.1-0.1-0.3,0-0.5
			c0.1-0.1,0.2-0.1,0.2-0.1c0.1,0,0.2,0,0.2,0.1c0.1,0.1,0.1,0.3,0,0.5C175.7,177.5,175.6,177.5,175.6,177.5z M178.3,177.5
			c-0.1,0-0.2,0-0.2-0.1c-0.1-0.1-0.1-0.3,0-0.5c0.1-0.1,0.2-0.1,0.2-0.1c0.1,0,0.2,0,0.2,0.1c0.1,0.1,0.1,0.2,0.1,0.2
			c0,0.1,0,0.2-0.1,0.2C178.5,177.5,178.4,177.5,178.3,177.5z M175,176.2c-0.2,0-0.3-0.2-0.3-0.3c0-0.2,0.2-0.3,0.3-0.3
			c0.2,0,0.3,0.2,0.3,0.3C175.3,176,175.2,176.2,175,176.2z M178.9,176.2c-0.2,0-0.3-0.2-0.3-0.3c0-0.2,0.2-0.3,0.3-0.3
			c0.2,0,0.3,0.2,0.3,0.3C179.2,176,179,176.2,178.9,176.2z M175.6,174.8c-0.1,0-0.2,0-0.2-0.1c-0.1-0.1-0.1-0.3,0-0.5
			c0.1-0.1,0.1-0.1,0.2-0.1c0.1,0,0.2,0,0.2,0.1c0.1,0.1,0.1,0.1,0.1,0.2c0,0.1,0,0.2-0.1,0.2C175.7,174.8,175.6,174.8,175.6,174.8z
			 M178.3,174.8c-0.1,0-0.2,0-0.2-0.1c-0.1-0.1-0.1-0.4,0-0.5c0.1-0.1,0.2-0.1,0.2-0.1c0.1,0,0.2,0,0.2,0.1c0.1,0.1,0.1,0.3,0,0.5
			C178.5,174.7,178.4,174.8,178.3,174.8z M176.9,174.2c-0.2,0-0.3-0.2-0.3-0.3c0-0.2,0.2-0.3,0.3-0.3c0.2,0,0.3,0.2,0.3,0.3
			C177.3,174.1,177.1,174.2,176.9,174.2z"/>
	</g>
	<g id="XMLID_170_">
		<g id="XMLID_77_">
			<path id="XMLID_78_" class="st47" d="M187.4,140.4c-0.1,0-0.2-0.1-0.2-0.2v-1.3c0-0.1,0.1-0.2,0.2-0.2c0.1,0,0.2,0.1,0.2,0.2v1.3
				C187.6,140.3,187.5,140.4,187.4,140.4z"/>
		</g>
		<g id="XMLID_74_">
			<path id="XMLID_76_" class="st47" d="M186.2,140.7c-0.1,0-0.1,0-0.2-0.1l-0.9-0.9c0,0-0.1-0.1-0.1-0.2c0-0.1,0-0.1,0.1-0.2
				c0,0,0.1-0.1,0.2-0.1c0.1,0,0.1,0,0.2,0.1l0.9,0.9c0.1,0.1,0.1,0.2,0,0.3C186.3,140.7,186.3,140.7,186.2,140.7z"/>
		</g>
		<g id="XMLID_228_">
			<path id="XMLID_73_" class="st47" d="M184.4,141.8c-0.1,0-0.2-0.1-0.2-0.2s0.1-0.2,0.2-0.2h1.3c0.1,0,0.2,0.1,0.2,0.2
				s-0.1,0.2-0.2,0.2H184.4z"/>
		</g>
		<g id="XMLID_226_">
			<path id="XMLID_227_" class="st47" d="M185.2,143.9c-0.1,0-0.1,0-0.2-0.1c0,0-0.1-0.1-0.1-0.2c0-0.1,0-0.1,0.1-0.2l0.9-0.9
				c0,0,0.1-0.1,0.2-0.1c0.1,0,0.1,0,0.2,0.1c0.1,0.1,0.1,0.2,0,0.3l-0.9,0.9C185.3,143.8,185.2,143.9,185.2,143.9z"/>
		</g>
		<g id="XMLID_71_">
			<path id="XMLID_225_" class="st47" d="M187.2,144.8c-0.1,0-0.2-0.1-0.2-0.2v-1.3c0-0.1,0.1-0.2,0.2-0.2c0.1,0,0.2,0.1,0.2,0.2
				v1.3C187.4,144.7,187.3,144.8,187.2,144.8z"/>
		</g>
		<g id="XMLID_197_">
			<path id="XMLID_69_" class="st47" d="M189.2,144c-0.1,0-0.1,0-0.2-0.1l-0.9-0.9c0,0-0.1-0.1-0.1-0.2c0-0.1,0-0.1,0.1-0.2
				c0,0,0.1-0.1,0.2-0.1c0.1,0,0.1,0,0.2,0.1l0.9,0.9c0,0,0.1,0.1,0.1,0.2s0,0.1-0.1,0.2C189.3,144,189.3,144,189.2,144z"/>
		</g>
		<g id="XMLID_195_">
			<path id="XMLID_196_" class="st47" d="M188.8,142c-0.1,0-0.2-0.1-0.2-0.2c0-0.1,0.1-0.2,0.2-0.2h1.3c0.1,0,0.2,0.1,0.2,0.2
				c0,0.1-0.1,0.2-0.2,0.2H188.8z"/>
		</g>
		<g id="XMLID_188_">
			<path id="XMLID_191_" class="st47" d="M188.4,140.9c-0.1,0-0.1,0-0.2-0.1c0,0-0.1-0.1-0.1-0.2c0-0.1,0-0.1,0.1-0.2l0.9-0.9
				c0,0,0.1-0.1,0.2-0.1c0.1,0,0.1,0,0.2,0.1c0.1,0.1,0.1,0.2,0,0.3l-0.9,0.9C188.5,140.9,188.5,140.9,188.4,140.9z"/>
		</g>
	</g>
</g>
</svg>
