<?xml version="1.0" encoding="utf-8"?>
<svg version="1.1" xmlns="http://www.w3.org/2000/svg" xmlns:xlink="http://www.w3.org/1999/xlink" x="0px" y="0px"
	 viewBox="75 75 150 150" style="enable-background:new 0 0 300 300;" xml:space="preserve">
<style type="text/css">
	.st0{display:none;}
	.st1{display:inline;fill:#4CAF50;}
	.st2{display:inline;fill:#FFE2C2;}
	.st3{display:inline;fill:#EDBDA9;}
	.st4{display:inline;fill-rule:evenodd;clip-rule:evenodd;fill:#03A9F4;}
	.st5{display:inline;fill-rule:evenodd;clip-rule:evenodd;fill:#FAFAFA;}
	.st6{display:inline;}
	.st7{fill:#FDD835;}
	.st8{fill:#123544;}
	.st9{fill:#FF6E40;}
	.st10{fill:#FFFFFF;}
	.st11{display:inline;opacity:0.3;fill:#FFFFFF;}
	.st12{fill:#4CAF50;}
	.st13{clip-path:url(#XMLID_123_);fill:#EBC0A4;}
	.st14{clip-path:url(#XMLID_123_);}
	.st15{fill:#E0AD91;}
	.st16{fill:#03A9F4;}
	.st17{fill:#FAFAFA;}
	.st18{fill:#3B78E7;}
	.st19{fill:#BF4131;}
	.st20{fill:#F05749;}
	.st21{fill:#E4E9EB;}
	.st22{fill:#FF9E00;}
	.st23{fill:#343E56;}
	.st24{clip-path:url(#XMLID_123_);fill-rule:evenodd;clip-rule:evenodd;fill:#ED6743;}
	.st25{clip-path:url(#XMLID_123_);fill-rule:evenodd;clip-rule:evenodd;fill:#FF6E40;}
	.st26{display:none;clip-path:url(#XMLID_123_);}
	.st27{fill:#F6F4F4;}
	.st28{fill:#4F7186;}
	.st29{display:inline;fill:#4F7186;}
	.st30{fill:#EBC0A4;}
	.st31{fill:#E6DDD2;}
	.st32{clip-path:url(#XMLID_151_);}
	.st33{fill:#E6B595;}
	.st34{display:inline;fill:none;}
	.st35{fill:none;}
	.st36{fill:#E0E0E0;}
	.st37{enable-background:new    ;}
	.st38{clip-path:url(#XMLID_153_);}
	.st39{clip-path:url(#XMLID_176_);fill:#EF6800;}
	.st40{clip-path:url(#XMLID_177_);}
	.st41{clip-path:url(#XMLID_207_);fill:#EF6800;}
	.st42{clip-path:url(#XMLID_253_);}
	.st43{clip-path:url(#XMLID_316_);fill:#EF6800;}
	.st44{clip-path:url(#XMLID_317_);}
	.st45{clip-path:url(#XMLID_339_);fill:#EF6800;}
	.st46{fill:#F5F5F5;}
	.st47{fill:#EEEEEE;}
	.st48{fill:#E8F5E9;}
	.st49{fill:#D5D9B2;}
	.st50{clip-path:url(#XMLID_340_);}
	.st51{clip-path:url(#XMLID_362_);fill:#EF6800;}
	.st52{clip-path:url(#XMLID_363_);}
	.st53{clip-path:url(#XMLID_364_);fill:#EF6800;}
	.st54{clip-path:url(#XMLID_365_);}
	.st55{clip-path:url(#XMLID_366_);fill:#EF6800;}
	.st56{clip-path:url(#XMLID_367_);}
	.st57{clip-path:url(#XMLID_368_);fill:#EF6800;}
	.st58{clip-path:url(#XMLID_369_);}
	.st59{clip-path:url(#XMLID_370_);fill:#EF6800;}
	.st60{clip-path:url(#XMLID_371_);}
	.st61{clip-path:url(#XMLID_372_);fill:#EF6800;}
	.st62{clip-path:url(#XMLID_373_);}
	.st63{fill:#D8D8D8;}
	.st64{fill:#7B8237;}
	.st65{fill:#E5C85A;}
	.st66{clip-path:url(#XMLID_374_);}
	.st67{clip-path:url(#XMLID_375_);}
	.st68{clip-path:url(#XMLID_376_);}
	.st69{clip-path:url(#XMLID_377_);}
	.st70{clip-path:url(#XMLID_378_);}
	.st71{fill:#F4E6D6;}
	.st72{fill:#E8DACA;}
	.st73{clip-path:url(#XMLID_381_);}
	.st74{clip-path:url(#XMLID_382_);}
	.st75{clip-path:url(#XMLID_383_);}
	.st76{clip-path:url(#XMLID_384_);}
	.st77{clip-path:url(#XMLID_385_);}
	.st78{clip-path:url(#XMLID_386_);}
</style>
<g id="Layer_1" class="st0">
</g>
<g id="Layer_2" class="st0">
</g>
<g id="Layer_3" class="st0">
	<circle id="XMLID_1_" class="st1" cx="150.5" cy="149.8" r="48.2"/>
	<path id="XMLID_419_" class="st2" d="M166.8,180.8c-2.1-3.6-8-4.4-4.9-6.7c-0.1,0.1,1.2-1.1,1.5-1.4c0.1-0.1,0.2-0.3,0.3-0.3
		c0-0.1,0.1-0.2,0.2-0.3c0.1-0.2,0.6-1.5,0.5-1c0.1-0.4,0.3-0.8,0.3-1.3c0-0.2,0.1-0.4,0.1-0.5c0-0.2,0-0.5,0.1-0.7
		c0-0.7,0.1-1.3,0.1-2c0-1.5,0-3,0-4.4c0-2,0.6-3.5,1.7-4.6c-1.8-1.2-3.8-1.3-4.5-0.3l-0.3,0.4l-1.1,1.6l-0.1,0.1l-0.8-0.6l1.1-1.6
		l1.1-1.6l0.9-1.3c0.7-1.1-0.2-3-2.1-4.3c-1.9-1.3-4-1.6-4.8-0.5l-0.9,1.3l-1.1,1.6l-1.1,1.6l-0.8-0.6l5-7.1l0,0
		c0-0.1,0.1-0.1,0.1-0.2l6.6-9.4c1.2-1.7,0.7-4.2-1.2-5.5c-1.9-1.3-4.4-1-5.6,0.7l-6.6,9.4c0,0.1-0.1,0.1-0.1,0.2l0,0l-14.6,20.7
		l-3.9,7.6l-1.1-20.9c0.6-2.5,0.9-4.8-1.1-6.3c-2-1.4-4.8-0.9-6.3,1.1l-1.2,17.5c0,0-2,4.8-0.6,12.3l3.3,6.6
		c0.1,38.1,2.3,25,0.1,28.1l27.9,3.2c0.8-3.2,0.2-18.6,0.2-18.6c1.1-0.4,4.3-1.3,5.9-2.2c0.8-0.4,2-1.2,3.5-3.1
		C165.2,183.4,167.5,182,166.8,180.8z"/>
	<path id="XMLID_418_" class="st3" d="M176.4,124.9c-1.9-1.3-4.4-1-5.6,0.7l-6.6,9.4c0,0.1-0.1,0.1-0.1,0.2l0,0l-14.6,20.7l-0.1,0
		c0,0.1,0,0.2,0,0.2c0.5,3.1,0.7,6.6,1.8,9.6c0,0,0,0,0,0c0,0,0,0,0,0c0-0.1,0.2,0,0.3,0.2c0,0,0,0,0.1,0c0.1,0,0.1,0,0.2,0.1
		c0.4,0.1,0.8,0.3,1.2,0.4c0,0,0.1,0,0.1,0c0,0,0,0,0,0c0.4-0.6,0.9-1.2,1.3-1.9c2.7-3.9,5.2-7.9,7.6-12c1.2-2,3-3.1,4.9-3.4
		c-0.1-0.5-0.1-1.1,0-1.7l-0.2,0.3l-0.8-0.6l2.1-2.9c0.2-0.4,0.5-0.7,0.7-1l2.3-3.2l0,0c0-0.1,0.1-0.1,0.1-0.2l6.6-9.4
		C178.8,128.7,178.2,126.3,176.4,124.9z"/>
	<path id="XMLID_417_" class="st4" d="M170.2,181.2c0,1.2-1,2.2-2.3,2.2h-35c-1.2,0-2.3-1-2.3-2.2v-70.3c0-1.2,1-2.2,2.3-2.2h35
		c1.2,0,2.3,1,2.3,2.2V181.2z"/>
	<polygon id="XMLID_416_" class="st5" points="166.6,116.9 165.7,116.9 163.9,116.9 161.8,116.9 160.1,116.9 160,116.9 157.7,116.9
		151.9,116.9 149.9,116.9 147.8,116.9 145.9,116.9 143,116.9 141.2,116.9 135.5,116.9 135.3,116.9 133.5,116.9 132.5,116.9
		132.5,124.9 132.5,124.9 132.5,127 132.5,127 132.5,132.9 132.5,132.9 132.5,140.1 132.5,140.1 132.5,141.9 132.5,141.9
		132.5,159.7 132.5,159.7 132.5,161.3 132.5,161.3 132.5,169.5 132.5,169.5 132.5,171.7 132.5,171.7 132.5,177 132.6,177 134.5,177
		138.6,177 140.9,177 140.9,177 141.2,177 142.7,177 143,177 144.8,177 145,177 146.6,177 152.1,177 152.2,177 154.1,177 159,177
		161,177 161.4,177 163.8,177 168.4,177 168.4,172.1 168.4,168.8 168.4,168.1 168.4,167.1 168.4,165.1 168.4,164.3 168.4,162.1
		168.4,141.9 168.4,140.1 168.4,135.4 168.4,132.9 168.4,122.3 168.4,120.3 168.4,116.9 	"/>
	<path id="XMLID_412_" class="st2" d="M144.3,184.6c0.1-0.6,0.3-1.1,0.4-1.7c-0.1-0.3,0.2-6.3-6.8-11.1c-3.2-2.3-7-1.8-8.8-1.6v14.4
		H144.3z"/>
	<path id="XMLID_411_" class="st2" d="M175,164.2c0.4,1.7-0.5,3.4-2.1,3.8l-7.5,2c-1.6,0.4-3.3-0.6-3.8-2.3l0,0
		c-0.4-1.7,0.5-3.4,2.1-3.8l7.5-2C172.9,161.4,174.6,162.5,175,164.2L175,164.2z"/>
	<path id="XMLID_410_" class="st2" d="M174.9,156.7c0.4,1.8-0.5,3.5-2.2,3.9l-7.5,1.9c-1.6,0.4-3.3-0.7-3.8-2.5l0,0
		c-0.4-1.8,0.5-3.5,2.2-3.9l7.5-1.9C172.8,153.9,174.4,155,174.9,156.7L174.9,156.7z"/>
	<path id="XMLID_409_" class="st2" d="M174.2,146.8c0.9,1.9,0.3,4.1-1.5,4.9l-7.8,3.7c-1.7,0.8-3.8-0.1-4.7-2l0,0
		c-0.9-1.9-0.3-4.1,1.5-4.9l7.8-3.7C171.2,144,173.3,144.9,174.2,146.8L174.2,146.8z"/>
	<g id="XMLID_488_" class="st6">
		<path id="XMLID_408_" class="st7" d="M201.8,143.7c0,1.5-1.2,2.7-2.7,2.7h-57.7c-1.5,0-2.7-1.2-2.7-2.7v-27.9
			c0-1.5,1.2-2.7,2.7-2.7h57.7c1.5,0,2.7,1.2,2.7,2.7V143.7z"/>
		<g id="XMLID_504_">
			<g id="XMLID_547_">
				<path id="XMLID_548_" class="st8" d="M153.5,132.3c-3,0-5.4-2.2-5.4-5v-4c0-2.8,2.4-4.2,5.4-4.2c3,0,5.4,1.4,5.4,4.2v4
					C158.9,130,156.5,132.3,153.5,132.3z M153.5,120.7c-2.1,0-3.9,0.9-3.9,2.8v3.6c0,2,1.7,3.5,3.9,3.5c2.1,0,3.9-1.6,3.9-3.5v-3.6
					C157.4,121.6,155.6,120.7,153.5,120.7z"/>
			</g>
			<g id="XMLID_544_">
				<path id="XMLID_405_" class="st9" d="M160.5,126.7h-14.2c-0.1,0-0.1,0-0.2,0v10.3h14.4V126.7z"/>
				<rect id="XMLID_404_" x="146.1" y="136.9" class="st8" width="14.4" height="0.7"/>
			</g>
			<g id="XMLID_508_">
				<g id="XMLID_521_">
					<g id="XMLID_522_">
						<g id="XMLID_523_">
							<rect id="XMLID_403_" x="152.8" y="129.1" class="st10" width="1.1" height="1"/>
							<rect id="XMLID_402_" x="150.6" y="129.1" class="st10" width="1.1" height="1"/>
							<rect id="XMLID_401_" x="155" y="129.1" class="st10" width="1.1" height="1"/>
						</g>
					</g>
				</g>
				<g id="XMLID_515_">
					<g id="XMLID_516_">
						<g id="XMLID_517_">
							<rect id="XMLID_400_" x="152.8" y="131.2" class="st10" width="1.1" height="1"/>
							<rect id="XMLID_399_" x="150.6" y="131.2" class="st10" width="1.1" height="1"/>
							<rect id="XMLID_398_" x="155" y="131.2" class="st10" width="1.1" height="1"/>
						</g>
					</g>
				</g>
				<g id="XMLID_509_">
					<g id="XMLID_510_">
						<g id="XMLID_511_">
							<rect id="XMLID_396_" x="152.8" y="133.3" class="st10" width="1.1" height="1"/>
							<rect id="XMLID_354_" x="150.6" y="133.3" class="st10" width="1.1" height="1"/>
							<rect id="XMLID_351_" x="155" y="133.3" class="st10" width="1.1" height="1"/>
						</g>
					</g>
				</g>
			</g>
		</g>
		<polygon id="XMLID_350_" class="st7" points="144.7,153.6 144.7,145.3 153.7,145.3 		"/>
		<polygon id="XMLID_349_" class="st10" points="194.4,137.6 194.4,137.6 165.5,137.6 165.5,137.6 165.5,129.8 165.5,129.8
			194.4,129.8 194.4,129.8 		"/>
		<polygon id="XMLID_348_" class="st10" points="194.4,128.3 194.4,128.3 165.5,128.3 165.5,128.3 165.5,120.5 165.5,120.5
			194.4,120.5 194.4,120.5 		"/>
		<g id="XMLID_489_">
			<circle id="XMLID_346_" class="st8" cx="172.6" cy="133.9" r="0.8"/>
			<circle id="XMLID_345_" class="st8" cx="175.6" cy="133.9" r="0.8"/>
			<circle id="XMLID_337_" class="st8" cx="178.7" cy="133.9" r="0.8"/>
			<circle id="XMLID_335_" class="st8" cx="181.7" cy="133.9" r="0.8"/>
			<circle id="XMLID_334_" class="st8" cx="184.8" cy="133.9" r="0.8"/>
			<circle id="XMLID_333_" class="st8" cx="187.8" cy="133.9" r="0.8"/>
		</g>
	</g>
	<path id="XMLID_331_" class="st11" d="M163.6,148.9c0,0,0.9,1.2,1.5,2.3c0.5,1,0.8,2.1,0.8,2.1l-2.4,1.2c0,0-1-0.5-1.7-2
		c-0.7-1.4-0.5-2.4-0.5-2.4L163.6,148.9z"/>
	<path id="XMLID_329_" class="st11" d="M125.8,144.5c0,0-0.8-0.9-2.4-1c0,0,0,0,0,0c-0.1,0.9-0.3,4.3-0.4,5.5c0,0,0,0,0,0
		c1.3,0,2.8-0.4,2.8-0.4L125.8,144.5z"/>
	<path id="XMLID_309_" class="st11" d="M165.6,156.6c0,0,0.6,1.2,1,2.4c0.3,1,0.3,2.1,0.3,2.1l-2.7,0.8c0,0-1-0.6-1.3-2.1
		c-0.4-1.4,0-2.4,0-2.4L165.6,156.6z"/>
	<path id="XMLID_308_" class="st11" d="M165.2,164.4c0,0,0.6,1.2,0.9,2.3c0.3,1,0.3,1.9,0.3,1.9l-2.4,0.7c0,0-0.9-0.6-1.2-2
		c-0.3-1.4,0-2.2,0-2.2L165.2,164.4z"/>
</g>
<g id="Layer_6" class="st0">
	<g id="XMLID_2_" class="st6">
		<circle id="XMLID_66_" class="st12" cx="150.4" cy="150.3" r="48.2"/>
		<g id="XMLID_85_">
			<defs>
				<rect id="XMLID_14_" x="96.6" y="111" width="81.5" height="96.2"/>
			</defs>
			<clipPath id="XMLID_123_">
				<use xlink:href="#XMLID_14_"  style="overflow:visible;"/>
			</clipPath>
			<path id="XMLID_65_" class="st13" d="M138.2,154.2L138.2,154.2c-1.3-2.1-0.5-4.9,1.9-6.5l28.2-18.2c2.4-1.5,5.3-1.1,6.6,0.9
				l0,0.1c1.3,2,0.4,4.9-1.9,6.4l-28.2,18.2C142.4,156.6,139.5,156.3,138.2,154.2z"/>
			<g id="XMLID_169_" class="st14">
				<path id="XMLID_64_" class="st15" d="M162.4,155.1L162.4,155.1c-1.7-1.7-1.7-4.4-0.1-6l4.6-4.5c1.6-1.6,4.3-1.6,6,0l0.1,0.1
					c1.7,1.7,1.7,4.3,0,6l-4.6,4.5C166.7,156.8,164,156.8,162.4,155.1z"/>
				<path id="XMLID_63_" class="st15" d="M161.8,164.1L161.8,164.1c-1.6-1.9-1.4-4.6,0.4-6.1l5-4.1c1.8-1.5,4.5-1.2,6,0.6l0.1,0.1
					c1.5,1.8,1.3,4.5-0.5,6l-5,4.1C166,166.2,163.3,165.9,161.8,164.1z"/>
				<path id="XMLID_62_" class="st15" d="M163,170.9L163,170.9c-1-1.9-0.4-4.2,1.4-5.1l5-2.6c1.8-1,4-0.3,5,1.6l0,0.1
					c1,1.8,0.3,4.1-1.4,5.1l-5,2.6C166.3,173.5,164,172.8,163,170.9z"/>
			</g>
			<path id="XMLID_61_" class="st13" d="M135.5,184.8l-0.3-0.2c-4-2.5-6.7-4.9-9.1-6.6c-3.7-2.6-5.1-7.7-2.2-15.8l16-17.3
				c7.7-6.8,9.9-4,17.6,3l1.7,1.4c8.1,6.3,8.6,14,9.1,16.8c0.3,1.9,0.4,4.3,0.4,4.3c0,1.4-0.2,5-2.6,6.9c-6.2,5-10.3,12.7-15.7,13.9
				C146.5,192,141.8,188.8,135.5,184.8z"/>

				<rect id="XMLID_60_" x="117.1" y="175.8" transform="matrix(0.8435 0.5372 -0.5372 0.8435 123.7185 -40.0085)" class="st13" width="26.8" height="33"/>
			<g id="XMLID_165_" class="st14">
				<path id="XMLID_59_" class="st16" d="M163.8,113.2h-24.4c-2.9,0-5.3,2.4-5.3,5.3v63.4c0,2.9,2.4,5.3,5.3,5.3h24.4
					c2.9,0,5.3-2.4,5.3-5.3v-63.4C169.1,115.6,166.7,113.2,163.8,113.2z"/>
			</g>
			<g id="XMLID_163_" class="st14">
				<rect id="XMLID_58_" x="136.3" y="123.3" class="st17" width="30.5" height="54.1"/>
			</g>
			<g id="XMLID_160_" class="st14">
				<g id="XMLID_161_">
					<path id="XMLID_57_" class="st18" d="M153.9,118.3h-4.6c-0.4,0-0.7,0.3-0.7,0.7c0,0.4,0.3,0.7,0.7,0.7h4.6
						c0.4,0,0.7-0.3,0.7-0.7C154.6,118.6,154.3,118.3,153.9,118.3z"/>
				</g>
			</g>
			<g id="XMLID_157_" class="st14">
				<g id="XMLID_158_">
					<path id="XMLID_56_" class="st18" d="M154.5,181.4h-5.9c-0.5,0-1,0.5-1,1.1c0,0.6,0.4,1.1,1,1.1h5.9c0.5,0,1-0.5,1-1.1
						C155.5,181.8,155.1,181.4,154.5,181.4z"/>
				</g>
			</g>
			<g id="XMLID_130_" class="st14">
				<path id="XMLID_152_" class="st19" d="M163.6,133c-0.1-0.4-0.6-0.7-1-0.5l-1.5,0.4c-0.2,0.1-0.3,0.2-0.4,0.3c0,0,0,0,0,0
					c0,0,0,0,0,0c0,0,0,0,0,0c0,0.1-0.1,0.1-0.1,0.2l-1,2.7h-18.3c-0.2,0-0.3,0.1-0.5,0.2c-0.1,0.1-0.2,0.3-0.1,0.5l2.4,10.7
					c0.1,0.3,0.3,0.5,0.6,0.5h14.7l-0.1,1.6h-14.1c-0.3,0-0.6,0.3-0.6,0.6c0,0.3,0.3,0.6,0.6,0.6h0.8c-0.3,0.4-0.4,0.8-0.4,1.3
					c0,1.2,1,2.2,2.2,2.2c1.2,0,2.2-1,2.2-2.2c0-0.5-0.2-0.9-0.4-1.3h6.3c-0.3,0.4-0.4,0.8-0.4,1.3c0,1.2,1,2.2,2.2,2.2
					c1.2,0,2.2-1,2.2-2.2c0-0.5-0.2-0.9-0.4-1.3h0.5c0,0,0,0,0,0c0,0,0,0,0,0c0.3,0,0.6-0.2,0.6-0.5l0.2-2.7c0,0,0,0,0,0
					c0,0,0,0,0,0l0.7-9.8c0,0,0-0.1,0-0.1l1.2-3.2c0,0,0.1,0,0.1,0l1.5-0.4C163.5,133.9,163.7,133.4,163.6,133z M146.7,153.4
					c-0.7,0-1.3-0.6-1.3-1.3c0-0.7,0.6-1.3,1.3-1.3c0.7,0,1.3,0.6,1.3,1.3C148,152.9,147.4,153.4,146.7,153.4z M156.5,153.4
					c-0.7,0-1.3-0.6-1.3-1.3c0-0.7,0.6-1.3,1.3-1.3c0.7,0,1.3,0.6,1.3,1.3C157.8,152.9,157.2,153.4,156.5,153.4z M142.1,137.4h17.1
					l-0.7,9.5h-14.3L142.1,137.4z"/>
				<path id="XMLID_147_" class="st20" d="M163.5,132.7c-0.1-0.4-0.6-0.7-1-0.5l-1.5,0.4c-0.2,0.1-0.3,0.2-0.4,0.3c0,0,0,0,0,0
					c0,0,0,0,0,0c0,0,0,0,0,0c0,0.1-0.1,0.1-0.1,0.2l-1,2.7h-18.3c-0.2,0-0.3,0.1-0.5,0.2c-0.1,0.1-0.2,0.3-0.1,0.5l2.4,10.7
					c0.1,0.3,0.3,0.5,0.6,0.5h14.7l-0.1,1.6H144c-0.3,0-0.6,0.3-0.6,0.6c0,0.3,0.3,0.6,0.6,0.6h0.8c-0.3,0.4-0.4,0.8-0.4,1.3
					c0,1.2,1,2.2,2.2,2.2c1.2,0,2.2-1,2.2-2.2c0-0.5-0.2-0.9-0.4-1.3h6.3c-0.3,0.4-0.4,0.8-0.4,1.3c0,1.2,1,2.2,2.2,2.2
					c1.2,0,2.2-1,2.2-2.2c0-0.5-0.2-0.9-0.4-1.3h0.5c0,0,0,0,0,0c0,0,0,0,0,0c0.3,0,0.6-0.2,0.6-0.5l0.2-2.7c0,0,0,0,0,0
					c0,0,0,0,0,0l0.7-9.8c0,0,0-0.1,0-0.1l1.2-3.2c0,0,0.1,0,0.1,0l1.5-0.4C163.4,133.6,163.6,133.2,163.5,132.7z M146.6,153.1
					c-0.7,0-1.3-0.6-1.3-1.3c0-0.7,0.6-1.3,1.3-1.3c0.7,0,1.3,0.6,1.3,1.3C147.8,152.6,147.3,153.1,146.6,153.1z M156.4,153.1
					c-0.7,0-1.3-0.6-1.3-1.3c0-0.7,0.6-1.3,1.3-1.3s1.3,0.6,1.3,1.3C157.6,152.6,157.1,153.1,156.4,153.1z M142,137.1H159l-0.7,9.5
					h-14.3L142,137.1z"/>
				<rect id="XMLID_47_" x="144.9" y="134.9" class="st21" width="12.7" height="2.9"/>
				<g id="XMLID_131_">
					<g id="XMLID_139_">
						<g id="XMLID_141_">
							<circle id="XMLID_46_" class="st22" cx="147.8" cy="135.6" r="0.4"/>
							<circle id="XMLID_45_" class="st22" cx="154.7" cy="135.6" r="0.4"/>
							<g id="XMLID_142_">
								<path id="XMLID_44_" class="st22" d="M154.7,135.8c-0.1,0-0.3-0.1-0.3-0.3c0-2.4-1.4-4.4-3.2-4.4c-1.7,0-3.2,2-3.2,4.4
									c0,0.1-0.1,0.3-0.3,0.3s-0.3-0.1-0.3-0.3c0-2.7,1.6-4.9,3.7-4.9c2,0,3.7,2.2,3.7,4.9C154.9,135.7,154.8,135.8,154.7,135.8z"
									/>
							</g>
						</g>
						<rect id="XMLID_43_" x="146" y="144.4" class="st22" width="10.5" height="1.2"/>
					</g>
					<path id="XMLID_42_" class="st7" d="M156.5,145.2H146v-10.8c0-0.1,0.1-0.2,0.2-0.2h10c0.1,0,0.2,0.1,0.2,0.2V145.2z"/>
					<g id="XMLID_133_">
						<circle id="XMLID_41_" class="st23" cx="147.8" cy="135.3" r="0.4"/>
						<circle id="XMLID_40_" class="st23" cx="154.7" cy="135.3" r="0.4"/>
						<g id="XMLID_134_">
							<path id="XMLID_39_" class="st21" d="M154.7,135.5c-0.1,0-0.3-0.1-0.3-0.3c0-2.4-1.4-4.4-3.2-4.4c-1.7,0-3.2,2-3.2,4.4
								c0,0.1-0.1,0.3-0.3,0.3s-0.3-0.1-0.3-0.3c0-2.7,1.6-4.9,3.7-4.9c2,0,3.7,2.2,3.7,4.9C154.9,135.4,154.8,135.5,154.7,135.5z"
								/>
						</g>
					</g>
				</g>
			</g>
			<path id="XMLID_38_" class="st24" d="M160.1,171.1h-16.8c-0.2,0-0.3-0.2-0.3-0.3v-6.1c0-0.2,0.2-0.3,0.3-0.3h16.8
				c0.2,0,0.3,0.2,0.3,0.3v6.1C160.4,171,160.3,171.1,160.1,171.1z"/>
			<path id="XMLID_37_" class="st25" d="M160.1,170.9h-16.8c-0.2,0-0.3-0.2-0.3-0.3v-6.1c0-0.2,0.2-0.3,0.3-0.3h16.8
				c0.2,0,0.3,0.2,0.3,0.3v6.1C160.4,170.7,160.3,170.9,160.1,170.9z"/>
			<g id="XMLID_119_" class="st14">
				<path id="XMLID_124_" class="st10" d="M149.6,166.2c0.1,0.1,0.1,0.3,0.1,0.5c0,0.2-0.1,0.4-0.2,0.5c-0.1,0.1-0.1,0.1-0.2,0.2
					c0.2,0.1,0.3,0.2,0.4,0.3s0.1,0.3,0.1,0.5c0,0.2,0,0.4-0.1,0.5c-0.1,0.1-0.1,0.2-0.2,0.3c-0.1,0.1-0.2,0.1-0.4,0.2
					c-0.1,0-0.3,0-0.5,0h-1.5v-3.2h1.6C149.1,165.9,149.4,166,149.6,166.2z M147.8,166.5v0.7h0.8c0.1,0,0.3,0,0.3-0.1
					c0.1-0.1,0.1-0.1,0.1-0.3c0-0.2-0.1-0.3-0.2-0.3c-0.1,0-0.2-0.1-0.4-0.1H147.8z M147.8,167.7v0.9h0.8c0.1,0,0.3,0,0.3-0.1
					c0.1-0.1,0.2-0.2,0.2-0.4c0-0.2-0.1-0.3-0.2-0.3c-0.1,0-0.2-0.1-0.3-0.1H147.8z"/>
				<path id="XMLID_122_" class="st10" d="M150.4,165.9h0.7v2c0,0.2,0,0.4,0.1,0.5c0.1,0.2,0.3,0.3,0.5,0.3c0.3,0,0.5-0.1,0.5-0.3
					c0.1-0.1,0.1-0.3,0.1-0.5v-2h0.7v2c0,0.3-0.1,0.6-0.2,0.8c-0.2,0.4-0.6,0.5-1.1,0.5c-0.6,0-0.9-0.2-1.1-0.5
					c-0.1-0.2-0.2-0.5-0.2-0.8V165.9z"/>
				<path id="XMLID_120_" class="st10" d="M155.5,165.9h0.8l-1.1,2v1.2h-0.7v-1.2l-1.1-2h0.8l0.7,1.4L155.5,165.9z"/>
			</g>
			<g id="XMLID_110_" class="st14">
				<path id="XMLID_115_" class="st21" d="M149.6,166.2c0.1,0.1,0.1,0.3,0.1,0.5c0,0.2-0.1,0.4-0.2,0.5c-0.1,0.1-0.1,0.1-0.2,0.2
					c0.2,0.1,0.3,0.2,0.4,0.3c0.1,0.1,0.1,0.3,0.1,0.5c0,0.2,0,0.4-0.1,0.5c-0.1,0.1-0.1,0.2-0.2,0.3c-0.1,0.1-0.2,0.1-0.4,0.2
					c-0.1,0-0.3,0-0.5,0h-1.5v-3.2h1.6C149.1,165.8,149.4,166,149.6,166.2z M147.8,166.4v0.7h0.8c0.1,0,0.3,0,0.3-0.1
					c0.1-0.1,0.1-0.1,0.1-0.3c0-0.2-0.1-0.3-0.2-0.3c-0.1,0-0.2-0.1-0.4-0.1H147.8z M147.8,167.6v0.9h0.8c0.1,0,0.3,0,0.3-0.1
					c0.1-0.1,0.2-0.2,0.2-0.4c0-0.2-0.1-0.3-0.2-0.3c-0.1,0-0.2-0.1-0.3-0.1H147.8z"/>
				<path id="XMLID_113_" class="st21" d="M150.4,165.8h0.7v2c0,0.2,0,0.4,0.1,0.5c0.1,0.2,0.3,0.3,0.5,0.3c0.3,0,0.5-0.1,0.5-0.3
					c0.1-0.1,0.1-0.3,0.1-0.5v-2h0.7v2c0,0.3-0.1,0.6-0.2,0.8c-0.2,0.4-0.6,0.5-1.1,0.5c-0.6,0-0.9-0.2-1.1-0.5
					c-0.1-0.2-0.2-0.5-0.2-0.8V165.8z"/>
				<path id="XMLID_111_" class="st21" d="M155.5,165.8h0.8l-1.1,2v1.2h-0.7v-1.2l-1.1-2h0.8l0.7,1.4L155.5,165.8z"/>
			</g>
			<g id="XMLID_102_" class="st26">
				<g id="XMLID_104_" class="st6">
					<path id="XMLID_26_" class="st27" d="M139.3,207.1l-26.1-16.9c-0.2-0.1-0.2-0.3-0.1-0.5l4-6.1c0.1-0.2,0.3-0.2,0.5-0.1
						l26.1,16.9c0.2,0.1,0.2,0.3,0.1,0.5l-4,6.1C139.6,207.2,139.4,207.2,139.3,207.1z"/>
					<circle id="XMLID_25_" class="st28" cx="118" cy="187.8" r="1.3"/>
				</g>
				<path id="XMLID_24_" class="st29" d="M127.1,227.2l-28.2-18.3c-0.3-0.2-0.4-0.6-0.2-0.9l13.5-19.7c0.2-0.3,0.6-0.4,0.9-0.2
					l28.2,18.3c0.3,0.2,0.4,0.6,0.2,0.9L128,227C127.8,227.3,127.4,227.4,127.1,227.2z"/>
			</g>
			<g id="XMLID_98_" class="st14">
				<path id="XMLID_23_" class="st15" d="M127.5,172.4l-0.3,0c-2.4-0.3-3.9-2.6-3.6-4.8l3.3-24.7c0.7-3.7,2.7-3.8,5.1-3.5l0.1,0
					c2.7,0.6,3.2,3.8,3.2,7c0,0.3,0,0.6-0.1,0.9l-2.6,20.8C132.3,170.2,129.9,172.6,127.5,172.4z"/>
				<path id="XMLID_22_" class="st30" d="M126.3,172.6L126.3,172.6c-2.5-0.3-4.2-2.5-3.8-4.8c0,0,4.5-21.5,4.2-25.3
					c-0.3-3.5,2.8-3.8,5.3-3.5l0.1,0c2.9,0.7,3.6,5.2,3.1,7.8l-3.7,22.2C131.1,171.3,128.8,172.9,126.3,172.6z"/>
				<path id="XMLID_21_" class="st31" d="M129.1,139c-0.3,0-0.7,0-1,0.2c-0.5,0.2-1.2,0.8-1.3,1.9c-0.2,1.8-0.4,4.5-0.2,4.8
					c0.2,0.3,1.1,0.6,2.2,0.2c1.1-0.4,1.3-0.6,1.6-1.5c0.3-0.9,0.2-4.1,0.1-4.5C130.3,139.9,130.1,139.1,129.1,139z"/>
			</g>
			<g id="XMLID_88_" class="st14">
				<g id="XMLID_95_">
					<path id="XMLID_20_" class="st30" d="M161,151.2L161,151.2c-0.9-2.2,0-4.5,2.1-5.4l5.6-2.3c2-0.9,4.3,0.1,5.2,2.2l0,0.1
						c0.9,2.1-0.1,4.5-2.1,5.3l-5.6,2.3C164.2,154.3,161.8,153.3,161,151.2z"/>
					<path id="XMLID_19_" class="st31" d="M167,148.7L167,148.7c-0.6-1.5-1.5-2.5-3.2-1.8l-1.5,0.6c-1.7,0.7-1.9,2.1-1.3,3.6l0,0.1
						c0.6,1.4,1.7,2.3,3.4,1.6l1.5-0.6C167.6,151.5,167.6,150.1,167,148.7z"/>
				</g>
				<g id="XMLID_92_">
					<path id="XMLID_18_" class="st30" d="M160.9,161L160.9,161c-0.9-2.2,0-4.6,2.1-5.4l5.7-2.3c2-0.9,4.4,0.1,5.3,2.2l0,0.1
						c0.9,2.1-0.1,4.5-2.1,5.3l-5.7,2.3C164.1,164.1,161.8,163.1,160.9,161z"/>
					<path id="XMLID_17_" class="st31" d="M166.8,158.5L166.8,158.5c-0.6-1.5-1.5-2.4-3.2-1.7l-1.4,0.6c-1.7,0.7-1.9,2.1-1.3,3.5
						l0,0.1c0.6,1.4,1.7,2.3,3.4,1.6l1.4-0.6C167.4,161.2,167.4,159.9,166.8,158.5z"/>
				</g>
				<g id="XMLID_89_">
					<path id="XMLID_16_" class="st30" d="M161.4,170.4L161.4,170.4c-0.8-2,0.2-4.3,2.2-5.1l5.7-2.3c2.1-0.9,4.4,0,5.2,1.9l0,0.1
						c0.8,1.9-0.2,4.2-2.3,5l-5.7,2.3C164.5,173.2,162.2,172.3,161.4,170.4z"/>
					<path id="XMLID_15_" class="st31" d="M166.9,168.2L166.9,168.2c-0.5-1.3-1.4-2.2-2.9-1.5l-1.3,0.5c-1.5,0.6-1.7,1.9-1.2,3.1
						l0,0c0.5,1.3,1.5,2,3,1.4l1.3-0.5C167.4,170.6,167.4,169.4,166.9,168.2z"/>
				</g>
			</g>
		</g>
		<g id="XMLID_3_">
			<defs>
				<rect id="XMLID_4_" x="146.4" y="147.5" width="59.6" height="59.6"/>
			</defs>
			<clipPath id="XMLID_151_">
				<use xlink:href="#XMLID_4_"  style="overflow:visible;"/>
			</clipPath>
			<g id="XMLID_70_" class="st32">
				<path id="XMLID_13_" class="st15" d="M186.7,187.8L186.7,187.8c-0.4,0.4-1,0.4-1.4,0l-5.1-5.1c-0.4-0.4-0.4-1,0-1.4l0,0
					c0.4-0.4,1-0.4,1.4,0l5.1,5.1C187.1,186.9,187.1,187.5,186.7,187.8z"/>
				<path id="XMLID_12_" class="st15" d="M181.8,194.6L181.8,194.6c-0.4,0.4-1,0.4-1.4,0l-7-7c-0.4-0.4-0.4-1,0-1.4l0,0
					c0.4-0.4,1-0.4,1.4,0l7,7C182.2,193.6,182.2,194.2,181.8,194.6z"/>
				<path id="XMLID_11_" class="st15" d="M192.1,181.5L192.1,181.5c-0.4,0.4-1,0.4-1.4,0l-3.2-3.2c-0.4-0.4-0.4-1,0-1.4l0,0
					c0.4-0.4,1-0.4,1.4,0l3.2,3.2C192.5,180.5,192.4,181.1,192.1,181.5z"/>
				<g id="XMLID_79_">
					<path id="XMLID_10_" class="st33" d="M194.1,209.3L194.1,209.3c-0.6,2-2.8,3-4.8,2.4l-22.1-7.1c-3.2-1.2-3-2.9-2.4-4.8l0-0.1
						c1-2.2,5.2-2.1,7.4-1.3l19.3,6.3C193.5,205.3,194.7,207.4,194.1,209.3z"/>
					<path id="XMLID_9_" class="st31" d="M164.2,201.4c-0.1,0.3-0.1,0.6-0.1,0.9c0.1,0.5,0.4,1.2,1.3,1.6c1.5,0.6,3.9,1.6,4.2,1.5
						c0.3-0.1,0.8-0.7,0.7-1.7c-0.1-1-0.2-1.2-0.9-1.6c-0.7-0.4-3.7-1.2-4-1.3C165.3,200.7,164.6,200.6,164.2,201.4z"/>
				</g>
				<polygon id="XMLID_8_" class="st15" points="186.5,210.8 173.8,198.9 175.6,199.5 189.1,211.6 				"/>
				<g id="XMLID_75_">
					<path id="XMLID_7_" class="st30" d="M198.8,177.1C198.8,177.1,198.8,177.1,198.8,177.1l-5.5-5.5c-1.4-1.4-3.8-1.4-5.3,0.1
						l-0.1,0.1c-1.5,1.5-1.5,3.8,0,5.3l3.3,3.2c-0.2,0.1-0.3,0.2-0.5,0.4l-5.2-5.2c-1.4-1.4-3.8-1.4-5.3,0.1l-0.1,0.1
						c-1.5,1.5-1.5,3.8,0,5.3l4.9,4.8c0,0-0.1,0.1-0.1,0.1l-0.2,0.2c0,0,0,0,0,0l-6.6-6.6c-1.4-1.4-3.8-1.4-5.3,0.1l-0.1,0.1
						c-1.5,1.5-1.5,3.8,0,5.3l6.9,6.9c-0.1,0.2-0.3,0.4-0.4,0.5l-16-15.9c-1.7-1.7-4.3-1.9-5.8-0.5l-0.1,0.1
						c-1.5,1.5-1.2,4.1,0.5,5.8l17.6,17.6c0.2,0.2,0.3,0.4,0.4,0.6c0,0,0.1,0.1,0.1,0.1l9.7,9.7c2.3,2.3,5.7,2.9,8.5,1.7l15.9,15.8
						l15.9-16l-15.8-15.7c0.4-0.7,0.7-1.5,0.8-2.2c0.4-2.2-0.7-4.7-2.1-6L198.8,177.1z"/>
					<path id="XMLID_6_" class="st31" d="M162,180.4L162,180.4c-1.1,1.1-2.3,1.6-3.6,0.4l-1.1-1.1c-1.3-1.3-0.9-2.7,0.1-3.7l0,0
						c1.1-1.1,2.5-1.4,3.7-0.2l1.1,1.1C163.6,178.1,163.1,179.4,162,180.4z"/>
				</g>
				<g id="XMLID_72_">
					<path id="XMLID_67_" class="st27" d="M220,203.1l-18,18c-0.1,0.1-0.3,0.1-0.4,0l-4.2-4.2c-0.1-0.1-0.1-0.3,0-0.4l18-18
						c0.1-0.1,0.3-0.1,0.4,0l4.2,4.2C220.1,202.8,220.1,202.9,220,203.1z"/>
					<circle id="XMLID_68_" class="st28" cx="200.9" cy="216.8" r="1"/>
				</g>
				<path id="XMLID_5_" class="st28" d="M227.8,209.4l-19.5,19.4c-0.2,0.2-0.5,0.2-0.8,0l-7.3-7.3c-0.2-0.2-0.2-0.5,0-0.8l19.5-19.4
					c0.2-0.2,0.5-0.2,0.8,0l7.3,7.3C228,208.9,228,209.2,227.8,209.4z"/>
			</g>
		</g>
	</g>
</g>
<g id="Layer_5" class="st0">
	<path id="XMLID_300_" class="st34" d="M149.6,133.7c-0.2-0.8-0.8-2-1.7-2.7c-0.5-0.4-1.1-0.6-1.8-0.6c-0.2,0-0.4,0-0.7,0.1
		c-0.8,0.1-1.2,0.4-1.2,0.6c-0.1,0.3,0.1,0.7,0.5,1C145.5,133.2,147.4,134,149.6,133.7z"/>
	<path id="XMLID_299_" class="st34" d="M157.5,132c0.3-0.4,0.5-0.8,0.4-1c-0.1-0.2-0.4-0.4-1.3-0.6c-1-0.1-1.8,0.1-2.5,0.6
		c-0.9,0.7-1.4,1.9-1.6,2.7C154.8,133.9,156.7,133,157.5,132z"/>
	<g id="XMLID_575_" class="st6">
		<circle id="XMLID_603_" class="st12" cx="149.6" cy="150.2" r="48.1"/>
	</g>
	<g id="XMLID_559_" class="st6">
		<polygon id="XMLID_560_" class="st7" points="119.9,96.6 118.5,95.3 116.5,95.5 117.8,94 117.6,92 119.1,93.4 121.1,93.2
			119.7,94.7 		"/>
	</g>
	<g id="XMLID_557_" class="st6">
		<polygon id="XMLID_558_" class="st7" points="132.6,90.3 130.2,88.1 127.1,88.4 129.2,86.1 128.9,82.9 131.3,85 134.4,84.7
			132.3,87.1 		"/>
	</g>
	<g id="XMLID_555_" class="st6">
		<polygon id="XMLID_556_" class="st7" points="130.8,108.5 127.9,105.8 123.9,106.2 126.6,103.3 126.2,99.3 129.1,102 133.1,101.6
			130.4,104.5 		"/>
	</g>
	<g id="XMLID_86_" class="st6">
		<path id="XMLID_1069_" class="st35" d="M105,121h64v66h-64V121z"/>
		<path id="XMLID_1068_" class="st35" d="M151,193v-33h35"/>

			<rect id="XMLID_835_" x="130" y="136.6" transform="matrix(-1 -6.913994e-003 6.913994e-003 -1 299.9379 278.8708)" class="st36" width="40.8" height="4.7"/>
		<g id="XMLID_128_">
			<g id="XMLID_659_">
				<g id="XMLID_701_">
					<g id="XMLID_833_">
						<circle id="XMLID_834_" class="st7" cx="145" cy="118" r="9.9"/>
					</g>
				</g>
				<g id="XMLID_691_">
					<g id="XMLID_692_">
						<g id="XMLID_693_">
							<path id="XMLID_694_" class="st22" d="M145,126.6c-4.7,0-8.6-3.9-8.6-8.6c0-4.7,3.9-8.6,8.6-8.6c4.7,0,8.6,3.9,8.6,8.6
								C153.6,122.7,149.7,126.6,145,126.6z M145,110.4c-4.2,0-7.5,3.4-7.5,7.5c0,4.2,3.4,7.5,7.5,7.5s7.5-3.4,7.5-7.5
								C152.5,113.8,149.1,110.4,145,110.4z"/>
						</g>
					</g>
				</g>
				<g id="XMLID_660_">
					<g id="XMLID_205_">
						<g id="XMLID_230_" class="st37">
							<defs>
								<rect id="XMLID_301_" x="142.6" y="113.7" class="st37" width="5.9" height="8.5"/>
							</defs>
							<clipPath id="XMLID_153_">
								<use xlink:href="#XMLID_301_"  style="overflow:visible;"/>
							</clipPath>
							<g id="XMLID_256_" class="st38">
								<g id="XMLID_257_">
									<g id="XMLID_258_">
										<g id="XMLID_268_">
											<g id="XMLID_269_">
												<defs>
													<polyline id="XMLID_298_" points="142.6,122.2 142.6,113.7 148.5,113.7 148.5,122.2 142.6,122.2 													"/>
												</defs>
												<clipPath id="XMLID_176_">
													<use xlink:href="#XMLID_298_"  style="overflow:visible;"/>
												</clipPath>
												<path id="XMLID_296_" class="st39" d="M148.5,113.7l-1,0h-1.7c-0.8,0-1.8,0-3,0v0.6c0,0.5,0,1.3-0.1,2.4
													c0,1.5-0.1,2.7-0.1,3.5c0,0.5-0.1,1.1-0.1,2c0.6,0,0.9,0,1,0l0.9,0v-0.3v-0.6l0.1-2.7c0.6,0,1.1,0,1.7,0
													c0.4,0,1,0,1.6,0c0-0.4,0-0.8,0.1-1.3l-0.8,0c-0.2,0-0.7,0-1.5,0l-1,0l0.1-2.2h1.2h0.9h0.5h0.3l0.8,0
													C148.4,114.8,148.5,114.3,148.5,113.7"/>
											</g>
										</g>
									</g>
								</g>
							</g>
						</g>
					</g>
				</g>
			</g>
			<g id="XMLID_529_">
				<g id="XMLID_655_">
					<g id="XMLID_656_">
						<circle id="XMLID_658_" class="st7" cx="143.6" cy="135.4" r="9.9"/>
					</g>
				</g>
				<g id="XMLID_632_">
					<g id="XMLID_633_">
						<g id="XMLID_651_">
							<path id="XMLID_652_" class="st22" d="M143.6,144c-4.7,0-8.6-3.9-8.6-8.6c0-4.7,3.9-8.6,8.6-8.6c4.7,0,8.6,3.9,8.6,8.6
								C152.2,140.1,148.3,144,143.6,144z M143.6,127.8c-4.2,0-7.5,3.4-7.5,7.5c0,4.2,3.4,7.5,7.5,7.5s7.5-3.4,7.5-7.5
								C151.1,131.2,147.8,127.8,143.6,127.8z"/>
						</g>
					</g>
				</g>
				<g id="XMLID_530_">
					<g id="XMLID_201_">
						<g id="XMLID_208_" class="st37">
							<defs>
								<rect id="XMLID_278_" x="141.2" y="131.1" class="st37" width="5.9" height="8.5"/>
							</defs>
							<clipPath id="XMLID_177_">
								<use xlink:href="#XMLID_278_"  style="overflow:visible;"/>
							</clipPath>
							<g id="XMLID_231_" class="st40">
								<g id="XMLID_232_">
									<g id="XMLID_233_">
										<g id="XMLID_274_">
											<g id="XMLID_275_">
												<defs>
													<polyline id="XMLID_277_" points="141.2,139.6 141.2,131.1 147.2,131.1 147.2,139.6 141.2,139.6 													"/>
												</defs>
												<clipPath id="XMLID_207_">
													<use xlink:href="#XMLID_277_"  style="overflow:visible;"/>
												</clipPath>
												<path id="XMLID_276_" class="st41" d="M147.2,131.1h-1l-1.7,0c-0.8,0-1.8,0-3,0v0.6c0,0.5,0,1.3-0.1,2.4
													c0,1.5-0.1,2.7-0.1,3.5c0,0.5-0.1,1.1-0.1,2c0.6,0,0.9,0,1,0l0.9,0v-0.3l0-0.6l0.1-2.7c0.6,0,1.1,0,1.7,0
													c0.4,0,1,0,1.6,0c0-0.4,0-0.8,0.1-1.3l-0.8,0c-0.2,0-0.7,0-1.5,0l-1,0l0.1-2.2l1.2,0h0.9h0.5l0.3,0l0.8,0
													C147.1,132.2,147.1,131.8,147.2,131.1"/>
											</g>
										</g>
									</g>
								</g>
							</g>
						</g>
					</g>
				</g>
			</g>
			<g id="XMLID_436_">
				<g id="XMLID_525_">
					<g id="XMLID_526_">
						<circle id="XMLID_528_" class="st7" cx="159" cy="128.4" r="9.9"/>
					</g>
				</g>
				<g id="XMLID_491_">
					<g id="XMLID_495_">
						<g id="XMLID_497_">
							<path id="XMLID_507_" class="st22" d="M159,137c-4.7,0-8.6-3.9-8.6-8.6c0-4.7,3.9-8.6,8.6-8.6c4.7,0,8.6,3.9,8.6,8.6
								C167.6,133.1,163.8,137,159,137z M159,120.9c-4.2,0-7.5,3.4-7.5,7.5c0,4.2,3.4,7.5,7.5,7.5s7.5-3.4,7.5-7.5
								C166.6,124.2,163.2,120.9,159,120.9z"/>
						</g>
					</g>
				</g>
				<g id="XMLID_441_">
					<g id="XMLID_200_">
						<g id="XMLID_206_" class="st37">
							<defs>
								<rect id="XMLID_266_" x="156.7" y="124.2" class="st37" width="5.9" height="8.5"/>
							</defs>
							<clipPath id="XMLID_253_">
								<use xlink:href="#XMLID_266_"  style="overflow:visible;"/>
							</clipPath>
							<g id="XMLID_209_" class="st42">
								<g id="XMLID_212_">
									<g id="XMLID_213_">
										<g id="XMLID_214_">
											<g id="XMLID_218_">
												<defs>
													<polyline id="XMLID_265_" points="156.7,132.6 156.7,124.2 162.6,124.2 162.6,132.6 156.7,132.6 													"/>
												</defs>
												<clipPath id="XMLID_316_">
													<use xlink:href="#XMLID_265_"  style="overflow:visible;"/>
												</clipPath>
												<path id="XMLID_259_" class="st43" d="M162.6,124.2l-1,0l-1.7,0c-0.8,0-1.8,0-3,0v0.6c0,0.5,0,1.3-0.1,2.4
													c0,1.5-0.1,2.7-0.1,3.5c0,0.5-0.1,1.1-0.1,2c0.6,0,0.9,0,1,0l0.9,0v-0.3v-0.6l0.1-2.7c0.6,0,1.1,0,1.7,0
													c0.4,0,1,0,1.6,0c0-0.4,0-0.8,0.1-1.3l-0.8,0c-0.2,0-0.7,0-1.5,0l-1,0l0.1-2.2l1.2,0h0.9h0.5l0.3,0l0.8,0
													C162.5,125.2,162.5,124.8,162.6,124.2"/>
											</g>
										</g>
									</g>
								</g>
							</g>
						</g>
					</g>
				</g>
			</g>
			<g id="XMLID_129_">
				<g id="XMLID_433_">
					<g id="XMLID_434_">
						<circle id="XMLID_435_" class="st7" cx="159.1" cy="136.3" r="9.9"/>
					</g>
				</g>
				<g id="XMLID_413_">
					<g id="XMLID_414_">
						<g id="XMLID_415_">
							<path id="XMLID_420_" class="st22" d="M161.2,144.7c-4.6,1.1-9.3-1.7-10.4-6.3c-1.1-4.6,1.7-9.3,6.3-10.4
								c4.6-1.1,9.3,1.7,10.4,6.3C168.6,138.9,165.8,143.5,161.2,144.7z M157.3,129c-4,1-6.5,5.1-5.5,9.1c1,4,5.1,6.5,9.1,5.5
								c4-1,6.5-5.1,5.5-9.1C165.5,130.5,161.4,128,157.3,129z"/>
						</g>
					</g>
				</g>
				<g id="XMLID_135_">
					<g id="XMLID_192_">
						<g id="XMLID_199_" class="st37">
							<defs>
								<rect id="XMLID_223_" x="156.2" y="131.1" class="st37" width="5.7" height="10.1"/>
							</defs>
							<clipPath id="XMLID_317_">
								<use xlink:href="#XMLID_223_"  style="overflow:visible;"/>
							</clipPath>
							<g id="XMLID_202_" class="st44">
								<g id="XMLID_203_">
									<g id="XMLID_204_">
										<g id="XMLID_219_">
											<g id="XMLID_220_">
												<defs>
													<polyline id="XMLID_222_" points="156.2,141.2 156.2,131.1 161.9,131.1 161.9,141.2 156.2,141.2 													"/>
												</defs>
												<clipPath id="XMLID_339_">
													<use xlink:href="#XMLID_222_"  style="overflow:visible;"/>
												</clipPath>
												<path id="XMLID_221_" class="st45" d="M161.6,131.1l-0.9,0.3l-1.6,0.5c-0.8,0.3-1.8,0.6-2.9,0.9l0.1,0.6
													c0.1,0.4,0.2,1.2,0.4,2.3c0.2,1.5,0.4,2.7,0.5,3.5c0.1,0.5,0.1,1.1,0.2,1.9c0.6-0.2,0.9-0.3,1-0.3l0.9-0.3l-0.1-0.3
													l-0.1-0.5l-0.4-2.7c0.6-0.2,1.1-0.4,1.6-0.5c0.4-0.1,0.9-0.3,1.6-0.5c-0.1-0.4-0.1-0.8-0.2-1.3l-0.8,0.3
													c-0.2,0.1-0.7,0.2-1.4,0.5l-1,0.3l-0.3-2.2l1.2-0.4l0.9-0.3l0.4-0.1l0.3-0.1l0.8-0.2
													C161.8,132.2,161.7,131.8,161.6,131.1"/>
											</g>
										</g>
									</g>
								</g>
							</g>
						</g>
					</g>
				</g>
			</g>
		</g>
		<path id="XMLID_127_" class="st46" d="M128.8,172.7l0,4.5c0,1,0.8,1.8,1.8,1.8l39.1-0.4c1,0,1.8-0.8,1.8-1.8l0-4.5L128.8,172.7z"
			/>

			<rect id="XMLID_112_" x="128.9" y="141.3" transform="matrix(-1 -8.054489e-003 8.054489e-003 -1 299.3107 315.3817)" class="st46" width="42.7" height="31.6"/>
		<polygon id="XMLID_106_" class="st36" points="129.1,141.1 134.9,141.2 134.9,137.9 		"/>
		<polygon id="XMLID_100_" class="st47" points="134.9,137.9 130.1,136.4 130,140.6 		"/>
		<polygon id="XMLID_99_" class="st36" points="171.8,141.4 166,141.4 166,138.1 		"/>
		<polygon id="XMLID_94_" class="st47" points="166,138.1 170.9,136.7 170.8,140.9 		"/>
		<g id="XMLID_87_">
			<path id="XMLID_90_" class="st12" d="M140.4,170.6c0.3-2.5,0.5-4.5,0.6-6c0.2-2.5,0.4-6.2,0.5-10.9c0.1-3.5,0.2-6,0.2-7.4v-1.8
				c4.5,0,8.5,0,11.8,0l6.6,0l3.9,0c-0.2,1.9-0.3,3.3-0.3,4.1l-3.4-0.1l-1.4,0h-1.8h-3.6l-4.9,0l-0.3,6.9l4,0.1c3.1,0,5,0,5.9,0
				l3.2,0c-0.1,1.5-0.2,2.8-0.2,4.1c-2.7-0.1-4.9-0.1-6.5-0.1c-2,0-4.3,0-6.6,0.1l-0.3,8.5l0,1.7v1l-3.6,0
				C144.1,170.6,142.8,170.6,140.4,170.6z"/>
		</g>
	</g>
	<g id="XMLID_427_" class="st6">
		<g id="XMLID_430_">
			<path id="XMLID_431_" class="st48" d="M132.7,183.5c-0.1,0-0.3-0.1-0.3-0.3v-3.6c0-0.1,0.1-0.3,0.3-0.3c0.1,0,0.3,0.1,0.3,0.3
				v3.6C133,183.3,132.9,183.5,132.7,183.5z"/>
		</g>
		<g id="XMLID_428_">
			<path id="XMLID_429_" class="st48" d="M130.9,181.6c-0.1,0-0.3-0.1-0.3-0.3c0-0.1,0.1-0.3,0.3-0.3h3.6c0.1,0,0.3,0.1,0.3,0.3
				c0,0.1-0.1,0.3-0.3,0.3H130.9z"/>
		</g>
	</g>
	<g id="XMLID_422_" class="st6">
		<g id="XMLID_425_">
			<path id="XMLID_426_" class="st48" d="M172.7,131.1c-0.1,0-0.2-0.1-0.2-0.2v-3.4c0-0.1,0.1-0.2,0.2-0.2c0.1,0,0.2,0.1,0.2,0.2
				v3.4C173,131,172.9,131.1,172.7,131.1z"/>
		</g>
		<g id="XMLID_423_">
			<path id="XMLID_424_" class="st48" d="M171,129.4c-0.1,0-0.2-0.1-0.2-0.2c0-0.1,0.1-0.2,0.2-0.2h3.4c0.1,0,0.2,0.1,0.2,0.2
				c0,0.1-0.1,0.2-0.2,0.2H171z"/>
		</g>
	</g>
	<g id="XMLID_302_" class="st6">
		<g id="XMLID_305_">
			<path id="XMLID_306_" class="st48" d="M129.8,125.1c-0.1,0-0.2-0.1-0.2-0.2v-3.4c0-0.1,0.1-0.2,0.2-0.2c0.1,0,0.2,0.1,0.2,0.2
				v3.4C130,125,129.9,125.1,129.8,125.1z"/>
		</g>
		<g id="XMLID_303_">
			<path id="XMLID_304_" class="st48" d="M128.1,123.5c-0.1,0-0.2-0.1-0.2-0.2c0-0.1,0.1-0.2,0.2-0.2h3.4c0.1,0,0.2,0.1,0.2,0.2
				c0,0.1-0.1,0.2-0.2,0.2H128.1z"/>
		</g>
	</g>
	<g id="XMLID_272_" class="st6">
		<path id="XMLID_273_" class="st48" d="M115.1,167.8c-0.2,0-0.3-0.2-0.3-0.3c0-0.2,0.2-0.3,0.3-0.3c0.2,0,0.3,0.2,0.3,0.3
			C115.5,167.6,115.3,167.8,115.1,167.8z M113.8,167.2c-0.1,0-0.1,0-0.2-0.1l0,0h0l0,0c-0.1-0.1-0.1-0.3,0-0.5
			c0.1-0.1,0.2-0.1,0.2-0.1c0.1,0,0.2,0,0.2,0.1c0.1,0.1,0.1,0.3,0,0.5C113.9,167.2,113.9,167.2,113.8,167.2z M116.5,167.2
			c-0.1,0-0.2,0-0.2-0.1c-0.1-0.1-0.1-0.3,0-0.5c0.1-0.1,0.2-0.1,0.2-0.1c0.1,0,0.2,0,0.2,0.1c0.1,0.1,0.1,0.2,0.1,0.2
			c0,0.1,0,0.2-0.1,0.2C116.7,167.2,116.6,167.2,116.5,167.2z M113.2,165.9c-0.2,0-0.3-0.2-0.3-0.3c0-0.2,0.2-0.3,0.3-0.3
			c0.2,0,0.3,0.2,0.3,0.3C113.5,165.7,113.4,165.9,113.2,165.9z M117.1,165.9c-0.2,0-0.3-0.2-0.3-0.3c0-0.2,0.2-0.3,0.3-0.3
			c0.2,0,0.3,0.2,0.3,0.3C117.4,165.7,117.3,165.9,117.1,165.9z M113.8,164.5c-0.1,0-0.2,0-0.2-0.1c-0.1-0.1-0.1-0.3,0-0.5
			c0.1-0.1,0.1-0.1,0.2-0.1c0.1,0,0.2,0,0.2,0.1c0.1,0.1,0.1,0.1,0.1,0.2c0,0.1,0,0.2-0.1,0.2C113.9,164.5,113.9,164.5,113.8,164.5z
			 M116.5,164.5c-0.1,0-0.2,0-0.2-0.1c-0.1-0.1-0.1-0.4,0-0.5c0.1-0.1,0.2-0.1,0.2-0.1c0.1,0,0.2,0,0.2,0.1c0.1,0.1,0.1,0.3,0,0.5
			C116.7,164.5,116.6,164.5,116.5,164.5z M115.1,163.9c-0.2,0-0.3-0.2-0.3-0.3c0-0.2,0.2-0.3,0.3-0.3s0.3,0.2,0.3,0.3
			C115.5,163.8,115.3,163.9,115.1,163.9z"/>
	</g>
	<g id="XMLID_80_" class="st6">
		<path id="XMLID_81_" class="st49" d="M176.9,178.1c-0.2,0-0.3-0.2-0.3-0.3c0-0.2,0.2-0.3,0.3-0.3c0.2,0,0.3,0.2,0.3,0.3
			C177.3,177.9,177.1,178.1,176.9,178.1z M175.6,177.5c-0.1,0-0.1,0-0.2-0.1l0,0h0l0,0c-0.1-0.1-0.1-0.3,0-0.5
			c0.1-0.1,0.2-0.1,0.2-0.1c0.1,0,0.2,0,0.2,0.1c0.1,0.1,0.1,0.3,0,0.5C175.7,177.5,175.6,177.5,175.6,177.5z M178.3,177.5
			c-0.1,0-0.2,0-0.2-0.1c-0.1-0.1-0.1-0.3,0-0.5c0.1-0.1,0.2-0.1,0.2-0.1c0.1,0,0.2,0,0.2,0.1c0.1,0.1,0.1,0.2,0.1,0.2
			c0,0.1,0,0.2-0.1,0.2C178.5,177.5,178.4,177.5,178.3,177.5z M175,176.2c-0.2,0-0.3-0.2-0.3-0.3c0-0.2,0.2-0.3,0.3-0.3
			c0.2,0,0.3,0.2,0.3,0.3C175.3,176,175.2,176.2,175,176.2z M178.9,176.2c-0.2,0-0.3-0.2-0.3-0.3c0-0.2,0.2-0.3,0.3-0.3
			c0.2,0,0.3,0.2,0.3,0.3C179.2,176,179,176.2,178.9,176.2z M175.6,174.8c-0.1,0-0.2,0-0.2-0.1c-0.1-0.1-0.1-0.3,0-0.5
			c0.1-0.1,0.1-0.1,0.2-0.1c0.1,0,0.2,0,0.2,0.1c0.1,0.1,0.1,0.1,0.1,0.2c0,0.1,0,0.2-0.1,0.2C175.7,174.8,175.6,174.8,175.6,174.8z
			 M178.3,174.8c-0.1,0-0.2,0-0.2-0.1c-0.1-0.1-0.1-0.4,0-0.5c0.1-0.1,0.2-0.1,0.2-0.1c0.1,0,0.2,0,0.2,0.1c0.1,0.1,0.1,0.3,0,0.5
			C178.5,174.7,178.4,174.8,178.3,174.8z M176.9,174.2c-0.2,0-0.3-0.2-0.3-0.3c0-0.2,0.2-0.3,0.3-0.3c0.2,0,0.3,0.2,0.3,0.3
			C177.3,174.1,177.1,174.2,176.9,174.2z"/>
	</g>
	<g id="XMLID_170_" class="st6">
		<g id="XMLID_77_">
			<path id="XMLID_78_" class="st48" d="M187.4,140.4c-0.1,0-0.2-0.1-0.2-0.2v-1.3c0-0.1,0.1-0.2,0.2-0.2c0.1,0,0.2,0.1,0.2,0.2v1.3
				C187.6,140.3,187.5,140.4,187.4,140.4z"/>
		</g>
		<g id="XMLID_74_">
			<path id="XMLID_76_" class="st48" d="M186.2,140.7c-0.1,0-0.1,0-0.2-0.1l-0.9-0.9c0,0-0.1-0.1-0.1-0.2c0-0.1,0-0.1,0.1-0.2
				c0,0,0.1-0.1,0.2-0.1c0.1,0,0.1,0,0.2,0.1l0.9,0.9c0.1,0.1,0.1,0.2,0,0.3C186.3,140.7,186.3,140.7,186.2,140.7z"/>
		</g>
		<g id="XMLID_228_">
			<path id="XMLID_73_" class="st48" d="M184.4,141.8c-0.1,0-0.2-0.1-0.2-0.2s0.1-0.2,0.2-0.2h1.3c0.1,0,0.2,0.1,0.2,0.2
				s-0.1,0.2-0.2,0.2H184.4z"/>
		</g>
		<g id="XMLID_226_">
			<path id="XMLID_227_" class="st48" d="M185.2,143.9c-0.1,0-0.1,0-0.2-0.1c0,0-0.1-0.1-0.1-0.2c0-0.1,0-0.1,0.1-0.2l0.9-0.9
				c0,0,0.1-0.1,0.2-0.1c0.1,0,0.1,0,0.2,0.1c0.1,0.1,0.1,0.2,0,0.3l-0.9,0.9C185.3,143.8,185.2,143.9,185.2,143.9z"/>
		</g>
		<g id="XMLID_71_">
			<path id="XMLID_225_" class="st48" d="M187.2,144.8c-0.1,0-0.2-0.1-0.2-0.2v-1.3c0-0.1,0.1-0.2,0.2-0.2c0.1,0,0.2,0.1,0.2,0.2
				v1.3C187.4,144.7,187.3,144.8,187.2,144.8z"/>
		</g>
		<g id="XMLID_197_">
			<path id="XMLID_69_" class="st48" d="M189.2,144c-0.1,0-0.1,0-0.2-0.1l-0.9-0.9c0,0-0.1-0.1-0.1-0.2c0-0.1,0-0.1,0.1-0.2
				c0,0,0.1-0.1,0.2-0.1c0.1,0,0.1,0,0.2,0.1l0.9,0.9c0,0,0.1,0.1,0.1,0.2s0,0.1-0.1,0.2C189.3,144,189.3,144,189.2,144z"/>
		</g>
		<g id="XMLID_195_">
			<path id="XMLID_196_" class="st48" d="M188.8,142c-0.1,0-0.2-0.1-0.2-0.2c0-0.1,0.1-0.2,0.2-0.2h1.3c0.1,0,0.2,0.1,0.2,0.2
				c0,0.1-0.1,0.2-0.2,0.2H188.8z"/>
		</g>
		<g id="XMLID_188_">
			<path id="XMLID_191_" class="st48" d="M188.4,140.9c-0.1,0-0.1,0-0.2-0.1c0,0-0.1-0.1-0.1-0.2c0-0.1,0-0.1,0.1-0.2l0.9-0.9
				c0,0,0.1-0.1,0.2-0.1c0.1,0,0.1,0,0.2,0.1c0.1,0.1,0.1,0.2,0,0.3l-0.9,0.9C188.5,140.9,188.5,140.9,188.4,140.9z"/>
		</g>
	</g>
</g>
<g id="Layer_7">
	<circle id="XMLID_1309_" class="st12" cx="150.3" cy="150.2" r="48.4"/>
	<g id="XMLID_101_">
		<g id="XMLID_332_">
			<g id="XMLID_359_">
				<g id="XMLID_360_">
					<circle id="XMLID_361_" class="st7" cx="122.5" cy="144.8" r="10.8"/>
				</g>
			</g>
			<g id="XMLID_352_">
				<g id="XMLID_353_">
					<g id="XMLID_355_">
						<path id="XMLID_356_" class="st22" d="M122.5,154.2c-5.2,0-9.4-4.2-9.4-9.4c0-5.2,4.2-9.4,9.4-9.4c5.2,0,9.4,4.2,9.4,9.4
							C131.8,150,127.6,154.2,122.5,154.2z M122.5,136.6c-4.5,0-8.2,3.7-8.2,8.2c0,4.5,3.7,8.2,8.2,8.2c4.5,0,8.2-3.7,8.2-8.2
							C130.7,140.3,127,136.6,122.5,136.6z"/>
					</g>
				</g>
			</g>
			<g id="XMLID_341_">
				<g id="XMLID_466_">
					<g id="XMLID_496_" class="st37">
						<defs>
							<rect id="XMLID_567_" x="119.9" y="140.2" class="st37" width="6.5" height="9.2"/>
						</defs>
						<clipPath id="XMLID_340_">
							<use xlink:href="#XMLID_567_"  style="overflow:visible;"/>
						</clipPath>
						<g id="XMLID_527_" class="st50">
							<g id="XMLID_536_">
								<g id="XMLID_537_">
									<g id="XMLID_538_">
										<g id="XMLID_539_">
											<defs>
												<polyline id="XMLID_566_" points="119.9,149.4 119.9,140.2 126.3,140.2 126.3,149.4 119.9,149.4 												"/>
											</defs>
											<clipPath id="XMLID_362_">
												<use xlink:href="#XMLID_566_"  style="overflow:visible;"/>
											</clipPath>
											<path id="XMLID_564_" class="st51" d="M126.3,140.2l-1.1,0l-1.8,0c-0.9,0-2,0-3.2,0v0.6c0,0.5,0,1.4-0.1,2.6
												c0,1.7-0.1,3-0.1,3.9c0,0.5-0.1,1.3-0.2,2.1c0.7,0,1,0,1.1,0l1,0v-0.4l0-0.6l0.1-3c0.6,0,1.2,0,1.8,0c0.4,0,1,0,1.8,0
												c0-0.4,0-0.9,0.1-1.4l-0.9,0c-0.2,0-0.8,0-1.6,0l-1.1,0l0.1-2.4h1.3h1h0.5h0.4l0.9,0
												C126.3,141.4,126.3,140.9,126.3,140.2"/>
										</g>
									</g>
								</g>
							</g>
						</g>
					</g>
				</g>
			</g>
		</g>
		<g id="XMLID_327_">
			<g id="XMLID_328_">
				<circle id="XMLID_330_" class="st7" cx="107.2" cy="145.6" r="10.8"/>
			</g>
		</g>
		<g id="XMLID_321_">
			<g id="XMLID_322_">
				<g id="XMLID_323_">
					<path id="XMLID_324_" class="st22" d="M107.2,155c-5.2,0-9.4-4.2-9.4-9.4c0-5.2,4.2-9.4,9.4-9.4c5.2,0,9.4,4.2,9.4,9.4
						C116.6,150.8,112.4,155,107.2,155z M107.2,137.4c-4.5,0-8.2,3.7-8.2,8.2c0,4.5,3.7,8.2,8.2,8.2s8.2-3.7,8.2-8.2
						C115.4,141.1,111.7,137.4,107.2,137.4z"/>
				</g>
			</g>
		</g>
		<g id="XMLID_318_">
			<g id="XMLID_459_">
				<g id="XMLID_478_" class="st37">
					<defs>
						<rect id="XMLID_549_" x="104.6" y="141" class="st37" width="6.5" height="9.2"/>
					</defs>
					<clipPath id="XMLID_363_">
						<use xlink:href="#XMLID_549_"  style="overflow:visible;"/>
					</clipPath>
					<g id="XMLID_505_" class="st52">
						<g id="XMLID_506_">
							<g id="XMLID_512_">
								<g id="XMLID_518_">
									<g id="XMLID_519_">
										<defs>
											<polyline id="XMLID_546_" points="104.6,150.2 104.6,141 111.1,141 111.1,150.2 104.6,150.2 											"/>
										</defs>
										<clipPath id="XMLID_364_">
											<use xlink:href="#XMLID_546_"  style="overflow:visible;"/>
										</clipPath>
										<path id="XMLID_543_" class="st53" d="M111.1,141l-1.1,0l-1.8,0c-0.9,0-2,0-3.2,0v0.6c0,0.5,0,1.4-0.1,2.6
											c-0.1,1.7-0.1,3-0.1,3.8c0,0.5-0.1,1.3-0.2,2.1c0.7,0,1,0,1.1,0l1,0v-0.3l0-0.6l0.1-3c0.6,0,1.2,0,1.8,0c0.4,0,1,0,1.8,0
											c0-0.4,0-0.9,0.1-1.4l-0.9,0c-0.2,0-0.8,0-1.6,0l-1.1,0l0.1-2.4l1.3,0h1h0.5l0.4,0l0.9,0C111,142.2,111,141.7,111.1,141"
											/>
									</g>
								</g>
							</g>
						</g>
					</g>
				</g>
			</g>
		</g>
		<g id="XMLID_189_">
			<g id="XMLID_311_">
				<g id="XMLID_312_">
					<circle id="XMLID_313_" class="st7" cx="106.4" cy="134.2" r="10.8"/>
				</g>
			</g>
			<g id="XMLID_289_">
				<g id="XMLID_290_">
					<g id="XMLID_291_">
						<path id="XMLID_292_" class="st22" d="M106.4,143.5c-5.2,0-9.4-4.2-9.4-9.4c0-5.2,4.2-9.4,9.4-9.4c5.2,0,9.4,4.2,9.4,9.4
							C115.8,139.3,111.6,143.5,106.4,143.5z M106.4,126c-4.5,0-8.2,3.7-8.2,8.2c0,4.5,3.7,8.2,8.2,8.2s8.2-3.7,8.2-8.2
							C114.6,129.7,110.9,126,106.4,126z"/>
					</g>
				</g>
			</g>
			<g id="XMLID_270_">
				<g id="XMLID_452_">
					<g id="XMLID_467_" class="st37">
						<defs>
							<rect id="XMLID_534_" x="103.8" y="129.6" class="st37" width="6.5" height="9.2"/>
						</defs>
						<clipPath id="XMLID_365_">
							<use xlink:href="#XMLID_534_"  style="overflow:visible;"/>
						</clipPath>
						<g id="XMLID_479_" class="st54">
							<g id="XMLID_481_">
								<g id="XMLID_482_">
									<g id="XMLID_492_">
										<g id="XMLID_493_">
											<defs>
												<polyline id="XMLID_533_" points="103.8,138.8 103.8,129.6 110.3,129.6 110.3,138.8 103.8,138.8 												"/>
											</defs>
											<clipPath id="XMLID_366_">
												<use xlink:href="#XMLID_533_"  style="overflow:visible;"/>
											</clipPath>
											<path id="XMLID_531_" class="st55" d="M110.3,129.6l-1.1,0l-1.8,0c-0.9,0-2,0-3.2,0v0.6c0,0.5,0,1.4-0.1,2.6
												c-0.1,1.7-0.1,3-0.1,3.9c0,0.5-0.1,1.3-0.2,2.1c0.7,0,1,0,1.1,0l1,0v-0.4l0-0.6l0.1-3c0.6,0,1.2,0,1.8,0c0.4,0,1,0,1.8,0
												c0-0.4,0-0.9,0.1-1.4l-0.9,0c-0.2,0-0.8,0-1.6,0l-1.1,0l0.1-2.4l1.3,0h1h0.5l0.4,0l0.9,0
												C110.2,130.7,110.2,130.2,110.3,129.6"/>
										</g>
									</g>
								</g>
							</g>
						</g>
					</g>
				</g>
			</g>
		</g>
		<g id="XMLID_173_">
			<g id="XMLID_185_">
				<g id="XMLID_186_">
					<circle id="XMLID_187_" class="st7" cx="115.5" cy="156.3" r="10.8"/>
				</g>
			</g>
			<g id="XMLID_180_">
				<g id="XMLID_181_">
					<g id="XMLID_234_">
						<path id="XMLID_182_" class="st22" d="M115.5,165.7c-5.2,0-9.4-4.2-9.4-9.4c0-5.2,4.2-9.4,9.4-9.4c5.2,0,9.4,4.2,9.4,9.4
							C124.8,161.5,120.6,165.7,115.5,165.7z M115.5,148.1c-4.5,0-8.2,3.7-8.2,8.2c0,4.5,3.7,8.2,8.2,8.2c4.5,0,8.2-3.7,8.2-8.2
							C123.7,151.8,120,148.1,115.5,148.1z"/>
					</g>
				</g>
			</g>
			<g id="XMLID_229_">
				<g id="XMLID_450_">
					<g id="XMLID_460_" class="st37">
						<defs>
							<rect id="XMLID_502_" x="112.9" y="151.7" class="st37" width="6.5" height="9.2"/>
						</defs>
						<clipPath id="XMLID_367_">
							<use xlink:href="#XMLID_502_"  style="overflow:visible;"/>
						</clipPath>
						<g id="XMLID_468_" class="st56">
							<g id="XMLID_474_">
								<g id="XMLID_476_">
									<g id="XMLID_498_">
										<g id="XMLID_499_">
											<defs>
												<polyline id="XMLID_501_" points="112.9,161 112.9,151.7 119.3,151.7 119.3,161 112.9,161 												"/>
											</defs>
											<clipPath id="XMLID_368_">
												<use xlink:href="#XMLID_501_"  style="overflow:visible;"/>
											</clipPath>
											<path id="XMLID_500_" class="st57" d="M119.3,151.7h-1.1l-1.8,0c-0.9,0-2,0-3.2,0v0.6c0,0.5,0,1.4-0.1,2.6
												c0,1.7-0.1,3-0.1,3.9c0,0.5-0.1,1.2-0.2,2.1c0.7,0,1,0,1.1,0l1,0v-0.3l0-0.6l0.1-3c0.6,0,1.2,0,1.8,0c0.4,0,1,0,1.8,0
												c0-0.4,0-0.9,0.1-1.4l-0.9,0c-0.2,0-0.8,0-1.6,0l-1.1,0l0.1-2.4l1.3,0h1h0.5l0.4,0l0.9,0
												C119.3,152.9,119.3,152.4,119.3,151.7"/>
										</g>
									</g>
								</g>
							</g>
						</g>
					</g>
				</g>
			</g>
		</g>
		<g id="XMLID_168_">
			<g id="XMLID_171_">
				<circle id="XMLID_172_" class="st7" cx="97.8" cy="169.7" r="10.8"/>
			</g>
		</g>
		<g id="XMLID_154_">
			<g id="XMLID_155_">
				<g id="XMLID_156_">
					<path id="XMLID_159_" class="st22" d="M97.8,179c-5.2,0-9.4-4.2-9.4-9.4c0-5.2,4.2-9.4,9.4-9.4c5.2,0,9.4,4.2,9.4,9.4
						C107.2,174.8,103,179,97.8,179z M97.8,161.5c-4.5,0-8.2,3.7-8.2,8.2c0,4.5,3.7,8.2,8.2,8.2s8.2-3.7,8.2-8.2
						C106,165.1,102.3,161.5,97.8,161.5z"/>
				</g>
			</g>
		</g>
		<g id="XMLID_162_">
			<g id="XMLID_447_">
				<g id="XMLID_453_" class="st37">
					<defs>
						<rect id="XMLID_487_" x="95.2" y="165" class="st37" width="6.5" height="9.2"/>
					</defs>
					<clipPath id="XMLID_369_">
						<use xlink:href="#XMLID_487_"  style="overflow:visible;"/>
					</clipPath>
					<g id="XMLID_461_" class="st58">
						<g id="XMLID_462_">
							<g id="XMLID_463_">
								<g id="XMLID_464_">
									<g id="XMLID_465_">
										<defs>
											<polyline id="XMLID_486_" points="95.2,174.3 95.2,165 101.7,165 101.7,174.3 95.2,174.3 											"/>
										</defs>
										<clipPath id="XMLID_370_">
											<use xlink:href="#XMLID_486_"  style="overflow:visible;"/>
										</clipPath>
										<path id="XMLID_483_" class="st59" d="M101.7,165l-1.1,0l-1.8,0c-0.9,0-2,0-3.2,0v0.6c0,0.5,0,1.4-0.1,2.6
											c0,1.7-0.1,3-0.1,3.9c0,0.5-0.1,1.2-0.2,2.1c0.7,0,1,0,1.1,0l1,0v-0.3l0-0.6l0.1-3c0.6,0,1.2,0,1.8,0c0.4,0,1,0,1.8,0
											c0-0.4,0-0.9,0.1-1.4l-0.9,0c-0.2,0-0.8,0-1.6,0l-1.1,0l0.1-2.4l1.3,0h1h0.5l0.4,0l0.9,0
											C101.6,166.2,101.6,165.7,101.7,165"/>
									</g>
								</g>
							</g>
						</g>
					</g>
				</g>
			</g>
		</g>
		<g id="XMLID_107_">
			<g id="XMLID_145_">
				<g id="XMLID_146_">
					<circle id="XMLID_148_" class="st7" cx="94.7" cy="148.8" r="10.8"/>
				</g>
			</g>
			<g id="XMLID_136_">
				<g id="XMLID_137_">
					<g id="XMLID_138_">
						<path id="XMLID_140_" class="st22" d="M94.7,158.1c-5.2,0-9.4-4.2-9.4-9.4c0-5.2,4.2-9.4,9.4-9.4c5.2,0,9.4,4.2,9.4,9.4
							C104,153.9,99.8,158.1,94.7,158.1z M94.7,140.6c-4.5,0-8.2,3.7-8.2,8.2c0,4.5,3.7,8.2,8.2,8.2c4.5,0,8.2-3.7,8.2-8.2
							C102.9,144.2,99.2,140.6,94.7,140.6z"/>
					</g>
				</g>
			</g>
			<g id="XMLID_125_">
				<g id="XMLID_446_">
					<g id="XMLID_451_" class="st37">
						<defs>
							<rect id="XMLID_472_" x="92.1" y="144.2" class="st37" width="6.5" height="9.2"/>
						</defs>
						<clipPath id="XMLID_371_">
							<use xlink:href="#XMLID_472_"  style="overflow:visible;"/>
						</clipPath>
						<g id="XMLID_454_" class="st60">
							<g id="XMLID_455_">
								<g id="XMLID_456_">
									<g id="XMLID_457_">
										<g id="XMLID_458_">
											<defs>
												<polyline id="XMLID_471_" points="92.1,153.4 92.1,144.2 98.5,144.2 98.5,153.4 92.1,153.4 												"/>
											</defs>
											<clipPath id="XMLID_372_">
												<use xlink:href="#XMLID_471_"  style="overflow:visible;"/>
											</clipPath>
											<path id="XMLID_469_" class="st61" d="M98.5,144.2l-1.1,0l-1.8,0c-0.9,0-2,0-3.2,0v0.6c0,0.5,0,1.4-0.1,2.6
												c0,1.7-0.1,3-0.1,3.9c0,0.5-0.1,1.3-0.2,2.1c0.7,0,1,0,1.1,0l1,0V153l0-0.6l0.1-3c0.6,0,1.2,0,1.8,0c0.4,0,1,0,1.8,0
												c0-0.4,0-0.9,0.1-1.4l-0.9,0c-0.2,0-0.8,0-1.6,0l-1.1,0l0.1-2.4l1.3,0h1h0.5l0.4,0l0.9,0
												C98.5,145.3,98.5,144.8,98.5,144.2"/>
										</g>
									</g>
								</g>
							</g>
						</g>
					</g>
				</g>
			</g>
		</g>
	</g>
	<path id="XMLID_1132_" class="st35" d="M139.7,162.6h43.8v43.8h-43.8V162.6z"/>
	<g id="XMLID_718_">
		<g id="XMLID_890_">
			<g id="XMLID_1029_">
				<g id="XMLID_1030_" class="st37">
					<defs>
						<polygon id="XMLID_1031_" class="st37" points="181.1,171.5 170.3,159.6 218.2,148.8 229.1,160.7 						"/>
					</defs>
					<clipPath id="XMLID_373_">
						<use xlink:href="#XMLID_1031_"  style="overflow:visible;"/>
					</clipPath>
					<g id="XMLID_1032_" class="st62">
						<path id="XMLID_1049_" class="st63" d="M196.5,162.8l-1,0.2l1.8,2l4.9-1.1C200.4,164.1,198.2,163.7,196.5,162.8 M206.6,160.5
							l-0.9,0.2c0.3,1.2-0.5,2.3-2.1,2.9l4.8-1.1L206.6,160.5 M189.5,158.1l-12.4,2.8l6.6,7.2l12.4-2.8l-1.8-2l-4,0.9
							c-0.7,0.2-1.6,0-2-0.4l-1.6-1.8c-0.4-0.4-0.1-0.8,0.7-1l4-0.9L189.5,158.1 M195.7,156.7l-4.9,1.1l1.8,2l1-0.2
							C193.4,158.4,194.1,157.3,195.7,156.7 M201.8,155.4l-4.8,1.1c1.9-0.2,4,0.2,5.8,1.1l0.9-0.2L201.8,155.4 M215.7,152.2
							l-12.5,2.8l1.8,2l4.2-0.9c0.7-0.2,1.6,0,2,0.4l1.6,1.8c0.4,0.4,0.1,0.8-0.7,1l-4.2,0.9l1.8,2l12.5-2.8L215.7,152.2 M199.7,153
							l-11,2.5l1.1,1.2l11-2.5L199.7,153 M216.4,149.2l-15.4,3.5l1.1,1.2l12.8-2.9c1-0.2,2.2,0,2.7,0.6l6.8,7.5
							c0.5,0.5,0.1,1.1-0.9,1.4l-12.8,2.9l1.1,1.2l-1.3,0.3l-1.1-1.2l-11,2.5l1.1,1.2l-1.3,0.3l-1.1-1.2l-12.7,2.9
							c-1,0.2-2.2,0-2.7-0.6l-6.8-7.5c-0.5-0.5-0.1-1.1,0.9-1.4l12.7-2.9l-1.1-1.2l-15.3,3.4c-1,0.2-1.4,0.8-0.9,1.4l9.1,9.9
							c0.5,0.5,1.7,0.8,2.7,0.6l44.3-10c1-0.2,1.4-0.8,0.9-1.4l-9.1-9.9C218.6,149.3,217.4,149,216.4,149.2"/>
						<path id="XMLID_1044_" class="st64" d="M208.4,162.5l-4.8,1.1c-0.2,0.1-0.4,0.1-0.7,0.2c-0.2,0.1-0.5,0.1-0.7,0.1l-4.9,1.1
							l1,1.1l11-2.5L208.4,162.5 M188.5,157l-12.7,2.9c-1,0.2-1.4,0.8-0.9,1.4l6.8,7.5c0.5,0.5,1.7,0.8,2.7,0.6l12.7-2.9l-1-1.1
							l-12.4,2.8l-6.6-7.2l12.4-2.8L188.5,157 M200.8,154.2l-11,2.5l1,1.1l4.9-1.1c0.2-0.1,0.4-0.1,0.6-0.2c0.2-0.1,0.5-0.1,0.7-0.1
							l4.8-1.1L200.8,154.2 M214.9,151.1l-12.8,2.9l1,1.1l12.5-2.8l6.6,7.2l-12.5,2.8l1,1.1l12.8-2.9c1-0.2,1.4-0.8,0.9-1.4
							l-6.8-7.5C217.1,151.1,215.9,150.8,214.9,151.1"/>
						<path id="XMLID_1039_" class="st64" d="M191.3,160.1l-4,0.9c-0.7,0.2-1,0.6-0.7,1l1.6,1.8c0.4,0.4,1.2,0.6,2,0.4l4-0.9
							L191.3,160.1 M193.6,159.6l-1,0.2l2.9,3.2l1-0.2c-0.8-0.4-1.4-0.9-2-1.5C194,160.7,193.7,160.2,193.6,159.6 M203.7,157.3
							l-0.9,0.2c0.8,0.4,1.4,0.9,2,1.5c0.5,0.6,0.8,1.2,1,1.7l0.9-0.2L203.7,157.3 M209.1,156.1l-4.2,0.9l2.9,3.2l4.2-0.9
							c0.7-0.2,1-0.6,0.7-1l-1.6-1.8C210.7,156.1,209.8,156,209.1,156.1"/>
						<path id="XMLID_1038_" class="st64" d="M197,157.2c-2.1,0.5-2.6,2.2-1.1,3.8c1.5,1.6,4.4,2.5,6.5,2.1c2.1-0.5,2.6-2.2,1.1-3.8
							C202,157.7,199.1,156.8,197,157.2"/>
						<path id="XMLID_1035_" class="st63" d="M195.9,161c-1.5-1.6-1-3.3,1.1-3.8c2.1-0.5,5,0.4,6.5,2.1c1.5,1.6,1,3.3-1.1,3.8
							C200.2,163.6,197.3,162.6,195.9,161 M196.4,156.6c-0.2,0.1-0.4,0.1-0.6,0.2c-1.6,0.6-2.4,1.6-2.1,2.9c0.1,0.5,0.4,1.1,1,1.7
							c0.5,0.6,1.2,1.1,2,1.5c1.7,0.9,3.8,1.3,5.7,1.1c0.2,0,0.5-0.1,0.7-0.1c0.2-0.1,0.5-0.1,0.7-0.2c1.6-0.6,2.3-1.6,2.1-2.9
							c-0.1-0.5-0.4-1.1-1-1.7c-0.5-0.6-1.2-1.1-2-1.5c-1.7-0.9-3.9-1.3-5.8-1.1C196.8,156.5,196.6,156.5,196.4,156.6"/>
						<polyline id="XMLID_1034_" class="st65" points="188.6,155.5 187.3,155.8 188.5,157 189.5,158.1 191.3,160.1 194.2,163.3
							196.1,165.3 197.1,166.4 198.2,167.6 199.5,167.4 198.4,166.1 197.4,165 195.5,163 192.6,159.8 190.8,157.8 189.8,156.7
							188.6,155.5 						"/>
						<polyline id="XMLID_1033_" class="st65" points="201,152.7 199.7,153 200.8,154.2 201.8,155.4 203.7,157.3 206.6,160.5
							208.4,162.5 209.4,163.6 210.6,164.9 211.9,164.6 210.7,163.3 209.7,162.2 207.9,160.2 205,157.1 203.1,155.1 202.1,153.9
							201,152.7 						"/>
					</g>
				</g>
			</g>
			<g id="XMLID_1000_">
				<g id="XMLID_1001_" class="st37">
					<defs>
						<polygon id="XMLID_1002_" class="st37" points="181.1,169.9 170.3,158.1 218.2,147.2 229.1,159.1 						"/>
					</defs>
					<clipPath id="XMLID_374_">
						<use xlink:href="#XMLID_1002_"  style="overflow:visible;"/>
					</clipPath>
					<g id="XMLID_1003_" class="st66">
						<path id="XMLID_1020_" class="st63" d="M196.5,161.2l-1,0.2l1.8,2l4.9-1.1C200.4,162.5,198.2,162.1,196.5,161.2 M206.6,158.9
							l-0.9,0.2c0.3,1.2-0.5,2.3-2.1,2.9l4.8-1.1L206.6,158.9 M189.5,156.5l-12.4,2.8l6.6,7.2l12.4-2.8l-1.8-2l-4,0.9
							c-0.7,0.2-1.6,0-2-0.4l-1.6-1.8c-0.4-0.4-0.1-0.8,0.7-1l4-0.9L189.5,156.5 M195.7,155.2l-4.9,1.1l1.8,2l1-0.2
							C193.4,156.8,194.1,155.7,195.7,155.2 M201.8,153.8l-4.8,1.1c1.9-0.2,4,0.2,5.7,1.1l0.9-0.2L201.8,153.8 M215.7,150.6
							l-12.5,2.8l1.8,2l4.2-0.9c0.7-0.2,1.6,0,2,0.4l1.6,1.8c0.4,0.4,0.1,0.8-0.7,1l-4.2,0.9l1.8,2l12.5-2.8L215.7,150.6
							 M199.7,151.4l-11,2.5l1.1,1.2l11-2.5L199.7,151.4 M216.4,147.6l-15.4,3.5l1.1,1.2l12.8-2.9c1-0.2,2.2,0,2.7,0.6l6.8,7.5
							c0.5,0.5,0.1,1.1-0.9,1.4l-12.8,2.9l1.1,1.2l-1.3,0.3l-1.1-1.2l-11,2.5l1.1,1.2l-1.3,0.3l-1.1-1.2l-12.7,2.9
							c-1,0.2-2.2,0-2.7-0.6l-6.8-7.5c-0.5-0.5-0.1-1.1,0.9-1.4l12.7-2.9l-1.1-1.2l-15.3,3.4c-1,0.2-1.4,0.8-0.9,1.4l9.1,9.9
							c0.5,0.5,1.7,0.8,2.7,0.6l44.3-10c1-0.2,1.4-0.8,0.9-1.4l-9.1-9.9C218.6,147.7,217.4,147.4,216.4,147.6"/>
						<path id="XMLID_1015_" class="st64" d="M208.4,160.9l-4.8,1.1c-0.2,0.1-0.4,0.1-0.6,0.2c-0.2,0.1-0.5,0.1-0.7,0.1l-4.9,1.1
							l1,1.1l11-2.5L208.4,160.9 M188.5,155.4l-12.7,2.9c-1,0.2-1.4,0.8-0.9,1.4l6.8,7.5c0.5,0.5,1.7,0.8,2.7,0.6l12.7-2.9l-1-1.1
							l-12.4,2.8l-6.6-7.2l12.4-2.8L188.5,155.4 M200.8,152.7l-11,2.5l1,1.1l4.9-1.1c0.2-0.1,0.4-0.1,0.7-0.2
							c0.2-0.1,0.5-0.1,0.7-0.1l4.8-1.1L200.8,152.7 M214.9,149.5l-12.8,2.9l1,1.1l12.5-2.8l6.6,7.2l-12.5,2.8l1,1.1l12.8-2.9
							c1-0.2,1.4-0.8,0.9-1.4l-6.8-7.5C217.1,149.5,215.9,149.2,214.9,149.5"/>
						<path id="XMLID_1010_" class="st64" d="M191.3,158.5l-4,0.9c-0.7,0.2-1,0.6-0.7,1l1.6,1.8c0.4,0.4,1.2,0.6,2,0.4l4-0.9
							L191.3,158.5 M193.6,158l-1,0.2l2.9,3.2l1-0.2c-0.8-0.4-1.4-0.9-2-1.5C194,159.2,193.7,158.6,193.6,158 M203.7,155.8l-0.9,0.2
							c0.8,0.4,1.4,0.9,2,1.5c0.5,0.6,0.8,1.2,1,1.7l0.9-0.2L203.7,155.8 M209.1,154.5l-4.2,0.9l2.9,3.2l4.2-0.9
							c0.7-0.2,1-0.6,0.7-1l-1.6-1.8C210.7,154.5,209.9,154.4,209.1,154.5"/>
						<path id="XMLID_1009_" class="st64" d="M197,155.7c-2.1,0.5-2.6,2.2-1.1,3.8c1.5,1.6,4.4,2.5,6.5,2.1c2.1-0.5,2.6-2.2,1.1-3.8
							C202,156.1,199.1,155.2,197,155.7"/>
						<path id="XMLID_1006_" class="st63" d="M195.9,159.4c-1.5-1.6-1-3.3,1.1-3.8c2.1-0.5,5,0.5,6.5,2.1c1.5,1.6,1,3.3-1.1,3.8
							C200.2,162,197.3,161,195.9,159.4 M196.4,155c-0.2,0.1-0.5,0.1-0.7,0.2c-1.6,0.6-2.3,1.6-2.1,2.9c0.1,0.5,0.4,1.1,1,1.7
							c0.5,0.6,1.2,1.1,2,1.5c1.7,0.9,3.9,1.3,5.8,1.1c0.2,0,0.5-0.1,0.7-0.1c0.2-0.1,0.4-0.1,0.6-0.2c1.6-0.6,2.4-1.6,2.1-2.9
							c-0.1-0.5-0.4-1.1-1-1.7c-0.5-0.6-1.2-1.1-2-1.5c-1.7-0.9-3.8-1.3-5.7-1.1C196.8,154.9,196.6,154.9,196.4,155"/>
						<polyline id="XMLID_1005_" class="st65" points="188.6,153.9 187.3,154.2 188.5,155.4 189.5,156.5 191.3,158.5 194.2,161.7
							196.1,163.7 197.1,164.8 198.2,166.1 199.5,165.8 198.4,164.5 197.4,163.4 195.5,161.4 192.6,158.3 190.8,156.3 189.8,155.1
							188.6,153.9 						"/>
						<polyline id="XMLID_1004_" class="st65" points="201,151.1 199.7,151.4 200.8,152.7 201.8,153.8 203.7,155.8 206.6,158.9
							208.4,160.9 209.4,162 210.6,163.3 211.9,163 210.7,161.7 209.7,160.6 207.9,158.6 205,155.5 203.1,153.5 202.1,152.4
							201,151.1 						"/>
					</g>
				</g>
			</g>
			<g id="XMLID_971_">
				<g id="XMLID_972_" class="st37">
					<defs>
						<polygon id="XMLID_973_" class="st37" points="181.1,168.3 170.3,156.5 218.2,145.7 229.1,157.5 						"/>
					</defs>
					<clipPath id="XMLID_375_">
						<use xlink:href="#XMLID_973_"  style="overflow:visible;"/>
					</clipPath>
					<g id="XMLID_974_" class="st67">
						<path id="XMLID_991_" class="st63" d="M196.5,159.6l-1,0.2l1.8,2l4.9-1.1C200.4,161,198.2,160.5,196.5,159.6 M206.6,157.3
							l-0.9,0.2c0.3,1.2-0.5,2.3-2.1,2.9l4.8-1.1L206.6,157.3 M189.5,155l-12.4,2.8l6.6,7.2l12.4-2.8l-1.8-2l-4,0.9
							c-0.7,0.2-1.6,0-2-0.4l-1.6-1.8c-0.4-0.4-0.1-0.8,0.7-1l4-0.9L189.5,155 M195.7,153.6l-4.9,1.1l1.8,2l1-0.2
							C193.4,155.2,194.1,154.1,195.7,153.6 M201.8,152.2l-4.8,1.1c1.9-0.2,4,0.2,5.7,1.1l0.9-0.2L201.8,152.2 M215.7,149.1
							l-12.5,2.8l1.8,2l4.2-0.9c0.7-0.2,1.6,0,2,0.4l1.6,1.8c0.4,0.4,0.1,0.8-0.7,1l-4.2,0.9l1.8,2l12.5-2.8L215.7,149.1
							 M199.7,149.8l-11,2.5l1.1,1.2l11-2.5L199.7,149.8 M216.4,146.1l-15.4,3.5l1.1,1.2l12.8-2.9c1-0.2,2.2,0,2.7,0.6l6.8,7.5
							c0.5,0.5,0.1,1.1-0.9,1.4l-12.8,2.9l1.1,1.2l-1.3,0.3l-1.1-1.2l-11,2.5l1.1,1.2l-1.3,0.3l-1.1-1.2l-12.7,2.9
							c-1,0.2-2.2,0-2.7-0.6l-6.8-7.5c-0.5-0.5-0.1-1.1,0.9-1.4l12.7-2.9l-1.1-1.2l-15.3,3.4c-1,0.2-1.4,0.8-0.9,1.4l9.1,9.9
							c0.5,0.5,1.7,0.8,2.7,0.6l44.3-10c1-0.2,1.4-0.8,0.9-1.4l-9.1-9.9C218.6,146.1,217.4,145.8,216.4,146.1"/>
						<path id="XMLID_986_" class="st64" d="M208.4,159.3l-4.8,1.1c-0.2,0.1-0.4,0.1-0.7,0.2c-0.2,0.1-0.5,0.1-0.7,0.1l-4.9,1.1
							l1,1.1l11-2.5L208.4,159.3 M188.5,153.9l-12.7,2.9c-1,0.2-1.4,0.8-0.9,1.4l6.8,7.5c0.5,0.5,1.7,0.8,2.7,0.6l12.7-2.9l-1-1.1
							l-12.4,2.8l-6.6-7.2l12.4-2.8L188.5,153.9 M200.8,151.1l-11,2.5l1,1.1l4.9-1.1c0.2-0.1,0.4-0.1,0.7-0.2
							c0.2-0.1,0.5-0.1,0.7-0.1l4.8-1.1L200.8,151.1 M214.9,147.9l-12.8,2.9l1,1.1l12.5-2.8l6.6,7.2l-12.5,2.8l1,1.1l12.8-2.9
							c1-0.2,1.4-0.8,0.9-1.4l-6.8-7.5C217.1,147.9,215.9,147.7,214.9,147.9"/>
						<path id="XMLID_981_" class="st64" d="M191.3,157l-4,0.9c-0.7,0.2-1,0.6-0.7,1l1.6,1.8c0.4,0.4,1.2,0.6,2,0.4l4-0.9L191.3,157
							 M193.6,156.4l-1,0.2l2.9,3.2l1-0.2c-0.8-0.4-1.4-0.9-2-1.5C194,157.6,193.7,157,193.6,156.4 M203.7,154.2l-0.9,0.2
							c0.8,0.4,1.4,0.9,2,1.5c0.5,0.6,0.8,1.2,1,1.7l0.9-0.2L203.7,154.2 M209.1,152.9l-4.2,0.9l2.9,3.2l4.2-0.9
							c0.7-0.2,1-0.6,0.7-1l-1.6-1.8C210.7,153,209.9,152.8,209.1,152.9"/>
						<path id="XMLID_980_" class="st64" d="M197,154.1c-2.1,0.5-2.6,2.2-1.1,3.8c1.5,1.6,4.4,2.5,6.5,2.1c2.1-0.5,2.6-2.2,1.1-3.8
							C202,154.5,199.1,153.6,197,154.1"/>
						<path id="XMLID_977_" class="st63" d="M195.9,157.8c-1.5-1.6-1-3.3,1.1-3.8c2.1-0.5,5,0.4,6.5,2.1c1.5,1.6,1,3.3-1.1,3.8
							C200.2,160.4,197.3,159.5,195.9,157.8 M196.4,153.4c-0.2,0.1-0.5,0.1-0.7,0.2c-1.6,0.6-2.3,1.6-2.1,2.9c0.1,0.5,0.4,1.1,1,1.7
							c0.5,0.6,1.2,1.1,2,1.5c1.7,0.9,3.8,1.3,5.7,1.1c0.2,0,0.5-0.1,0.7-0.1c0.2-0.1,0.5-0.1,0.7-0.2c1.6-0.6,2.3-1.6,2.1-2.9
							c-0.1-0.5-0.4-1.1-1-1.7c-0.5-0.6-1.2-1.1-2-1.5c-1.7-0.9-3.8-1.3-5.7-1.1C196.8,153.3,196.6,153.3,196.4,153.4"/>
						<polyline id="XMLID_976_" class="st65" points="188.6,152.3 187.3,152.6 188.5,153.9 189.5,155 191.3,157 194.2,160.1
							196.1,162.1 197.1,163.2 198.2,164.5 199.5,164.2 198.4,162.9 197.4,161.8 195.5,159.8 192.6,156.7 190.8,154.7 189.8,153.6
							188.6,152.3 						"/>
						<polyline id="XMLID_975_" class="st65" points="201,149.5 199.7,149.8 200.8,151.1 201.8,152.2 203.7,154.2 206.6,157.3
							208.4,159.3 209.4,160.5 210.6,161.7 211.9,161.4 210.7,160.2 209.7,159 207.9,157.1 205,153.9 203.1,151.9 202.1,150.8
							201,149.5 						"/>
					</g>
				</g>
			</g>
			<g id="XMLID_942_">
				<g id="XMLID_943_" class="st37">
					<defs>
						<polygon id="XMLID_944_" class="st37" points="181.1,166.7 170.3,154.9 218.2,144.1 229.1,155.9 						"/>
					</defs>
					<clipPath id="XMLID_376_">
						<use xlink:href="#XMLID_944_"  style="overflow:visible;"/>
					</clipPath>
					<g id="XMLID_945_" class="st68">
						<path id="XMLID_962_" class="st63" d="M196.5,158l-1,0.2l1.8,2l4.9-1.1C200.4,159.4,198.2,158.9,196.5,158 M206.6,155.8
							l-0.9,0.2c0.3,1.2-0.5,2.3-2.1,2.9l4.8-1.1L206.6,155.8 M189.5,153.4l-12.4,2.8l6.6,7.2l12.4-2.8l-1.8-2l-4,0.9
							c-0.7,0.2-1.6,0-2-0.4l-1.6-1.8c-0.4-0.4-0.1-0.8,0.7-1l4-0.9L189.5,153.4 M195.7,152l-4.9,1.1l1.8,2l1-0.2
							C193.4,153.6,194.1,152.5,195.7,152 M201.8,150.6l-4.8,1.1c1.9-0.2,4,0.2,5.8,1.1l0.9-0.2L201.8,150.6 M215.7,147.5l-12.5,2.8
							l1.8,2l4.2-0.9c0.7-0.2,1.6,0,2,0.4l1.6,1.8c0.4,0.4,0.1,0.8-0.7,1l-4.2,0.9l1.8,2l12.5-2.8L215.7,147.5 M199.7,148.2l-11,2.5
							l1.1,1.2l11-2.5L199.7,148.2 M216.4,144.5L201,148l1.1,1.2l12.8-2.9c1-0.2,2.2,0,2.7,0.6l6.8,7.5c0.5,0.5,0.1,1.1-0.9,1.4
							l-12.8,2.9l1.1,1.2l-1.3,0.3l-1.1-1.2l-11,2.5l1.1,1.2l-1.3,0.3l-1.1-1.2l-12.7,2.9c-1,0.2-2.2,0-2.7-0.6l-6.8-7.5
							c-0.5-0.5-0.1-1.1,0.9-1.4l12.7-2.9l-1.1-1.2l-15.3,3.4c-1,0.2-1.4,0.8-0.9,1.4l9.1,9.9c0.5,0.5,1.7,0.8,2.7,0.6l44.3-10
							c1-0.2,1.4-0.8,0.9-1.4l-9.1-9.9C218.6,144.5,217.4,144.2,216.4,144.5"/>
						<path id="XMLID_957_" class="st64" d="M208.4,157.8l-4.8,1.1c-0.2,0.1-0.4,0.1-0.7,0.2c-0.2,0.1-0.5,0.1-0.7,0.1l-4.9,1.1
							l1,1.1l11-2.5L208.4,157.8 M188.5,152.3l-12.7,2.9c-1,0.2-1.4,0.8-0.9,1.4l6.8,7.5c0.5,0.5,1.7,0.8,2.7,0.6l12.7-2.9l-1-1.1
							l-12.4,2.8l-6.6-7.2l12.4-2.8L188.5,152.3 M200.8,149.5l-11,2.5l1,1.1l4.9-1.1c0.2-0.1,0.4-0.1,0.6-0.2
							c0.2-0.1,0.5-0.1,0.7-0.1l4.8-1.1L200.8,149.5 M214.9,146.3l-12.8,2.9l1,1.1l12.5-2.8l6.6,7.2l-12.5,2.8l1,1.1l12.8-2.9
							c1-0.2,1.4-0.8,0.9-1.4l-6.8-7.5C217.1,146.3,215.9,146.1,214.9,146.3"/>
						<path id="XMLID_952_" class="st64" d="M191.3,155.4l-4,0.9c-0.7,0.2-1,0.6-0.7,1l1.6,1.8c0.4,0.4,1.2,0.6,2,0.4l4-0.9
							L191.3,155.4 M193.6,154.9l-1,0.2l2.9,3.2l1-0.2c-0.8-0.4-1.4-0.9-2-1.5C194,156,193.7,155.4,193.6,154.9 M203.7,152.6
							l-0.9,0.2c0.8,0.4,1.4,0.9,2,1.5c0.5,0.6,0.8,1.2,1,1.7l0.9-0.2L203.7,152.6 M209.1,151.4l-4.2,0.9l2.9,3.2l4.2-0.9
							c0.7-0.2,1-0.6,0.7-1l-1.6-1.8C210.7,151.4,209.9,151.2,209.1,151.4"/>
						<path id="XMLID_951_" class="st64" d="M197,152.5c-2.1,0.5-2.6,2.2-1.1,3.8c1.5,1.6,4.4,2.5,6.5,2.1c2.1-0.5,2.6-2.2,1.1-3.8
							C202,152.9,199.1,152,197,152.5"/>
						<path id="XMLID_948_" class="st63" d="M195.9,156.3c-1.5-1.6-1-3.3,1.1-3.8c2.1-0.5,5,0.5,6.5,2.1c1.5,1.6,1,3.3-1.1,3.8
							C200.2,158.8,197.3,157.9,195.9,156.3 M196.4,151.8c-0.2,0.1-0.4,0.1-0.6,0.2c-1.6,0.6-2.4,1.6-2.1,2.9c0.1,0.5,0.4,1.1,1,1.7
							c0.5,0.6,1.2,1.1,2,1.5c1.7,0.9,3.8,1.3,5.7,1.1c0.2,0,0.5-0.1,0.7-0.1c0.2-0.1,0.5-0.1,0.7-0.2c1.6-0.6,2.3-1.6,2.1-2.9
							c-0.1-0.5-0.4-1.1-1-1.7c-0.5-0.6-1.2-1.1-2-1.5c-1.7-0.9-3.9-1.3-5.8-1.1C196.8,151.7,196.6,151.7,196.4,151.8"/>
						<polyline id="XMLID_947_" class="st65" points="188.6,150.7 187.3,151 188.5,152.3 189.5,153.4 191.3,155.4 194.2,158.5
							196.1,160.5 197.1,161.7 198.2,162.9 199.5,162.6 198.4,161.4 197.4,160.2 195.5,158.2 192.6,155.1 190.8,153.1 189.8,152
							188.6,150.7 						"/>
						<polyline id="XMLID_946_" class="st65" points="201,148 199.7,148.2 200.8,149.5 201.8,150.6 203.7,152.6 206.6,155.8
							208.4,157.8 209.4,158.9 210.6,160.1 211.9,159.8 210.7,158.6 209.7,157.5 207.9,155.5 205,152.3 203.1,150.3 202.1,149.2
							201,148 						"/>
					</g>
				</g>
			</g>
			<g id="XMLID_913_">
				<g id="XMLID_914_" class="st37">
					<defs>
						<polygon id="XMLID_915_" class="st37" points="181.1,165.2 170.3,153.3 218.2,142.5 229.1,154.3 						"/>
					</defs>
					<clipPath id="XMLID_377_">
						<use xlink:href="#XMLID_915_"  style="overflow:visible;"/>
					</clipPath>
					<g id="XMLID_916_" class="st69">
						<path id="XMLID_933_" class="st63" d="M196.5,156.4l-1,0.2l1.8,2l4.9-1.1C200.4,157.8,198.2,157.4,196.5,156.4 M206.6,154.2
							l-0.9,0.2c0.3,1.2-0.5,2.3-2.1,2.9l4.8-1.1L206.6,154.2 M189.5,151.8l-12.4,2.8l6.6,7.2l12.4-2.8l-1.8-2l-4,0.9
							c-0.7,0.2-1.6,0-2-0.4l-1.6-1.8c-0.4-0.4-0.1-0.8,0.7-1l4-0.9L189.5,151.8 M195.7,150.4l-4.9,1.1l1.8,2l1-0.2
							C193.4,152,194.1,150.9,195.7,150.4 M201.8,149l-4.8,1.1c1.9-0.2,4,0.2,5.7,1.1l0.9-0.2L201.8,149 M215.7,145.9l-12.5,2.8
							l1.8,2l4.2-0.9c0.7-0.2,1.6,0,2,0.4l1.6,1.8c0.4,0.4,0.1,0.8-0.7,1l-4.2,0.9l1.8,2l12.5-2.8L215.7,145.9 M199.7,146.7l-11,2.5
							l1.1,1.2l11-2.5L199.7,146.7 M216.4,142.9l-15.4,3.5l1.1,1.2l12.8-2.9c1-0.2,2.2,0,2.7,0.6l6.8,7.5c0.5,0.5,0.1,1.1-0.9,1.4
							l-12.8,2.9l1.1,1.2l-1.3,0.3l-1.1-1.2l-11,2.5l1.1,1.2l-1.3,0.3l-1.1-1.2l-12.7,2.9c-1,0.2-2.2,0-2.7-0.6l-6.8-7.5
							c-0.5-0.5-0.1-1.1,0.9-1.4l12.7-2.9l-1.1-1.2l-15.3,3.4c-1,0.2-1.4,0.8-0.9,1.4l9.1,9.9c0.5,0.5,1.7,0.8,2.7,0.6l44.3-10
							c1-0.2,1.4-0.8,0.9-1.4l-9.1-9.9C218.6,142.9,217.4,142.7,216.4,142.9"/>
						<path id="XMLID_928_" class="st64" d="M208.4,156.2l-4.8,1.1c-0.2,0.1-0.4,0.1-0.6,0.2c-0.2,0.1-0.5,0.1-0.7,0.1l-4.9,1.1
							l1,1.1l11-2.5L208.4,156.2 M188.5,150.7l-12.7,2.9c-1,0.2-1.4,0.8-0.9,1.4l6.8,7.5c0.5,0.5,1.7,0.8,2.7,0.6l12.7-2.9l-1-1.1
							l-12.4,2.8l-6.6-7.2l12.4-2.8L188.5,150.7 M200.8,147.9l-11,2.5l1,1.1l4.9-1.1c0.2-0.1,0.4-0.1,0.7-0.2
							c0.2-0.1,0.5-0.1,0.7-0.1l4.8-1.1L200.8,147.9 M214.9,144.7l-12.8,2.9l1,1.1l12.5-2.8l6.6,7.2l-12.5,2.8l1,1.1l12.8-2.9
							c1-0.2,1.4-0.8,0.9-1.4l-6.8-7.5C217.1,144.7,215.9,144.5,214.9,144.7"/>
						<path id="XMLID_923_" class="st64" d="M191.3,153.8l-4,0.9c-0.7,0.2-1,0.6-0.7,1l1.6,1.8c0.4,0.4,1.2,0.6,2,0.4l4-0.9
							L191.3,153.8 M193.6,153.3l-1,0.2l2.9,3.2l1-0.2c-0.8-0.4-1.4-0.9-2-1.5C194,154.4,193.7,153.8,193.6,153.3 M203.7,151
							l-0.9,0.2c0.8,0.4,1.4,0.9,2,1.5c0.5,0.6,0.8,1.1,1,1.7l0.9-0.2L203.7,151 M209.1,149.8l-4.2,0.9l2.9,3.2l4.2-0.9
							c0.7-0.2,1-0.6,0.7-1l-1.6-1.8C210.7,149.8,209.9,149.6,209.1,149.8"/>
						<path id="XMLID_922_" class="st64" d="M197,150.9c-2.1,0.5-2.6,2.2-1.1,3.8c1.5,1.6,4.4,2.5,6.5,2.1c2.1-0.5,2.6-2.2,1.1-3.8
							C202,151.3,199.1,150.4,197,150.9"/>
						<path id="XMLID_919_" class="st63" d="M195.9,154.7c-1.5-1.6-1-3.3,1.1-3.8c2.1-0.5,5,0.4,6.5,2.1c1.5,1.6,1,3.3-1.1,3.8
							C200.2,157.2,197.3,156.3,195.9,154.7 M196.4,150.2c-0.2,0.1-0.5,0.1-0.7,0.2c-1.6,0.6-2.3,1.6-2.1,2.9c0.1,0.5,0.4,1.1,1,1.7
							c0.5,0.6,1.2,1.1,2,1.5c1.7,0.9,3.9,1.3,5.8,1.1c0.2,0,0.5-0.1,0.7-0.1c0.2-0.1,0.4-0.1,0.6-0.2c1.6-0.6,2.4-1.6,2.1-2.9
							c-0.1-0.5-0.4-1.1-1-1.7c-0.5-0.6-1.2-1.1-2-1.5c-1.7-0.9-3.8-1.3-5.7-1.1C196.8,150.1,196.6,150.1,196.4,150.2"/>
						<polyline id="XMLID_918_" class="st65" points="188.6,149.2 187.3,149.4 188.5,150.7 189.5,151.8 191.3,153.8 194.2,157
							196.1,159 197.1,160.1 198.2,161.3 199.5,161 198.4,159.8 197.4,158.7 195.5,156.7 192.6,153.5 190.8,151.5 189.8,150.4
							188.6,149.2 						"/>
						<polyline id="XMLID_917_" class="st65" points="201,146.4 199.7,146.7 200.8,147.9 201.8,149 203.7,151 206.6,154.2
							208.4,156.2 209.4,157.3 210.6,158.5 211.9,158.2 210.7,157 209.7,155.9 207.9,153.9 205,150.7 203.1,148.7 202.1,147.6
							201,146.4 						"/>
					</g>
				</g>
			</g>
			<g id="XMLID_896_">
				<g id="XMLID_897_" class="st37">
					<defs>
						<polygon id="XMLID_898_" class="st37" points="181.1,163.6 170.3,151.7 218.2,140.9 229.1,152.7 						"/>
					</defs>
					<clipPath id="XMLID_378_">
						<use xlink:href="#XMLID_898_"  style="overflow:visible;"/>
					</clipPath>
					<g id="XMLID_899_" class="st70">
						<path id="XMLID_909_" class="st63" d="M188.2,150.5l-11.1,2.5l6.6,7.2l11.1-2.5l-1.8-2l-2.7,0.6c-0.7,0.2-1.6,0-2-0.4
							l-1.6-1.8c-0.4-0.4-0.1-0.8,0.7-1l2.7-0.6L188.2,150.5 M215.7,144.3l-11.2,2.5l1.8,2l2.8-0.6c0.7-0.2,1.6,0,2,0.4l1.6,1.8
							c0.4,0.4,0.1,0.8-0.7,1l-2.8,0.6l1.8,2l11.2-2.5L215.7,144.3 M216.4,141.3l-14.1,3.2l1.1,1.2l11.5-2.6c1-0.2,2.2,0,2.7,0.6
							l6.8,7.5c0.5,0.5,0.1,1.2-0.9,1.4l-11.5,2.6l1.1,1.2l-16.3,3.7l-1.1-1.2l-11.3,2.6c-1,0.2-2.2,0-2.7-0.6l-6.8-7.5
							c-0.5-0.5-0.1-1.1,0.9-1.4l11.3-2.6l-1.1-1.2l-13.9,3.1c-1,0.2-1.4,0.8-0.9,1.4l9.1,9.9c0.5,0.5,1.7,0.8,2.7,0.6l44.3-10
							c1-0.2,1.4-0.8,0.9-1.4l-9.1-9.9C218.6,141.3,217.4,141.1,216.4,141.3"/>
						<path id="XMLID_906_" class="st64" d="M187.1,149.4l-11.3,2.6c-1,0.2-1.4,0.8-0.9,1.4l6.8,7.5c0.5,0.5,1.7,0.8,2.7,0.6
							l11.3-2.6l-1-1.1l-11.1,2.5l-6.6-7.2l11.1-2.5L187.1,149.4 M214.9,143.1l-11.5,2.6l1,1.1l11.2-2.5l6.6,7.2L211,154l1,1.1
							l11.5-2.6c1-0.2,1.4-0.8,0.9-1.4l-6.8-7.5C217.1,143.1,215.9,142.9,214.9,143.1"/>
						<path id="XMLID_903_" class="st64" d="M190,152.5l-2.7,0.6c-0.7,0.2-1,0.6-0.7,1l1.6,1.8c0.4,0.4,1.2,0.6,2,0.4l2.7-0.6
							L190,152.5 M209.1,148.2l-2.8,0.6l2.9,3.2l2.8-0.6c0.7-0.2,1-0.6,0.7-1l-1.6-1.8C210.7,148.2,209.9,148,209.1,148.2"/>
						<polyline id="XMLID_902_" class="st71" points="202.3,144.5 201,144.8 211.9,156.6 210.6,156.9 199.7,145.1 188.6,147.6
							199.5,159.4 198.2,159.7 187.3,147.9 186,148.2 187.1,149.4 188.2,150.5 190,152.5 192.9,155.7 194.7,157.7 195.8,158.8
							196.9,160 213.2,156.3 212.1,155.1 211,154 209.2,152 206.3,148.8 204.5,146.8 203.4,145.7 202.3,144.5 						"/>
						<polyline id="XMLID_901_" class="st65" points="188.6,147.6 187.3,147.9 198.2,159.7 199.5,159.4 188.6,147.6 						"/>
						<polyline id="XMLID_900_" class="st65" points="201,144.8 199.7,145.1 210.6,156.9 211.9,156.6 201,144.8 						"/>
					</g>
				</g>
			</g>
			<polygon id="XMLID_895_" class="st72" points="213.2,156.3 213.2,164.3 196.9,168 196.9,160 			"/>
			<g id="XMLID_893_">
				<polygon id="XMLID_894_" class="st65" points="199.5,167.4 198.3,167.7 198.3,159.7 199.4,159.4 				"/>
			</g>
			<g id="XMLID_891_">
				<polygon id="XMLID_892_" class="st65" points="211.8,164.7 210.6,164.9 210.6,156.9 211.8,156.6 				"/>
			</g>
		</g>
		<g id="XMLID_719_">
			<g id="XMLID_861_">
				<g id="XMLID_862_" class="st37">
					<defs>
						<polygon id="XMLID_863_" class="st37" points="192,157.7 181.2,145.9 229.1,135.1 240,146.9 						"/>
					</defs>
					<clipPath id="XMLID_381_">
						<use xlink:href="#XMLID_863_"  style="overflow:visible;"/>
					</clipPath>
					<g id="XMLID_864_" class="st73">
						<path id="XMLID_881_" class="st63" d="M207.4,149l-1,0.2l1.8,2l4.9-1.1C211.3,150.4,209.2,149.9,207.4,149 M217.5,146.8
							l-0.9,0.2c0.3,1.2-0.5,2.3-2.1,2.9l4.8-1.1L217.5,146.8 M200.4,144.4l-12.4,2.8l6.6,7.2l12.4-2.8l-1.8-2l-4,0.9
							c-0.7,0.2-1.6,0-2-0.4l-1.6-1.8c-0.4-0.4-0.1-0.8,0.7-1l4-0.9L200.4,144.4 M206.6,143l-4.9,1.1l1.8,2l1-0.2
							C204.3,144.6,205,143.5,206.6,143 M212.8,141.6l-4.8,1.1c1.9-0.2,4,0.2,5.8,1.1l0.9-0.2L212.8,141.6 M226.6,138.5l-12.5,2.8
							l1.8,2l4.2-0.9c0.7-0.2,1.6,0,2,0.4l1.6,1.8c0.4,0.4,0.1,0.8-0.7,1l-4.2,0.9l1.8,2l12.5-2.8L226.6,138.5 M210.6,139.3l-11,2.5
							l1.1,1.2l11-2.5L210.6,139.3 M227.3,135.5l-15.4,3.5l1.1,1.2l12.8-2.9c1-0.2,2.2,0,2.7,0.6l6.8,7.5c0.5,0.5,0.1,1.1-0.9,1.4
							l-12.8,2.9l1.1,1.2l-1.3,0.3l-1.1-1.2l-11,2.5l1.1,1.2l-1.3,0.3l-1.1-1.2l-12.7,2.9c-1,0.2-2.2,0-2.7-0.6l-6.8-7.5
							c-0.5-0.5-0.1-1.1,0.9-1.4l12.7-2.9l-1.1-1.2l-15.3,3.4c-1,0.2-1.4,0.8-0.9,1.4l9.1,9.9c0.5,0.5,1.7,0.8,2.7,0.6l44.3-10
							c1-0.2,1.4-0.8,0.9-1.4L230,136C229.5,135.5,228.3,135.3,227.3,135.5"/>
						<path id="XMLID_876_" class="st64" d="M219.3,148.8l-4.8,1.1c-0.2,0.1-0.4,0.1-0.7,0.2c-0.2,0.1-0.5,0.1-0.7,0.1l-4.9,1.1
							l1,1.1l11-2.5L219.3,148.8 M199.4,143.3l-12.7,2.9c-1,0.2-1.4,0.8-0.9,1.4l6.8,7.5c0.5,0.5,1.7,0.8,2.7,0.6l12.7-2.9l-1-1.1
							l-12.4,2.8l-6.6-7.2l12.4-2.8L199.4,143.3 M211.7,140.5l-11,2.5l1,1.1l4.9-1.1c0.2-0.1,0.4-0.1,0.6-0.2
							c0.2-0.1,0.5-0.1,0.7-0.1l4.8-1.1L211.7,140.5 M225.8,137.3l-12.8,2.9l1,1.1l12.5-2.8l6.6,7.2l-12.5,2.8l1,1.1l12.8-2.9
							c1-0.2,1.4-0.8,0.9-1.4l-6.8-7.5C228.1,137.3,226.8,137.1,225.8,137.3"/>
						<path id="XMLID_871_" class="st64" d="M202.2,146.4l-4,0.9c-0.7,0.2-1,0.6-0.7,1l1.6,1.8c0.4,0.4,1.2,0.6,2,0.4l4-0.9
							L202.2,146.4 M204.5,145.9l-1,0.2l2.9,3.2l1-0.2c-0.8-0.4-1.4-0.9-2-1.5C205,147,204.7,146.4,204.5,145.9 M214.6,143.6
							l-0.9,0.2c0.8,0.4,1.4,0.9,2,1.5c0.5,0.6,0.8,1.2,1,1.7l0.9-0.2L214.6,143.6 M220,142.4l-4.2,0.9l2.9,3.2l4.2-0.9
							c0.7-0.2,1-0.6,0.7-1l-1.6-1.8C221.7,142.4,220.8,142.2,220,142.4"/>
						<path id="XMLID_870_" class="st64" d="M207.9,143.5c-2.1,0.5-2.6,2.2-1.1,3.8c1.5,1.6,4.4,2.5,6.5,2.1
							c2.1-0.5,2.6-2.2,1.1-3.8C212.9,143.9,210,143,207.9,143.5"/>
						<path id="XMLID_867_" class="st63" d="M206.8,147.3c-1.5-1.6-1-3.3,1.1-3.8c2.1-0.5,5,0.4,6.5,2.1c1.5,1.6,1,3.3-1.1,3.8
							C211.2,149.8,208.3,148.9,206.8,147.3 M207.3,142.8c-0.2,0.1-0.4,0.1-0.6,0.2c-1.6,0.6-2.4,1.6-2.1,2.9c0.1,0.5,0.4,1.1,1,1.7
							c0.5,0.6,1.2,1.1,2,1.5c1.7,0.9,3.8,1.3,5.7,1.1c0.2,0,0.5-0.1,0.7-0.1c0.2-0.1,0.5-0.1,0.7-0.2c1.6-0.6,2.3-1.6,2.1-2.9
							c-0.1-0.5-0.4-1.1-1-1.7c-0.5-0.6-1.2-1.1-2-1.5c-1.7-0.9-3.9-1.3-5.8-1.1C207.7,142.7,207.5,142.7,207.3,142.8"/>
						<polyline id="XMLID_866_" class="st65" points="199.6,141.7 198.3,142 199.4,143.3 200.4,144.4 202.2,146.4 205.2,149.5
							207,151.5 208,152.7 209.1,153.9 210.4,153.6 209.3,152.4 208.3,151.3 206.5,149.3 203.5,146.1 201.7,144.1 200.7,143
							199.6,141.7 						"/>
						<polyline id="XMLID_865_" class="st65" points="211.9,139 210.6,139.3 211.7,140.5 212.8,141.6 214.6,143.6 217.5,146.8
							219.3,148.8 220.3,149.9 221.5,151.1 222.8,150.8 221.6,149.6 220.6,148.5 218.8,146.5 215.9,143.3 214.1,141.3 213,140.2
							211.9,139 						"/>
					</g>
				</g>
			</g>
			<g id="XMLID_829_">
				<g id="XMLID_830_" class="st37">
					<defs>
						<polygon id="XMLID_831_" class="st37" points="192,156.2 181.2,144.3 229.1,133.5 240,145.3 						"/>
					</defs>
					<clipPath id="XMLID_382_">
						<use xlink:href="#XMLID_831_"  style="overflow:visible;"/>
					</clipPath>
					<g id="XMLID_832_" class="st74">
						<path id="XMLID_852_" class="st63" d="M207.4,147.4l-1,0.2l1.8,2l4.9-1.1C211.3,148.8,209.2,148.4,207.4,147.4 M217.5,145.2
							l-0.9,0.2c0.3,1.2-0.5,2.3-2.1,2.9l4.8-1.1L217.5,145.2 M200.4,142.8l-12.4,2.8l6.6,7.2L207,150l-1.8-2l-4,0.9
							c-0.7,0.2-1.6,0-2-0.4l-1.6-1.8c-0.4-0.4-0.1-0.8,0.7-1l4-0.9L200.4,142.8 M206.6,141.4l-4.9,1.1l1.8,2l1-0.2
							C204.3,143,205,141.9,206.6,141.4 M212.8,140l-4.8,1.1c1.9-0.2,4,0.2,5.7,1.1l0.9-0.2L212.8,140 M226.6,136.9l-12.5,2.8l1.8,2
							l4.2-0.9c0.7-0.2,1.6,0,2,0.4l1.6,1.8c0.4,0.4,0.1,0.8-0.7,1l-4.2,0.9l1.8,2l12.5-2.8L226.6,136.9 M210.6,137.7l-11,2.5
							l1.1,1.2l11-2.5L210.6,137.7 M227.3,133.9l-15.4,3.5l1.1,1.2l12.8-2.9c1-0.2,2.2,0,2.7,0.6l6.8,7.5c0.5,0.5,0.1,1.1-0.9,1.4
							l-12.8,2.9l1.1,1.2l-1.3,0.3l-1.1-1.2l-11,2.5l1.1,1.2l-1.3,0.3l-1.1-1.2l-12.7,2.9c-1,0.2-2.2,0-2.7-0.6l-6.8-7.5
							c-0.5-0.5-0.1-1.1,0.9-1.4l12.7-2.9l-1.1-1.2l-15.3,3.4c-1,0.2-1.4,0.8-0.9,1.4l9.1,9.9c0.5,0.5,1.7,0.8,2.7,0.6l44.3-10
							c1-0.2,1.4-0.8,0.9-1.4l-9.1-9.9C229.5,133.9,228.3,133.7,227.3,133.9"/>
						<path id="XMLID_847_" class="st64" d="M219.3,147.2l-4.8,1.1c-0.2,0.1-0.4,0.1-0.7,0.2c-0.2,0.1-0.5,0.1-0.7,0.1l-4.9,1.1
							l1,1.1l11-2.5L219.3,147.2 M199.4,141.7l-12.7,2.9c-1,0.2-1.4,0.8-0.9,1.4l6.8,7.5c0.5,0.5,1.7,0.8,2.7,0.6l12.7-2.9l-1-1.1
							l-12.4,2.8l-6.6-7.2l12.4-2.8L199.4,141.7 M211.7,138.9l-11,2.5l1,1.1l4.9-1.1c0.2-0.1,0.4-0.1,0.7-0.2
							c0.2-0.1,0.5-0.1,0.7-0.1l4.8-1.1L211.7,138.9 M225.8,135.7l-12.8,2.9l1,1.1l12.5-2.8l6.6,7.2l-12.5,2.8l1,1.1l12.8-2.9
							c1-0.2,1.4-0.8,0.9-1.4l-6.8-7.5C228.1,135.7,226.8,135.5,225.8,135.7"/>
						<path id="XMLID_842_" class="st64" d="M202.2,144.8l-4,0.9c-0.7,0.2-1,0.6-0.7,1l1.6,1.8c0.4,0.4,1.2,0.6,2,0.4l4-0.9
							L202.2,144.8 M204.5,144.3l-1,0.2l2.9,3.2l1-0.2c-0.8-0.4-1.4-0.9-2-1.5C205,145.4,204.7,144.8,204.5,144.3 M214.6,142
							l-0.9,0.2c0.8,0.4,1.4,0.9,2,1.5c0.5,0.6,0.8,1.2,1,1.7l0.9-0.2L214.6,142 M220,140.8l-4.2,0.9l2.9,3.2l4.2-0.9
							c0.7-0.2,1-0.6,0.7-1l-1.6-1.8C221.7,140.8,220.8,140.6,220,140.8"/>
						<path id="XMLID_841_" class="st64" d="M207.9,141.9c-2.1,0.5-2.6,2.2-1.1,3.8c1.5,1.6,4.4,2.5,6.5,2.1
							c2.1-0.5,2.6-2.2,1.1-3.8C212.9,142.4,210,141.4,207.9,141.9"/>
						<path id="XMLID_838_" class="st63" d="M206.8,145.7c-1.5-1.6-1-3.3,1.1-3.8c2.1-0.5,5,0.5,6.5,2.1c1.5,1.6,1,3.3-1.1,3.8
							C211.2,148.2,208.3,147.3,206.8,145.7 M207.3,141.2c-0.2,0.1-0.5,0.1-0.7,0.2c-1.6,0.6-2.3,1.6-2.1,2.9c0.1,0.5,0.4,1.1,1,1.7
							c0.5,0.6,1.2,1.1,2,1.5c1.7,0.9,3.8,1.3,5.7,1.1c0.2,0,0.5-0.1,0.7-0.1c0.2-0.1,0.5-0.1,0.7-0.2c1.6-0.6,2.3-1.6,2.1-2.9
							c-0.1-0.5-0.4-1.1-1-1.7c-0.5-0.6-1.2-1.1-2-1.5c-1.7-0.9-3.8-1.3-5.7-1.1C207.8,141.1,207.5,141.2,207.3,141.2"/>
						<polyline id="XMLID_837_" class="st65" points="199.6,140.2 198.3,140.5 199.4,141.7 200.4,142.8 202.2,144.8 205.2,148
							207,150 208,151.1 209.1,152.3 210.4,152 209.3,150.8 208.3,149.7 206.5,147.7 203.5,144.5 201.7,142.5 200.7,141.4
							199.6,140.2 						"/>
						<polyline id="XMLID_836_" class="st65" points="211.9,137.4 210.6,137.7 211.7,138.9 212.8,140 214.6,142 217.5,145.2
							219.3,147.2 220.3,148.3 221.5,149.5 222.8,149.2 221.6,148 220.6,146.9 218.8,144.9 215.9,141.7 214.1,139.7 213,138.6
							211.9,137.4 						"/>
					</g>
				</g>
			</g>
			<g id="XMLID_800_">
				<g id="XMLID_801_" class="st37">
					<defs>
						<polygon id="XMLID_802_" class="st37" points="192,154.6 181.2,142.7 229.1,131.9 240,143.7 						"/>
					</defs>
					<clipPath id="XMLID_383_">
						<use xlink:href="#XMLID_802_"  style="overflow:visible;"/>
					</clipPath>
					<g id="XMLID_803_" class="st75">
						<path id="XMLID_820_" class="st63" d="M207.4,145.9l-1,0.2l1.8,2l4.9-1.1C211.3,147.2,209.2,146.8,207.4,145.9 M217.5,143.6
							l-0.9,0.2c0.3,1.2-0.5,2.3-2.1,2.9l4.8-1.1L217.5,143.6 M200.4,141.2L188,144l6.6,7.2l12.4-2.8l-1.8-2l-4,0.9
							c-0.7,0.2-1.6,0-2-0.4l-1.6-1.8c-0.4-0.4-0.1-0.8,0.7-1l4-0.9L200.4,141.2 M206.6,139.8l-4.9,1.1l1.8,2l1-0.2
							C204.3,141.5,205,140.4,206.6,139.8 M212.8,138.4l-4.8,1.1c1.9-0.2,4,0.2,5.7,1.1l0.9-0.2L212.8,138.4 M226.6,135.3l-12.5,2.8
							l1.8,2l4.2-0.9c0.7-0.2,1.6,0,2,0.4l1.6,1.8c0.4,0.4,0.1,0.8-0.7,1l-4.2,0.9l1.8,2l12.5-2.8L226.6,135.3 M210.6,136.1l-11,2.5
							l1.1,1.2l11-2.5L210.6,136.1 M227.3,132.3l-15.4,3.5l1.1,1.2l12.8-2.9c1-0.2,2.2,0,2.7,0.6l6.8,7.5c0.5,0.5,0.1,1.1-0.9,1.4
							l-12.8,2.9l1.1,1.2l-1.3,0.3l-1.1-1.2l-11,2.5l1.1,1.2l-1.3,0.3l-1.1-1.2l-12.7,2.9c-1,0.2-2.2,0-2.7-0.6l-6.8-7.5
							c-0.5-0.5-0.1-1.1,0.9-1.4l12.7-2.9l-1.1-1.2l-15.3,3.4c-1,0.2-1.4,0.8-0.9,1.4l9.1,9.9c0.5,0.5,1.7,0.8,2.7,0.6l44.3-10
							c1-0.2,1.4-0.8,0.9-1.4l-9.1-9.9C229.5,132.3,228.3,132.1,227.3,132.3"/>
						<path id="XMLID_815_" class="st64" d="M219.3,145.6l-4.8,1.1c-0.2,0.1-0.4,0.1-0.6,0.2c-0.2,0.1-0.5,0.1-0.7,0.1l-4.9,1.1
							l1,1.1l11-2.5L219.3,145.6 M199.4,140.1l-12.7,2.9c-1,0.2-1.4,0.8-0.9,1.4l6.8,7.5c0.5,0.5,1.7,0.8,2.7,0.6l12.7-2.9l-1-1.1
							l-12.4,2.8L188,144l12.4-2.8L199.4,140.1 M211.7,137.3l-11,2.5l1,1.1l4.9-1.1c0.2-0.1,0.4-0.1,0.7-0.2
							c0.2-0.1,0.5-0.1,0.7-0.1l4.8-1.1L211.7,137.3 M225.8,134.1L213,137l1,1.1l12.5-2.8l6.6,7.2l-12.5,2.8l1,1.1l12.8-2.9
							c1-0.2,1.4-0.8,0.9-1.4l-6.8-7.5C228.1,134.2,226.8,133.9,225.8,134.1"/>
						<path id="XMLID_810_" class="st64" d="M202.2,143.2l-4,0.9c-0.7,0.2-1,0.6-0.7,1l1.6,1.8c0.4,0.4,1.2,0.6,2,0.4l4-0.9
							L202.2,143.2 M204.5,142.7l-1,0.2l2.9,3.2l1-0.2c-0.8-0.4-1.4-0.9-2-1.5C205,143.8,204.7,143.2,204.5,142.7 M214.6,140.4
							l-0.9,0.2c0.8,0.4,1.4,0.9,2,1.5c0.5,0.6,0.8,1.1,1,1.7l0.9-0.2L214.6,140.4 M220,139.2l-4.2,0.9l2.9,3.2l4.2-0.9
							c0.7-0.2,1-0.6,0.7-1l-1.6-1.8C221.7,139.2,220.8,139,220,139.2"/>
						<path id="XMLID_809_" class="st64" d="M207.9,140.3c-2.1,0.5-2.6,2.2-1.1,3.8c1.5,1.6,4.4,2.5,6.5,2.1
							c2.1-0.5,2.6-2.2,1.1-3.8C212.9,140.8,210,139.8,207.9,140.3"/>
						<path id="XMLID_806_" class="st63" d="M206.8,144.1c-1.5-1.6-1-3.3,1.1-3.8c2.1-0.5,5,0.4,6.5,2.1c1.5,1.6,1,3.3-1.1,3.8
							C211.2,146.6,208.3,145.7,206.8,144.1 M207.3,139.6c-0.2,0.1-0.5,0.1-0.7,0.2c-1.6,0.6-2.3,1.6-2.1,2.9c0.1,0.5,0.4,1.1,1,1.7
							c0.5,0.6,1.2,1.1,2,1.5c1.7,0.9,3.9,1.4,5.8,1.1c0.2,0,0.5-0.1,0.7-0.1c0.2-0.1,0.4-0.1,0.6-0.2c1.6-0.6,2.4-1.6,2.1-2.9
							c-0.1-0.5-0.4-1.1-1-1.7c-0.5-0.6-1.2-1.1-2-1.5c-1.7-0.9-3.8-1.3-5.7-1.1C207.7,139.5,207.5,139.6,207.3,139.6"/>
						<polyline id="XMLID_805_" class="st65" points="199.6,138.6 198.3,138.9 199.4,140.1 200.4,141.2 202.2,143.2 205.2,146.4
							207,148.4 208,149.5 209.1,150.7 210.4,150.4 209.3,149.2 208.3,148.1 206.5,146.1 203.5,142.9 201.7,140.9 200.7,139.8
							199.6,138.6 						"/>
						<polyline id="XMLID_804_" class="st65" points="211.9,135.8 210.6,136.1 211.7,137.3 212.8,138.4 214.6,140.4 217.5,143.6
							219.3,145.6 220.3,146.7 221.5,147.9 222.8,147.6 221.6,146.4 220.6,145.3 218.8,143.3 215.9,140.1 214.1,138.1 213,137
							211.9,135.8 						"/>
					</g>
				</g>
			</g>
			<g id="XMLID_771_">
				<g id="XMLID_772_" class="st37">
					<defs>
						<polygon id="XMLID_773_" class="st37" points="192,153 181.2,141.1 229.1,130.3 240,142.2 						"/>
					</defs>
					<clipPath id="XMLID_384_">
						<use xlink:href="#XMLID_773_"  style="overflow:visible;"/>
					</clipPath>
					<g id="XMLID_774_" class="st76">
						<path id="XMLID_791_" class="st63" d="M207.4,144.3l-1,0.2l1.8,2l4.9-1.1C211.3,145.6,209.2,145.2,207.4,144.3 M217.5,142
							l-0.9,0.2c0.3,1.2-0.5,2.3-2.1,2.9l4.8-1.1L217.5,142 M200.4,139.6l-12.4,2.8l6.6,7.2l12.4-2.8l-1.8-2l-4,0.9
							c-0.7,0.2-1.6,0-2-0.4l-1.6-1.8c-0.4-0.4-0.1-0.8,0.7-1l4-0.9L200.4,139.6 M206.6,138.2l-4.9,1.1l1.8,2l1-0.2
							C204.3,139.9,205,138.8,206.6,138.2 M212.8,136.8l-4.8,1.1c1.9-0.2,4,0.2,5.8,1.1l0.9-0.2L212.8,136.8 M226.6,133.7l-12.5,2.8
							l1.8,2l4.2-0.9c0.7-0.2,1.6,0,2,0.4l1.6,1.8c0.4,0.4,0.1,0.8-0.7,1l-4.2,0.9l1.8,2l12.5-2.8L226.6,133.7 M210.6,134.5l-11,2.5
							l1.1,1.2l11-2.5L210.6,134.5 M227.3,130.7l-15.4,3.5l1.1,1.2l12.8-2.9c1-0.2,2.2,0,2.7,0.6l6.8,7.5c0.5,0.5,0.1,1.1-0.9,1.4
							l-12.8,2.9l1.1,1.2l-1.3,0.3l-1.1-1.2l-11,2.5l1.1,1.2l-1.3,0.3l-1.1-1.2l-12.7,2.9c-1,0.2-2.2,0-2.7-0.6l-6.8-7.5
							c-0.5-0.5-0.1-1.1,0.9-1.4l12.7-2.9l-1.1-1.2l-15.3,3.4c-1,0.2-1.4,0.8-0.9,1.4l9.1,9.9c0.5,0.5,1.7,0.8,2.7,0.6l44.3-10
							c1-0.2,1.4-0.8,0.9-1.4l-9.1-9.9C229.5,130.7,228.3,130.5,227.3,130.7"/>
						<path id="XMLID_786_" class="st64" d="M219.3,144l-4.8,1.1c-0.2,0.1-0.4,0.1-0.7,0.2c-0.2,0.1-0.5,0.1-0.7,0.1l-4.9,1.1l1,1.1
							l11-2.5L219.3,144 M199.4,138.5l-12.7,2.9c-1,0.2-1.4,0.8-0.9,1.4l6.8,7.5c0.5,0.5,1.7,0.8,2.7,0.6l12.7-2.9l-1-1.1l-12.4,2.8
							l-6.6-7.2l12.4-2.8L199.4,138.5 M211.7,135.7l-11,2.5l1,1.1l4.9-1.1c0.2-0.1,0.4-0.1,0.6-0.2c0.2-0.1,0.5-0.1,0.7-0.1l4.8-1.1
							L211.7,135.7 M225.8,132.5l-12.8,2.9l1,1.1l12.5-2.8l6.6,7.2l-12.5,2.8l1,1.1l12.8-2.9c1-0.2,1.4-0.8,0.9-1.4l-6.8-7.5
							C228.1,132.6,226.8,132.3,225.8,132.5"/>
						<path id="XMLID_781_" class="st64" d="M202.2,141.6l-4,0.9c-0.7,0.2-1,0.6-0.7,1l1.6,1.8c0.4,0.4,1.2,0.6,2,0.4l4-0.9
							L202.2,141.6 M204.5,141.1l-1,0.2l2.9,3.2l1-0.2c-0.8-0.4-1.4-0.9-2-1.5C205,142.2,204.7,141.6,204.5,141.1 M214.6,138.8
							l-0.9,0.2c0.8,0.4,1.4,0.9,2,1.5c0.5,0.6,0.8,1.2,1,1.7l0.9-0.2L214.6,138.8 M220,137.6l-4.2,0.9l2.9,3.2l4.2-0.9
							c0.7-0.2,1-0.6,0.7-1L222,138C221.7,137.6,220.8,137.4,220,137.6"/>
						<path id="XMLID_780_" class="st64" d="M207.9,138.7c-2.1,0.5-2.6,2.2-1.1,3.8c1.5,1.6,4.4,2.5,6.5,2.1
							c2.1-0.5,2.6-2.2,1.1-3.8C212.9,139.2,210,138.3,207.9,138.7"/>
						<path id="XMLID_777_" class="st63" d="M206.8,142.5c-1.5-1.6-1-3.3,1.1-3.8c2.1-0.5,5,0.4,6.5,2.1c1.5,1.6,1,3.3-1.1,3.8
							C211.2,145,208.3,144.1,206.8,142.5 M207.3,138c-0.2,0.1-0.4,0.1-0.6,0.2c-1.6,0.6-2.4,1.6-2.1,2.9c0.1,0.5,0.4,1.1,1,1.7
							c0.5,0.6,1.2,1.1,2,1.5c1.7,0.9,3.8,1.3,5.7,1.1c0.2,0,0.5-0.1,0.7-0.1c0.2-0.1,0.5-0.1,0.7-0.2c1.6-0.6,2.3-1.6,2.1-2.9
							c-0.1-0.5-0.4-1.1-1-1.7c-0.5-0.6-1.2-1.1-2-1.5c-1.7-0.9-3.9-1.3-5.8-1.1C207.7,137.9,207.5,138,207.3,138"/>
						<polyline id="XMLID_776_" class="st65" points="199.6,137 198.3,137.3 199.4,138.5 200.4,139.6 202.2,141.6 205.2,144.8
							207,146.8 208,147.9 209.1,149.1 210.4,148.8 209.3,147.6 208.3,146.5 206.5,144.5 203.5,141.3 201.7,139.3 200.7,138.2
							199.6,137 						"/>
						<polyline id="XMLID_775_" class="st65" points="211.9,134.2 210.6,134.5 211.7,135.7 212.8,136.8 214.6,138.8 217.5,142
							219.3,144 220.3,145.1 221.5,146.3 222.8,146 221.6,144.8 220.6,143.7 218.8,141.7 215.9,138.5 214.1,136.5 213,135.4
							211.9,134.2 						"/>
					</g>
				</g>
			</g>
			<g id="XMLID_742_">
				<g id="XMLID_743_" class="st37">
					<defs>
						<polygon id="XMLID_744_" class="st37" points="192,151.4 181.2,139.5 229.1,128.7 240,140.6 						"/>
					</defs>
					<clipPath id="XMLID_385_">
						<use xlink:href="#XMLID_744_"  style="overflow:visible;"/>
					</clipPath>
					<g id="XMLID_745_" class="st77">
						<path id="XMLID_762_" class="st63" d="M207.4,142.7l-1,0.2l1.8,2l4.9-1.1C211.3,144,209.2,143.6,207.4,142.7 M217.5,140.4
							l-0.9,0.2c0.3,1.2-0.5,2.3-2.1,2.9l4.8-1.1L217.5,140.4 M200.4,138l-12.4,2.8l6.6,7.2l12.4-2.8l-1.8-2l-4,0.9
							c-0.7,0.2-1.6,0-2-0.4l-1.6-1.8c-0.4-0.4-0.1-0.8,0.7-1l4-0.9L200.4,138 M206.6,136.6l-4.9,1.1l1.8,2l1-0.2
							C204.3,138.3,205,137.2,206.6,136.6 M212.8,135.2l-4.8,1.1c1.9-0.2,4,0.2,5.7,1.1l0.9-0.2L212.8,135.2 M226.6,132.1l-12.5,2.8
							l1.8,2l4.2-0.9c0.7-0.2,1.6,0,2,0.4l1.6,1.8c0.4,0.4,0.1,0.8-0.7,1l-4.2,0.9l1.8,2l12.5-2.8L226.6,132.1 M210.6,132.9l-11,2.5
							l1.1,1.2l11-2.5L210.6,132.9 M227.3,129.1l-15.4,3.5l1.1,1.2l12.8-2.9c1-0.2,2.2,0,2.7,0.6l6.8,7.5c0.5,0.5,0.1,1.1-0.9,1.4
							l-12.8,2.9l1.1,1.2l-1.3,0.3l-1.1-1.2l-11,2.5l1.1,1.2l-1.3,0.3l-1.1-1.2l-12.7,2.9c-1,0.2-2.2,0-2.7-0.6l-6.8-7.5
							c-0.5-0.5-0.1-1.1,0.9-1.4l12.7-2.9l-1.1-1.2l-15.3,3.4c-1,0.2-1.4,0.8-0.9,1.4l9.1,9.9c0.5,0.5,1.7,0.8,2.7,0.6l44.3-10
							c1-0.2,1.4-0.8,0.9-1.4l-9.1-9.9C229.5,129.2,228.3,128.9,227.3,129.1"/>
						<path id="XMLID_757_" class="st64" d="M219.3,142.4l-4.8,1.1c-0.2,0.1-0.4,0.1-0.6,0.2c-0.2,0.1-0.5,0.1-0.7,0.1l-4.9,1.1
							l1,1.1l11-2.5L219.3,142.4 M199.4,136.9l-12.7,2.9c-1,0.2-1.4,0.8-0.9,1.4l6.8,7.5c0.5,0.5,1.7,0.8,2.7,0.6l12.7-2.9l-1-1.1
							l-12.4,2.8l-6.6-7.2l12.4-2.8L199.4,136.9 M211.7,134.1l-11,2.5l1,1.1l4.9-1.1c0.2-0.1,0.4-0.1,0.7-0.2
							c0.2-0.1,0.5-0.1,0.7-0.1l4.8-1.1L211.7,134.1 M225.8,131l-12.8,2.9l1,1.1l12.5-2.8l6.6,7.2l-12.5,2.8l1,1.1l12.8-2.9
							c1-0.2,1.4-0.8,0.9-1.4l-6.8-7.5C228.1,131,226.8,130.7,225.8,131"/>
						<path id="XMLID_752_" class="st64" d="M202.2,140l-4,0.9c-0.7,0.2-1,0.6-0.7,1l1.6,1.8c0.4,0.4,1.2,0.6,2,0.4l4-0.9L202.2,140
							 M204.5,139.5l-1,0.2l2.9,3.2l1-0.2c-0.8-0.4-1.4-0.9-2-1.5C205,140.6,204.7,140.1,204.5,139.5 M214.6,137.2l-0.9,0.2
							c0.8,0.4,1.4,0.9,2,1.5c0.5,0.6,0.8,1.1,1,1.7l0.9-0.2L214.6,137.2 M220,136l-4.2,0.9l2.9,3.2l4.2-0.9c0.7-0.2,1-0.6,0.7-1
							l-1.6-1.8C221.7,136,220.8,135.8,220,136"/>
						<path id="XMLID_751_" class="st64" d="M207.9,137.1c-2.1,0.5-2.6,2.2-1.1,3.8c1.5,1.6,4.4,2.5,6.5,2.1
							c2.1-0.5,2.6-2.2,1.1-3.8C212.9,137.6,210,136.7,207.9,137.1"/>
						<path id="XMLID_748_" class="st63" d="M206.8,140.9c-1.5-1.6-1-3.3,1.1-3.8c2.1-0.5,5,0.4,6.5,2.1c1.5,1.6,1,3.3-1.1,3.8
							C211.2,143.4,208.3,142.5,206.8,140.9 M207.3,136.4c-0.2,0.1-0.5,0.1-0.7,0.2c-1.6,0.6-2.3,1.6-2.1,2.9c0.1,0.5,0.4,1.1,1,1.7
							c0.5,0.6,1.2,1.1,2,1.5c1.7,0.9,3.9,1.3,5.8,1.1c0.2,0,0.5-0.1,0.7-0.1c0.2-0.1,0.4-0.1,0.6-0.2c1.6-0.6,2.4-1.6,2.1-2.9
							c-0.1-0.5-0.4-1.1-1-1.7c-0.5-0.6-1.2-1.1-2-1.5c-1.7-0.9-3.8-1.3-5.7-1.1C207.8,136.4,207.5,136.4,207.3,136.4"/>
						<polyline id="XMLID_747_" class="st65" points="199.6,135.4 198.3,135.7 199.4,136.9 200.4,138 202.2,140 205.2,143.2
							207,145.2 208,146.3 209.1,147.5 210.4,147.2 209.3,146 208.3,144.9 206.5,142.9 203.5,139.7 201.7,137.7 200.7,136.6
							199.6,135.4 						"/>
						<polyline id="XMLID_746_" class="st65" points="211.9,132.6 210.6,132.9 211.7,134.1 212.8,135.2 214.6,137.2 217.5,140.4
							219.3,142.4 220.3,143.5 221.5,144.8 222.8,144.5 221.6,143.2 220.6,142.1 218.8,140.1 215.9,136.9 214.1,135 213,133.8
							211.9,132.6 						"/>
					</g>
				</g>
			</g>
			<g id="XMLID_725_">
				<g id="XMLID_726_" class="st37">
					<defs>
						<polygon id="XMLID_727_" class="st37" points="192,149.8 181.2,138 229.1,127.1 240,139 						"/>
					</defs>
					<clipPath id="XMLID_386_">
						<use xlink:href="#XMLID_727_"  style="overflow:visible;"/>
					</clipPath>
					<g id="XMLID_728_" class="st78">
						<path id="XMLID_738_" class="st63" d="M199.1,136.7l-11.1,2.5l6.6,7.2l11.1-2.5l-1.8-2l-2.7,0.6c-0.7,0.2-1.6,0-2-0.4
							l-1.6-1.8c-0.4-0.4-0.1-0.8,0.7-1l2.7-0.6L199.1,136.7 M226.6,130.5l-11.2,2.5l1.8,2l2.8-0.6c0.7-0.2,1.6,0,2,0.4l1.6,1.8
							c0.4,0.4,0.1,0.8-0.7,1l-2.8,0.6l1.8,2l11.2-2.5L226.6,130.5 M227.3,127.5l-14.1,3.2l1.1,1.2l11.5-2.6c1-0.2,2.2,0,2.7,0.6
							l6.8,7.5c0.5,0.5,0.1,1.1-0.9,1.4l-11.5,2.6l1.1,1.2l-16.3,3.7l-1.1-1.2l-11.3,2.6c-1,0.2-2.2,0-2.7-0.6l-6.8-7.5
							c-0.5-0.5-0.1-1.1,0.9-1.4l11.3-2.6l-1.1-1.2l-13.9,3.1c-1,0.2-1.4,0.8-0.9,1.4l9.1,9.9c0.5,0.5,1.7,0.8,2.7,0.6l44.3-10
							c1-0.2,1.4-0.8,0.9-1.4l-9.1-9.9C229.5,127.6,228.3,127.3,227.3,127.5"/>
						<path id="XMLID_735_" class="st64" d="M198.1,135.6l-11.3,2.6c-1,0.2-1.4,0.8-0.9,1.4l6.8,7.5c0.5,0.5,1.7,0.8,2.7,0.6
							l11.3-2.6l-1-1.1l-11.1,2.5l-6.6-7.2l11.1-2.5L198.1,135.6 M225.8,129.4l-11.5,2.6l1,1.1l11.2-2.5l6.6,7.2l-11.2,2.5l1,1.1
							l11.5-2.6c1-0.2,1.4-0.8,0.9-1.4l-6.8-7.5C228.1,129.4,226.8,129.1,225.8,129.4"/>
						<path id="XMLID_732_" class="st64" d="M200.9,138.7l-2.7,0.6c-0.7,0.2-1,0.6-0.7,1l1.6,1.8c0.4,0.4,1.2,0.6,2,0.4l2.7-0.6
							L200.9,138.7 M220,134.4l-2.8,0.6l2.9,3.2l2.8-0.6c0.7-0.2,1-0.6,0.7-1l-1.6-1.8C221.7,134.4,220.8,134.3,220,134.4"/>
						<polyline id="XMLID_731_" class="st71" points="213.2,130.7 211.9,131 222.8,142.9 221.5,143.2 210.6,131.3 199.6,133.8
							210.4,145.7 209.1,146 198.3,134.1 196.9,134.4 198.1,135.6 199.1,136.7 200.9,138.7 203.8,141.9 205.7,143.9 206.7,145
							207.8,146.3 224.1,142.6 223,141.3 222,140.2 220.1,138.2 217.2,135.1 215.4,133.1 214.4,132 213.2,130.7 						"/>
						<polyline id="XMLID_730_" class="st65" points="199.6,133.8 198.3,134.1 209.1,146 210.4,145.7 199.6,133.8 						"/>
						<polyline id="XMLID_729_" class="st65" points="211.9,131 210.6,131.3 221.5,143.2 222.8,142.9 211.9,131 						"/>
					</g>
				</g>
			</g>
			<polygon id="XMLID_724_" class="st72" points="224.1,142.5 224.1,150.6 207.8,154.2 207.8,146.2 			"/>
			<g id="XMLID_722_">
				<polygon id="XMLID_723_" class="st65" points="210.4,153.6 209.2,153.9 209.2,145.9 210.4,145.7 				"/>
			</g>
			<g id="XMLID_720_">
				<polygon id="XMLID_721_" class="st65" points="222.7,150.9 221.5,151.1 221.5,143.1 222.7,142.8 				"/>
			</g>
		</g>
	</g>
	<g id="XMLID_97_">
		<polygon id="XMLID_717_" class="st10" points="144.3,160.8 139.6,160.8 148.8,151 139.6,141.2 144.3,141.2 153.6,151 		"/>
		<polygon id="XMLID_716_" class="st10" points="153.2,160.8 148.4,160.8 157.6,151 148.4,141.2 153.2,141.2 162.4,151 		"/>
	</g>
</g>
</svg>
